<svg width="692" height="207" viewBox="0 0 692 207" fill="none" xmlns="http://www.w3.org/2000/svg">
<rect x="1" y="-1" width="690" height="207" fill="url(#paint0_linear_245_17326)" fill-opacity="0.3"/>
<path d="M427.469 189.045H348.162C347.531 189.045 347.02 188.533 347.02 187.902V19H427.57C429.439 19 430.951 20.513 430.951 22.3826V185.561C430.951 187.486 429.393 189.045 427.469 189.045Z" fill="#596C76"/>
<path d="M362.134 189.045H348.157C347.526 189.045 347.015 188.533 347.015 187.902V19H362.134V189.045Z" fill="#465A61"/>
<path d="M426.994 189.045H348.162C347.531 189.045 347.02 188.533 347.02 187.902V158.062H430.956V185.086C430.951 187.271 429.178 189.045 426.994 189.045Z" fill="#B6C4CF"/>
<path d="M362.134 189.045H348.157C347.526 189.045 347.015 188.533 347.015 187.902V158.062H362.134V189.045Z" fill="#9FACBA"/>
<path d="M345.995 189.045H263.201C262.571 189.045 262.059 188.533 262.059 187.902V19H345.995V189.045Z" fill="#596C76"/>
<path d="M277.179 189.045H263.201C262.571 189.045 262.059 188.533 262.059 187.902V21.7107C262.059 20.2113 263.274 19 264.769 19H277.174V189.045H277.179Z" fill="#465A61"/>
<path d="M345.995 189.045H263.201C262.571 189.045 262.059 188.533 262.059 187.902V158.062H345.995V189.045Z" fill="#B6C4CF"/>
<path d="M277.179 189.045H263.201C262.571 189.045 262.059 188.533 262.059 187.902V158.062H277.179V189.045Z" fill="#9FACBA"/>
<path d="M422.236 53.6309H356.591V104.973H422.236V53.6309Z" fill="#B6C4CF"/>
<path d="M371.669 104.973H356.86C356.714 104.973 356.591 104.855 356.591 104.704V53.9006C356.591 53.7543 356.71 53.6309 356.86 53.6309H371.669C371.815 53.6309 371.939 53.7497 371.939 53.9006V104.708C371.934 104.855 371.815 104.973 371.669 104.973Z" fill="#9FACBA"/>
<path d="M412.971 72.5591H373.722V103.565H412.971V72.5591Z" fill="#596C76"/>
<path d="M375.215 72.3857H365.076V104.022H375.215V72.3857Z" fill="#465A61"/>
<path d="M422.242 51.6333H357.039V31.4519C357.039 29.9206 358.282 28.6772 359.813 28.6772H418.664C420.638 28.6772 422.242 30.2771 422.242 32.2564V51.6333Z" fill="#8D9CA8"/>
<path d="M371.998 51.6333H356.86C356.714 51.6333 356.591 51.5144 356.591 51.3636V28.9469C356.591 28.8007 356.71 28.6772 356.86 28.6772H371.998C372.144 28.6772 372.268 28.7961 372.268 28.9469V51.3636C372.268 51.5144 372.144 51.6333 371.998 51.6333Z" fill="#7A8C98"/>
<path d="M416.576 174.28H361.389C358.757 174.28 356.624 172.145 356.624 169.512V149.779H421.346V169.512C421.346 172.141 419.212 174.28 416.576 174.28Z" fill="#B6C4CF"/>
<path d="M421.108 131.709H357.277V147.987H421.108V131.709Z" fill="#7A8C98"/>
<path d="M421.108 113.882H357.277V130.159H421.108V113.882Z" fill="#E8EDF2"/>
<path d="M371.551 174.28H356.528C356.382 174.28 356.258 174.161 356.258 174.01V150.044C356.258 149.897 356.377 149.774 356.528 149.774H371.551C371.698 149.774 371.821 149.893 371.821 150.044V174.01C371.821 174.156 371.702 174.28 371.551 174.28Z" fill="#9FACBA"/>
<path d="M371.222 147.983H356.413C356.267 147.983 356.144 147.864 356.144 147.713V131.975C356.144 131.828 356.263 131.705 356.413 131.705H371.222C371.368 131.705 371.492 131.824 371.492 131.975V147.713C371.492 147.864 371.368 147.983 371.222 147.983Z" fill="#596C76"/>
<path d="M371.222 130.155H356.413C356.267 130.155 356.144 130.036 356.144 129.885V114.147C356.144 114.001 356.263 113.877 356.413 113.877H371.222C371.368 113.877 371.492 113.996 371.492 114.147V129.885C371.492 130.036 371.368 130.155 371.222 130.155Z" fill="#D9E7EC"/>
<path d="M404.303 80.728H373.722V95.6801H404.303V80.728Z" fill="#2776EA"/>
<path d="M383.861 80.728H373.722V95.6801H383.861V80.728Z" fill="#0E52B5"/>
<path d="M421.108 104.58H357.277V113.224H421.108V104.58Z" fill="#8D9CA8"/>
<path d="M371.222 113.224H356.413C356.267 113.224 356.144 113.105 356.144 112.954V104.845C356.144 104.699 356.263 104.576 356.413 104.576H371.222C371.368 104.576 371.492 104.695 371.492 104.845V112.954C371.492 113.105 371.368 113.224 371.222 113.224Z" fill="#7A8C98"/>
<path d="M332.544 174.28H277.357C274.725 174.28 272.592 172.145 272.592 169.512V149.779H337.314V169.512C337.314 172.141 335.176 174.28 332.544 174.28Z" fill="#E8EDF2"/>
<path d="M335.944 131.709H272.112V147.987H335.944V131.709Z" fill="#2776EA"/>
<path d="M335.944 113.882H272.112V130.159H335.944V113.882Z" fill="#7A8C98"/>
<path d="M335.944 71.2202H272.112V87.4979H335.944V71.2202Z" fill="#7A8C98"/>
<path d="M335.944 53.6309H272.112V69.9085H335.944V53.6309Z" fill="#2776EA"/>
<path d="M337.314 51.6333H272.112V31.4519C272.112 29.9206 273.355 28.6772 274.886 28.6772H333.737C335.711 28.6772 337.314 30.2771 337.314 32.2564V51.6333Z" fill="#E8EDF2"/>
<path d="M335.944 89.3169H272.112V112.035H335.944V89.3169Z" fill="#B6C4CF"/>
<path d="M287.519 174.28H272.495C272.349 174.28 272.226 174.161 272.226 174.01V150.044C272.226 149.897 272.345 149.774 272.495 149.774H287.519C287.665 149.774 287.789 149.893 287.789 150.044V174.01C287.784 174.156 287.665 174.28 287.519 174.28Z" fill="#D9E7EC"/>
<path d="M287.19 147.983H272.382C272.235 147.983 272.112 147.864 272.112 147.713V131.975C272.112 131.828 272.231 131.705 272.382 131.705H287.19C287.337 131.705 287.46 131.824 287.46 131.975V147.713C287.455 147.864 287.337 147.983 287.19 147.983Z" fill="#0E52B5"/>
<path d="M287.19 130.155H272.382C272.235 130.155 272.112 130.036 272.112 129.885V114.147C272.112 114.001 272.231 113.877 272.382 113.877H287.19C287.337 113.877 287.46 113.996 287.46 114.147V129.885C287.455 130.036 287.337 130.155 287.19 130.155Z" fill="#596C76"/>
<path d="M287.19 87.4979H272.382C272.235 87.4979 272.112 87.379 272.112 87.2282V71.4899C272.112 71.3436 272.231 71.2202 272.382 71.2202H287.19C287.337 71.2202 287.46 71.3391 287.46 71.4899V87.2282C287.455 87.379 287.337 87.4979 287.19 87.4979Z" fill="#596C76"/>
<path d="M287.19 69.9085H272.382C272.235 69.9085 272.112 69.7897 272.112 69.6388V53.9006C272.112 53.7543 272.231 53.6309 272.382 53.6309H287.19C287.337 53.6309 287.46 53.7497 287.46 53.9006V69.6388C287.455 69.7897 287.337 69.9085 287.19 69.9085Z" fill="#0E52B5"/>
<path d="M287.519 51.6333H272.382C272.235 51.6333 272.112 51.5144 272.112 51.3636V28.9469C272.112 28.8007 272.231 28.6772 272.382 28.6772H287.519C287.666 28.6772 287.789 28.7961 287.789 28.9469V51.3636C287.784 51.5144 287.666 51.6333 287.519 51.6333Z" fill="#D9E7EC"/>
<path d="M287.19 112.031H272.382C272.235 112.031 272.112 111.912 272.112 111.761V89.5822C272.112 89.4359 272.231 89.3125 272.382 89.3125H287.19C287.337 89.3125 287.46 89.4313 287.46 89.5822V111.761C287.455 111.912 287.337 112.031 287.19 112.031Z" fill="#9FACBA"/>
<path d="M394.488 158.848C395.371 158.848 396.087 158.132 396.087 157.248C396.087 156.365 395.371 155.649 394.488 155.649C393.605 155.649 392.889 156.365 392.889 157.248C392.889 158.132 393.605 158.848 394.488 158.848Z" fill="black"/>
<path d="M400.657 158.847C401.54 158.847 402.255 158.131 402.255 157.248C402.255 156.365 401.54 155.648 400.657 155.648C399.774 155.648 399.058 156.365 399.058 157.248C399.058 158.131 399.774 158.847 400.657 158.847Z" fill="black"/>
<path d="M406.825 158.847C407.708 158.847 408.423 158.131 408.423 157.248C408.423 156.365 407.708 155.648 406.825 155.648C405.942 155.648 405.226 156.365 405.226 157.248C405.226 158.131 405.942 158.847 406.825 158.847Z" fill="black"/>
<path d="M412.993 158.847C413.876 158.847 414.592 158.131 414.592 157.248C414.592 156.365 413.876 155.648 412.993 155.648C412.11 155.648 411.394 156.365 411.394 157.248C411.394 158.131 412.11 158.847 412.993 158.847Z" fill="black"/>
<path d="M394.488 166.6C395.371 166.6 396.087 165.884 396.087 165.001C396.087 164.117 395.371 163.401 394.488 163.401C393.605 163.401 392.889 164.117 392.889 165.001C392.889 165.884 393.605 166.6 394.488 166.6Z" fill="black"/>
<path d="M400.657 166.6C401.54 166.6 402.255 165.884 402.255 165.001C402.255 164.117 401.54 163.401 400.657 163.401C399.774 163.401 399.058 164.117 399.058 165.001C399.058 165.884 399.774 166.6 400.657 166.6Z" fill="black"/>
<path d="M406.825 166.6C407.708 166.6 408.423 165.884 408.423 165.001C408.423 164.117 407.708 163.401 406.825 163.401C405.942 163.401 405.226 164.117 405.226 165.001C405.226 165.884 405.942 166.6 406.825 166.6Z" fill="black"/>
<path d="M412.993 166.6C413.876 166.6 414.592 165.884 414.592 165.001C414.592 164.117 413.876 163.401 412.993 163.401C412.11 163.401 411.394 164.117 411.394 165.001C411.394 165.884 412.11 166.6 412.993 166.6Z" fill="black"/>
<path d="M394.488 38.0837C395.371 38.0837 396.087 37.3676 396.087 36.4842C396.087 35.6009 395.371 34.8848 394.488 34.8848C393.605 34.8848 392.889 35.6009 392.889 36.4842C392.889 37.3676 393.605 38.0837 394.488 38.0837Z" fill="black"/>
<path d="M400.656 38.0837C401.539 38.0837 402.255 37.3676 402.255 36.4842C402.255 35.6009 401.539 34.8848 400.656 34.8848C399.773 34.8848 399.057 35.6009 399.057 36.4842C399.057 37.3676 399.773 38.0837 400.656 38.0837Z" fill="black"/>
<path d="M406.824 38.0837C407.707 38.0837 408.423 37.3676 408.423 36.4842C408.423 35.6009 407.707 34.8848 406.824 34.8848C405.941 34.8848 405.225 35.6009 405.225 36.4842C405.225 37.3676 405.941 38.0837 406.824 38.0837Z" fill="black"/>
<path d="M412.993 38.0837C413.876 38.0837 414.592 37.3676 414.592 36.4842C414.592 35.6009 413.876 34.8848 412.993 34.8848C412.11 34.8848 411.394 35.6009 411.394 36.4842C411.394 37.3676 412.11 38.0837 412.993 38.0837Z" fill="black"/>
<path d="M394.488 45.8366C395.371 45.8366 396.087 45.1205 396.087 44.2372C396.087 43.3538 395.371 42.6377 394.488 42.6377C393.605 42.6377 392.889 43.3538 392.889 44.2372C392.889 45.1205 393.605 45.8366 394.488 45.8366Z" fill="black"/>
<path d="M400.656 45.8366C401.539 45.8366 402.255 45.1205 402.255 44.2372C402.255 43.3538 401.539 42.6377 400.656 42.6377C399.773 42.6377 399.057 43.3538 399.057 44.2372C399.057 45.1205 399.773 45.8366 400.656 45.8366Z" fill="black"/>
<path d="M406.824 45.8366C407.707 45.8366 408.423 45.1205 408.423 44.2372C408.423 43.3538 407.707 42.6377 406.824 42.6377C405.941 42.6377 405.225 43.3538 405.225 44.2372C405.225 45.1205 405.941 45.8366 406.824 45.8366Z" fill="black"/>
<path d="M412.993 45.8366C413.876 45.8366 414.592 45.1205 414.592 44.2372C414.592 43.3538 413.876 42.6377 412.993 42.6377C412.11 42.6377 411.394 43.3538 411.394 44.2372C411.394 45.1205 412.11 45.8366 412.993 45.8366Z" fill="black"/>
<path d="M310.186 38.0837C311.069 38.0837 311.785 37.3676 311.785 36.4842C311.785 35.6009 311.069 34.8848 310.186 34.8848C309.303 34.8848 308.587 35.6009 308.587 36.4842C308.587 37.3676 309.303 38.0837 310.186 38.0837Z" fill="black"/>
<path d="M316.354 38.0837C317.237 38.0837 317.953 37.3676 317.953 36.4842C317.953 35.6009 317.237 34.8848 316.354 34.8848C315.471 34.8848 314.756 35.6009 314.756 36.4842C314.756 37.3676 315.471 38.0837 316.354 38.0837Z" fill="black"/>
<path d="M322.522 38.0837C323.405 38.0837 324.121 37.3676 324.121 36.4842C324.121 35.6009 323.405 34.8848 322.522 34.8848C321.639 34.8848 320.923 35.6009 320.923 36.4842C320.923 37.3676 321.639 38.0837 322.522 38.0837Z" fill="black"/>
<path d="M328.691 38.0837C329.574 38.0837 330.29 37.3676 330.29 36.4842C330.29 35.6009 329.574 34.8848 328.691 34.8848C327.808 34.8848 327.092 35.6009 327.092 36.4842C327.092 37.3676 327.808 38.0837 328.691 38.0837Z" fill="black"/>
<path d="M310.186 45.8366C311.069 45.8366 311.785 45.1205 311.785 44.2372C311.785 43.3538 311.069 42.6377 310.186 42.6377C309.303 42.6377 308.587 43.3538 308.587 44.2372C308.587 45.1205 309.303 45.8366 310.186 45.8366Z" fill="black"/>
<path d="M316.354 45.8366C317.237 45.8366 317.953 45.1205 317.953 44.2372C317.953 43.3538 317.237 42.6377 316.354 42.6377C315.471 42.6377 314.756 43.3538 314.756 44.2372C314.756 45.1205 315.471 45.8366 316.354 45.8366Z" fill="black"/>
<path d="M322.522 45.8366C323.405 45.8366 324.121 45.1205 324.121 44.2372C324.121 43.3538 323.405 42.6377 322.522 42.6377C321.639 42.6377 320.923 43.3538 320.923 44.2372C320.923 45.1205 321.639 45.8366 322.522 45.8366Z" fill="black"/>
<path d="M328.691 45.8366C329.574 45.8366 330.29 45.1205 330.29 44.2372C330.29 43.3538 329.574 42.6377 328.691 42.6377C327.808 42.6377 327.092 43.3538 327.092 44.2372C327.092 45.1205 327.808 45.8366 328.691 45.8366Z" fill="black"/>
<path d="M310.186 158.779C311.069 158.779 311.785 158.062 311.785 157.179C311.785 156.296 311.069 155.58 310.186 155.58C309.303 155.58 308.587 156.296 308.587 157.179C308.587 158.062 309.303 158.779 310.186 158.779Z" fill="black"/>
<path d="M316.354 158.779C317.237 158.779 317.953 158.062 317.953 157.179C317.953 156.296 317.237 155.58 316.354 155.58C315.471 155.58 314.756 156.296 314.756 157.179C314.756 158.062 315.471 158.779 316.354 158.779Z" fill="black"/>
<path d="M322.522 158.779C323.405 158.779 324.121 158.062 324.121 157.179C324.121 156.296 323.405 155.58 322.522 155.58C321.639 155.58 320.923 156.296 320.923 157.179C320.923 158.062 321.639 158.779 322.522 158.779Z" fill="black"/>
<path d="M328.691 158.779C329.574 158.779 330.29 158.062 330.29 157.179C330.29 156.296 329.574 155.58 328.691 155.58C327.808 155.58 327.092 156.296 327.092 157.179C327.092 158.062 327.808 158.779 328.691 158.779Z" fill="black"/>
<path d="M310.186 166.527C311.069 166.527 311.785 165.81 311.785 164.927C311.785 164.044 311.069 163.328 310.186 163.328C309.303 163.328 308.587 164.044 308.587 164.927C308.587 165.81 309.303 166.527 310.186 166.527Z" fill="black"/>
<path d="M316.354 166.527C317.237 166.527 317.953 165.81 317.953 164.927C317.953 164.044 317.237 163.328 316.354 163.328C315.471 163.328 314.756 164.044 314.756 164.927C314.756 165.81 315.471 166.527 316.354 166.527Z" fill="black"/>
<path d="M322.522 166.527C323.405 166.527 324.121 165.81 324.121 164.927C324.121 164.044 323.405 163.328 322.522 163.328C321.639 163.328 320.923 164.044 320.923 164.927C320.923 165.81 321.639 166.527 322.522 166.527Z" fill="black"/>
<path d="M328.691 166.527C329.574 166.527 330.29 165.81 330.29 164.927C330.29 164.044 329.574 163.328 328.691 163.328C327.808 163.328 327.092 164.044 327.092 164.927C327.092 165.81 327.808 166.527 328.691 166.527Z" fill="black"/>
<path d="M310.186 98.3991C311.069 98.3991 311.785 97.683 311.785 96.7997C311.785 95.9163 311.069 95.2002 310.186 95.2002C309.303 95.2002 308.587 95.9163 308.587 96.7997C308.587 97.683 309.303 98.3991 310.186 98.3991Z" fill="black"/>
<path d="M316.354 98.3991C317.237 98.3991 317.953 97.683 317.953 96.7997C317.953 95.9163 317.237 95.2002 316.354 95.2002C315.471 95.2002 314.756 95.9163 314.756 96.7997C314.756 97.683 315.471 98.3991 316.354 98.3991Z" fill="black"/>
<path d="M322.522 98.3991C323.405 98.3991 324.121 97.683 324.121 96.7997C324.121 95.9163 323.405 95.2002 322.522 95.2002C321.639 95.2002 320.923 95.9163 320.923 96.7997C320.923 97.683 321.639 98.3991 322.522 98.3991Z" fill="black"/>
<path d="M328.691 98.3991C329.574 98.3991 330.29 97.683 330.29 96.7997C330.29 95.9163 329.574 95.2002 328.691 95.2002C327.808 95.2002 327.092 95.9163 327.092 96.7997C327.092 97.683 327.808 98.3991 328.691 98.3991Z" fill="black"/>
<path d="M310.186 106.147C311.069 106.147 311.785 105.431 311.785 104.547C311.785 103.664 311.069 102.948 310.186 102.948C309.303 102.948 308.587 103.664 308.587 104.547C308.587 105.431 309.303 106.147 310.186 106.147Z" fill="black"/>
<path d="M316.354 106.147C317.237 106.147 317.953 105.431 317.953 104.547C317.953 103.664 317.237 102.948 316.354 102.948C315.471 102.948 314.756 103.664 314.756 104.547C314.756 105.431 315.471 106.147 316.354 106.147Z" fill="black"/>
<path d="M322.522 106.147C323.405 106.147 324.121 105.431 324.121 104.547C324.121 103.664 323.405 102.948 322.522 102.948C321.639 102.948 320.923 103.664 320.923 104.547C320.923 105.431 321.639 106.147 322.522 106.147Z" fill="black"/>
<path d="M328.691 106.147C329.574 106.147 330.29 105.431 330.29 104.547C330.29 103.664 329.574 102.948 328.691 102.948C327.808 102.948 327.092 103.664 327.092 104.547C327.092 105.431 327.808 106.147 328.691 106.147Z" fill="black"/>
<path d="M393.132 63.3708C394.015 63.3708 394.73 62.6547 394.73 61.7713C394.73 60.888 394.015 60.1719 393.132 60.1719C392.249 60.1719 391.533 60.888 391.533 61.7713C391.533 62.6547 392.249 63.3708 393.132 63.3708Z" fill="black"/>
<path d="M399.984 63.3708C400.867 63.3708 401.583 62.6547 401.583 61.7713C401.583 60.888 400.867 60.1719 399.984 60.1719C399.101 60.1719 398.385 60.888 398.385 61.7713C398.385 62.6547 399.101 63.3708 399.984 63.3708Z" fill="black"/>
<path d="M392.062 123.617C392.945 123.617 393.66 122.901 393.66 122.018C393.66 121.135 392.945 120.418 392.062 120.418C391.179 120.418 390.463 121.135 390.463 122.018C390.463 122.901 391.179 123.617 392.062 123.617Z" fill="black"/>
<path d="M398.916 123.617C399.799 123.617 400.515 122.901 400.515 122.018C400.515 121.135 399.799 120.418 398.916 120.418C398.033 120.418 397.317 121.135 397.317 122.018C397.317 122.901 398.033 123.617 398.916 123.617Z" fill="black"/>
<path d="M392.062 141.596C392.945 141.596 393.66 140.88 393.66 139.996C393.66 139.113 392.945 138.397 392.062 138.397C391.179 138.397 390.463 139.113 390.463 139.996C390.463 140.88 391.179 141.596 392.062 141.596Z" fill="black"/>
<path d="M398.916 141.596C399.799 141.596 400.515 140.88 400.515 139.996C400.515 139.113 399.799 138.397 398.916 138.397C398.033 138.397 397.317 139.113 397.317 139.996C397.317 140.88 398.033 141.596 398.916 141.596Z" fill="black"/>
<path d="M307.71 123.617C308.593 123.617 309.308 122.901 309.308 122.018C309.308 121.135 308.593 120.418 307.71 120.418C306.827 120.418 306.111 121.135 306.111 122.018C306.111 122.901 306.827 123.617 307.71 123.617Z" fill="black"/>
<path d="M314.564 123.617C315.447 123.617 316.163 122.901 316.163 122.018C316.163 121.135 315.447 120.418 314.564 120.418C313.681 120.418 312.965 121.135 312.965 122.018C312.965 122.901 313.681 123.617 314.564 123.617Z" fill="black"/>
<path d="M307.71 141.596C308.593 141.596 309.308 140.88 309.308 139.996C309.308 139.113 308.593 138.397 307.71 138.397C306.827 138.397 306.111 139.113 306.111 139.996C306.111 140.88 306.827 141.596 307.71 141.596Z" fill="black"/>
<path d="M314.564 141.596C315.447 141.596 316.163 140.88 316.163 139.996C316.163 139.113 315.447 138.397 314.564 138.397C313.681 138.397 312.965 139.113 312.965 139.996C312.965 140.88 313.681 141.596 314.564 141.596Z" fill="black"/>
<path d="M294.034 63.3615C294.917 63.3615 295.633 62.6454 295.633 61.7621C295.633 60.8787 294.917 60.1626 294.034 60.1626C293.151 60.1626 292.435 60.8787 292.435 61.7621C292.435 62.6454 293.151 63.3615 294.034 63.3615Z" fill="black"/>
<path d="M300.888 63.3615C301.771 63.3615 302.487 62.6454 302.487 61.7621C302.487 60.8787 301.771 60.1626 300.888 60.1626C300.005 60.1626 299.29 60.8787 299.29 61.7621C299.29 62.6454 300.005 63.3615 300.888 63.3615Z" fill="black"/>
<path d="M294.034 80.8825C294.917 80.8825 295.633 80.1664 295.633 79.2831C295.633 78.3997 294.917 77.6836 294.034 77.6836C293.151 77.6836 292.435 78.3997 292.435 79.2831C292.435 80.1664 293.151 80.8825 294.034 80.8825Z" fill="black"/>
<path d="M300.888 80.8825C301.771 80.8825 302.487 80.1664 302.487 79.2831C302.487 78.3997 301.771 77.6836 300.888 77.6836C300.005 77.6836 299.29 78.3997 299.29 79.2831C299.29 80.1664 300.005 80.8825 300.888 80.8825Z" fill="black"/>
<path d="M262.813 158.062H271.216" stroke="black" stroke-width="3" stroke-miterlimit="10" stroke-linecap="round"/>
<path d="M337.528 158.062H345.935" stroke="black" stroke-width="3" stroke-miterlimit="10" stroke-linecap="round"/>
<path d="M346.868 158.062H355.271" stroke="black" stroke-width="3" stroke-miterlimit="10" stroke-linecap="round"/>
<path d="M346.32 19V189.045" stroke="black" stroke-width="3" stroke-miterlimit="10" stroke-linecap="round"/>
<path d="M428.323 189.045H264.321C263.042 189.045 262 188.007 262 186.722V21.3221C262 20.0422 263.037 19 264.321 19H428.323C429.603 19 430.645 20.0376 430.645 21.3221V186.727C430.645 188.007 429.603 189.045 428.323 189.045Z" stroke="black" stroke-width="3" stroke-miterlimit="10" stroke-linecap="round"/>
<path d="M271.216 52.8853H337.314" stroke="black" stroke-width="3" stroke-miterlimit="10" stroke-linecap="round"/>
<path d="M271.216 70.5347H337.314" stroke="black" stroke-width="3" stroke-miterlimit="10" stroke-linecap="round"/>
<path d="M271.216 88.1836H337.314" stroke="black" stroke-width="3" stroke-miterlimit="10" stroke-linecap="round"/>
<path d="M271.216 113.224H337.314" stroke="black" stroke-width="3" stroke-miterlimit="10" stroke-linecap="round"/>
<path d="M271.216 130.813H337.314" stroke="black" stroke-width="3" stroke-miterlimit="10" stroke-linecap="round"/>
<path d="M271.216 148.403H337.314" stroke="black" stroke-width="3" stroke-miterlimit="10" stroke-linecap="round"/>
<path d="M279.592 157.166H301.167" stroke="black" stroke-width="3" stroke-miterlimit="10" stroke-linecap="round"/>
<path d="M279.592 165.394H301.167" stroke="black" stroke-width="3" stroke-miterlimit="10" stroke-linecap="round"/>
<path d="M279.592 96.7451H301.167" stroke="black" stroke-width="3" stroke-miterlimit="10" stroke-linecap="round"/>
<path d="M279.592 104.973H301.167" stroke="black" stroke-width="3" stroke-miterlimit="10" stroke-linecap="round"/>
<path d="M337.315 45.6729V171.954C337.315 173.238 336.273 174.281 334.989 174.281H326.943" stroke="black" stroke-width="3" stroke-miterlimit="10" stroke-linecap="round"/>
<path d="M327.614 174.28H273.542C272.258 174.28 271.216 173.238 271.216 171.953V30.2906C271.216 29.0061 272.258 27.9639 273.542 27.9639H334.989C336.273 27.9639 337.314 29.0061 337.314 30.2906V46.9248" stroke="black" stroke-width="3" stroke-miterlimit="10" stroke-linecap="round"/>
<path d="M279.592 36.4067H301.167" stroke="black" stroke-width="3" stroke-miterlimit="10" stroke-linecap="round"/>
<path d="M279.592 44.6348H301.167" stroke="black" stroke-width="3" stroke-miterlimit="10" stroke-linecap="round"/>
<path d="M307.87 59.5317V64.0068" stroke="black" stroke-width="3" stroke-miterlimit="10" stroke-linecap="round"/>
<path d="M287.222 61.772H279.592" stroke="black" stroke-width="3" stroke-miterlimit="10" stroke-linecap="round"/>
<path d="M314.897 59.5317V64.0068" stroke="black" stroke-width="3" stroke-miterlimit="10" stroke-linecap="round"/>
<path d="M321.921 59.5317V64.0068" stroke="black" stroke-width="3" stroke-miterlimit="10" stroke-linecap="round"/>
<path d="M328.948 59.5317V64.0068" stroke="black" stroke-width="3" stroke-miterlimit="10" stroke-linecap="round"/>
<path d="M307.87 77.1211V81.5916" stroke="black" stroke-width="3" stroke-miterlimit="10" stroke-linecap="round"/>
<path d="M287.222 79.3569H279.592" stroke="black" stroke-width="3" stroke-miterlimit="10" stroke-linecap="round"/>
<path d="M314.897 77.1211V81.5916" stroke="black" stroke-width="3" stroke-miterlimit="10" stroke-linecap="round"/>
<path d="M321.921 77.1211V81.5916" stroke="black" stroke-width="3" stroke-miterlimit="10" stroke-linecap="round"/>
<path d="M328.948 77.1211V81.5916" stroke="black" stroke-width="3" stroke-miterlimit="10" stroke-linecap="round"/>
<path d="M300.669 119.783V124.254" stroke="black" stroke-width="3" stroke-miterlimit="10" stroke-linecap="round"/>
<path d="M321.317 122.019H328.948" stroke="black" stroke-width="3" stroke-miterlimit="10" stroke-linecap="round"/>
<path d="M293.642 119.783V124.254" stroke="black" stroke-width="3" stroke-miterlimit="10" stroke-linecap="round"/>
<path d="M286.619 119.783V124.254" stroke="black" stroke-width="3" stroke-miterlimit="10" stroke-linecap="round"/>
<path d="M279.592 119.783V124.254" stroke="black" stroke-width="3" stroke-miterlimit="10" stroke-linecap="round"/>
<path d="M300.669 137.757V142.232" stroke="black" stroke-width="3" stroke-miterlimit="10" stroke-linecap="round"/>
<path d="M321.317 139.997H328.948" stroke="black" stroke-width="3" stroke-miterlimit="10" stroke-linecap="round"/>
<path d="M293.642 137.757V142.232" stroke="black" stroke-width="3" stroke-miterlimit="10" stroke-linecap="round"/>
<path d="M286.619 137.757V142.232" stroke="black" stroke-width="3" stroke-miterlimit="10" stroke-linecap="round"/>
<path d="M279.592 137.757V142.232" stroke="black" stroke-width="3" stroke-miterlimit="10" stroke-linecap="round"/>
<path d="M364.52 157.166H386.095" stroke="black" stroke-width="3" stroke-miterlimit="10" stroke-linecap="round"/>
<path d="M364.52 165.394H386.095" stroke="black" stroke-width="3" stroke-miterlimit="10" stroke-linecap="round"/>
<path d="M422.242 92.9512V171.981C422.242 173.247 421.214 174.275 419.948 174.275H411.87" stroke="black" stroke-width="3" stroke-miterlimit="10" stroke-linecap="round"/>
<path d="M414.15 174.28H358.442C357.177 174.28 356.149 173.251 356.149 171.985V30.2586C356.149 28.9924 357.177 27.9639 358.442 27.9639H419.948C421.214 27.9639 422.242 28.9924 422.242 30.2586V96.8274" stroke="black" stroke-width="3" stroke-miterlimit="10" stroke-linecap="round"/>
<path d="M356.144 52.8853H422.242" stroke="black" stroke-width="3" stroke-miterlimit="10" stroke-linecap="round"/>
<path d="M356.144 104.58H422.242" stroke="black" stroke-width="3" stroke-miterlimit="10" stroke-linecap="round"/>
<path d="M356.144 113.224H422.242" stroke="black" stroke-width="3" stroke-miterlimit="10" stroke-linecap="round"/>
<path d="M356.144 130.813H422.242" stroke="black" stroke-width="3" stroke-miterlimit="10" stroke-linecap="round"/>
<path d="M356.144 148.403H422.242" stroke="black" stroke-width="3" stroke-miterlimit="10" stroke-linecap="round"/>
<path d="M364.52 36.4067H386.095" stroke="black" stroke-width="3" stroke-miterlimit="10" stroke-linecap="round"/>
<path d="M364.52 44.6348H386.095" stroke="black" stroke-width="3" stroke-miterlimit="10" stroke-linecap="round"/>
<path d="M385.592 59.5317V64.0068" stroke="black" stroke-width="3" stroke-miterlimit="10" stroke-linecap="round"/>
<path d="M406.244 61.772H413.875" stroke="black" stroke-width="3" stroke-miterlimit="10" stroke-linecap="round"/>
<path d="M378.57 59.5317V64.0068" stroke="black" stroke-width="3" stroke-miterlimit="10" stroke-linecap="round"/>
<path d="M371.542 59.5317V64.0068" stroke="black" stroke-width="3" stroke-miterlimit="10" stroke-linecap="round"/>
<path d="M364.52 59.5317V64.0068" stroke="black" stroke-width="3" stroke-miterlimit="10" stroke-linecap="round"/>
<path d="M385.592 119.783V124.254" stroke="black" stroke-width="3" stroke-miterlimit="10" stroke-linecap="round"/>
<path d="M406.244 122.019H413.875" stroke="black" stroke-width="3" stroke-miterlimit="10" stroke-linecap="round"/>
<path d="M378.57 119.783V124.254" stroke="black" stroke-width="3" stroke-miterlimit="10" stroke-linecap="round"/>
<path d="M371.542 119.783V124.254" stroke="black" stroke-width="3" stroke-miterlimit="10" stroke-linecap="round"/>
<path d="M364.52 119.783V124.254" stroke="black" stroke-width="3" stroke-miterlimit="10" stroke-linecap="round"/>
<path d="M385.592 137.757V142.232" stroke="black" stroke-width="3" stroke-miterlimit="10" stroke-linecap="round"/>
<path d="M406.244 139.997H413.875" stroke="black" stroke-width="3" stroke-miterlimit="10" stroke-linecap="round"/>
<path d="M378.57 137.757V142.232" stroke="black" stroke-width="3" stroke-miterlimit="10" stroke-linecap="round"/>
<path d="M371.542 137.757V142.232" stroke="black" stroke-width="3" stroke-miterlimit="10" stroke-linecap="round"/>
<path d="M364.52 137.757V142.232" stroke="black" stroke-width="3" stroke-miterlimit="10" stroke-linecap="round"/>
<path d="M412.966 104.58H365.415V75.4075C365.415 73.6384 366.85 72.2031 368.618 72.2031H409.768C411.536 72.2031 412.971 73.6384 412.971 75.4075V104.58H412.966Z" stroke="black" stroke-width="3" stroke-miterlimit="10" stroke-linecap="round"/>
<path d="M403.239 95.6802H375.147C374.361 95.6802 373.722 95.0403 373.722 94.2541V82.5292C373.722 81.743 374.361 81.103 375.147 81.103H403.239C404.025 81.103 404.664 81.743 404.664 82.5292V94.2541C404.664 95.0403 404.029 95.6802 403.239 95.6802Z" stroke="black" stroke-width="3" stroke-miterlimit="10" stroke-linecap="round"/>
<rect x="1" y="-1" width="690" height="207" stroke="#CEDDF2" stroke-width="2"/>
<defs>
<linearGradient id="paint0_linear_245_17326" x1="346" y1="0" x2="346" y2="205" gradientUnits="userSpaceOnUse">
<stop stop-color="#2776EA"/>
<stop offset="1" stop-color="#2776EA" stop-opacity="0"/>
</linearGradient>
</defs>
</svg>
