<svg width="692" height="207" viewBox="0 0 692 207" fill="none" xmlns="http://www.w3.org/2000/svg">
<rect x="1" y="-1" width="690" height="207" fill="url(#paint0_linear_245_17203)" fill-opacity="0.3"/>
<path d="M242.553 87.042L345.658 87.042V70.5223L242.553 70.5223V87.042Z" fill="#B6C4CF"/>
<path d="M246.523 70.5156H233.007V87.0353H246.523V70.5156Z" fill="#9FACBA"/>
<path d="M351.749 53.1611H387.734" stroke="black" stroke-width="3" stroke-miterlimit="10" stroke-linecap="round"/>
<path d="M370.485 59.6C374.15 59.6 377.121 56.6291 377.121 52.9643C377.121 49.2995 374.15 46.3286 370.485 46.3286C366.821 46.3286 363.85 49.2995 363.85 52.9643C363.85 56.6291 366.821 59.6 370.485 59.6Z" fill="#2776EA" stroke="black" stroke-width="3" stroke-miterlimit="10" stroke-linecap="round"/>
<path d="M237.561 35.4087H349.24C350.578 35.4087 351.663 36.493 351.663 37.8317V68.0929C351.663 69.4316 350.578 70.5159 349.24 70.5159H237.561V35.4087Z" fill="#E8EDF2"/>
<path d="M246.528 70.5159H229.423C228.084 70.5159 227 69.4316 227 68.0929V37.8317C227 36.493 228.084 35.4087 229.423 35.4087H246.528V70.5159Z" fill="#D9E7EC"/>
<path d="M277.974 61.9755H238.626C237.287 61.9755 236.203 60.8912 236.203 59.5525V46.3771C236.203 45.0385 237.287 43.9541 238.626 43.9541H277.974V61.9755Z" fill="#2776EA"/>
<path d="M246.528 61.9755H238.626C237.287 61.9755 236.203 60.8912 236.203 59.5525V46.3771C236.203 45.0385 237.287 43.9541 238.626 43.9541H246.528V61.9755Z" fill="#0E52B5"/>
<path d="M349.24 70.5159H229.423C228.084 70.5159 227 69.4316 227 68.0929V37.8317C227 36.493 228.084 35.4087 229.423 35.4087H349.24C350.578 35.4087 351.663 36.493 351.663 37.8317V68.0929C351.667 69.4316 350.578 70.5159 349.24 70.5159Z" stroke="black" stroke-width="3" stroke-miterlimit="10" stroke-linecap="round"/>
<path d="M299.235 60.1905H294.384C293.045 60.1905 291.961 59.1061 291.961 57.7675V48.1618C291.961 46.8231 293.045 45.7388 294.384 45.7388H299.235C300.573 45.7388 301.658 46.8231 301.658 48.1618V57.7675C301.662 59.1061 300.578 60.1905 299.235 60.1905Z" fill="#7A8C98" stroke="black" stroke-width="3" stroke-miterlimit="10" stroke-linecap="round"/>
<path d="M316.949 60.1905H312.098C310.759 60.1905 309.675 59.1061 309.675 57.7675V48.1618C309.675 46.8231 310.759 45.7388 312.098 45.7388H316.949C318.288 45.7388 319.372 46.8231 319.372 48.1618V57.7675C319.372 59.1061 318.288 60.1905 316.949 60.1905Z" fill="#9FACBA" stroke="black" stroke-width="3" stroke-miterlimit="10" stroke-linecap="round"/>
<path d="M334.658 60.1905H329.808C328.469 60.1905 327.385 59.1061 327.385 57.7675V48.1618C327.385 46.8231 328.469 45.7388 329.808 45.7388H334.658C335.997 45.7388 337.081 46.8231 337.081 48.1618V57.7675C337.081 59.1061 335.997 60.1905 334.658 60.1905Z" fill="#B6C4CF" stroke="black" stroke-width="3" stroke-miterlimit="10" stroke-linecap="round"/>
<path d="M345.656 70.5156H233.007V87.0353H345.656V70.5156Z" stroke="black" stroke-width="3" stroke-miterlimit="10" stroke-linecap="round"/>
<path d="M242.553 138.671H345.658V122.152L242.553 122.152V138.671Z" fill="#E8EDF2"/>
<path d="M246.523 122.147H233.007V138.667H246.523V122.147Z" fill="#D9E7EC"/>
<path d="M351.749 104.5H387.734" stroke="black" stroke-width="3" stroke-miterlimit="10" stroke-linecap="round"/>
<path d="M370.485 111.231C374.15 111.231 377.121 108.26 377.121 104.596C377.121 100.931 374.15 97.96 370.485 97.96C366.821 97.96 363.85 100.931 363.85 104.596C363.85 108.26 366.821 111.231 370.485 111.231Z" fill="#2776EA" stroke="black" stroke-width="3" stroke-miterlimit="10" stroke-linecap="round"/>
<path d="M237.561 87.04H349.24C350.578 87.04 351.663 88.1244 351.663 89.4631V119.724C351.663 121.063 350.578 122.147 349.24 122.147H237.561V87.04Z" fill="#9CACB7"/>
<path d="M246.528 122.147H229.423C228.084 122.147 227 121.063 227 119.724V89.4631C227 88.1244 228.084 87.04 229.423 87.04H246.528V122.147Z" fill="#778E9A"/>
<path d="M277.974 113.607H238.626C237.287 113.607 236.203 112.523 236.203 111.184V98.0085C236.203 96.6698 237.287 95.5854 238.626 95.5854H277.974V113.607Z" fill="#2776EA"/>
<path d="M246.528 113.607H238.626C237.287 113.607 236.203 112.523 236.203 111.184V98.0085C236.203 96.6698 237.287 95.5854 238.626 95.5854H246.528V113.607Z" fill="#0E52B5"/>
<path d="M349.24 122.147H229.423C228.084 122.147 227 121.063 227 119.724V89.4631C227 88.1244 228.084 87.04 229.423 87.04H349.24C350.578 87.04 351.663 88.1244 351.663 89.4631V119.724C351.667 121.063 350.578 122.147 349.24 122.147Z" stroke="black" stroke-width="3" stroke-miterlimit="10" stroke-linecap="round"/>
<path d="M299.235 111.822H294.384C293.045 111.822 291.961 110.738 291.961 109.399V99.7936C291.961 98.455 293.045 97.3706 294.384 97.3706H299.235C300.573 97.3706 301.658 98.455 301.658 99.7936V109.399C301.662 110.738 300.578 111.822 299.235 111.822Z" fill="#7A8C98" stroke="black" stroke-width="3" stroke-miterlimit="10" stroke-linecap="round"/>
<path d="M316.949 111.822H312.098C310.759 111.822 309.675 110.737 309.675 109.399V99.7931C309.675 98.4545 310.759 97.3701 312.098 97.3701H316.949C318.288 97.3701 319.372 98.4545 319.372 99.7931V109.399C319.372 110.737 318.288 111.822 316.949 111.822Z" fill="#9FACBA" stroke="black" stroke-width="3" stroke-miterlimit="10" stroke-linecap="round"/>
<path d="M334.658 111.822H329.808C328.469 111.822 327.385 110.737 327.385 109.399V99.7931C327.385 98.4545 328.469 97.3701 329.808 97.3701H334.658C335.997 97.3701 337.081 98.4545 337.081 99.7931V109.399C337.081 110.737 335.997 111.822 334.658 111.822Z" fill="#B6C4CF" stroke="black" stroke-width="3" stroke-miterlimit="10" stroke-linecap="round"/>
<path d="M351.749 156.319H387.734" stroke="black" stroke-width="3" stroke-miterlimit="10" stroke-linecap="round"/>
<path d="M370.485 162.859C374.15 162.859 377.121 159.888 377.121 156.224C377.121 152.559 374.15 149.588 370.485 149.588C366.821 149.588 363.85 152.559 363.85 156.224C363.85 159.888 366.821 162.859 370.485 162.859Z" fill="#2776EA" stroke="black" stroke-width="3" stroke-miterlimit="10" stroke-linecap="round"/>
<path d="M237.561 138.671H349.24C350.578 138.671 351.663 139.756 351.663 141.094V171.356C351.663 172.694 350.578 173.779 349.24 173.779H237.561V138.671Z" fill="#B6C4CF"/>
<path d="M246.528 173.779H229.423C228.084 173.779 227 172.694 227 171.356V141.094C227 139.756 228.084 138.671 229.423 138.671H246.528V173.779Z" fill="#9FACBA"/>
<path d="M277.974 165.239H238.626C237.287 165.239 236.203 164.154 236.203 162.816V149.64C236.203 148.302 237.287 147.217 238.626 147.217H277.974V165.239Z" fill="#2776EA"/>
<path d="M246.528 165.239H238.626C237.287 165.239 236.203 164.154 236.203 162.816V149.64C236.203 148.302 237.287 147.217 238.626 147.217H246.528V165.239Z" fill="#0E52B5"/>
<path d="M349.24 173.779H229.423C228.084 173.779 227 172.694 227 171.356V141.094C227 139.756 228.084 138.671 229.423 138.671H349.24C350.578 138.671 351.663 139.756 351.663 141.094V171.356C351.667 172.694 350.578 173.779 349.24 173.779Z" stroke="black" stroke-width="3" stroke-miterlimit="10" stroke-linecap="round"/>
<path d="M277.974 161.218V162.816C277.974 164.154 276.89 165.239 275.551 165.239H238.626C237.287 165.239 236.203 164.154 236.203 162.816V149.64C236.203 148.302 237.287 147.217 238.626 147.217H275.551C276.89 147.217 277.974 148.302 277.974 149.64V161.568" stroke="black" stroke-width="3" stroke-miterlimit="10" stroke-linecap="round"/>
<path d="M277.974 57.9548V59.5525C277.974 60.8912 276.89 61.9755 275.551 61.9755H238.626C237.287 61.9755 236.203 60.8912 236.203 59.5525V46.3771C236.203 45.0385 237.287 43.9541 238.626 43.9541H275.551C276.89 43.9541 277.974 45.0385 277.974 46.3771V58.9624" stroke="black" stroke-width="3" stroke-miterlimit="10" stroke-linecap="round"/>
<path d="M236.198 109.308V98.0085C236.198 96.6698 237.282 95.5854 238.621 95.5854H275.547C276.885 95.5854 277.97 96.6698 277.97 98.0085V111.184C277.97 112.523 276.885 113.607 275.547 113.607H238.626C237.287 113.607 236.203 112.523 236.203 111.184V109.126" stroke="black" stroke-width="3" stroke-miterlimit="10" stroke-linecap="round"/>
<path d="M299.235 163.454H294.384C293.045 163.454 291.961 162.369 291.961 161.031V151.425C291.961 150.086 293.045 149.002 294.384 149.002H299.235C300.573 149.002 301.658 150.086 301.658 151.425V161.031C301.662 162.369 300.578 163.454 299.235 163.454Z" fill="#7A8C98" stroke="black" stroke-width="3" stroke-miterlimit="10" stroke-linecap="round"/>
<path d="M316.949 163.454H312.098C310.759 163.454 309.675 162.369 309.675 161.031V151.425C309.675 150.086 310.759 149.002 312.098 149.002H316.949C318.288 149.002 319.372 150.086 319.372 151.425V161.031C319.372 162.369 318.288 163.454 316.949 163.454Z" fill="#9FACBA" stroke="black" stroke-width="3" stroke-miterlimit="10" stroke-linecap="round"/>
<path d="M334.658 163.454H329.808C328.469 163.454 327.385 162.369 327.385 161.031V151.425C327.385 150.086 328.469 149.002 329.808 149.002H334.658C335.997 149.002 337.081 150.086 337.081 151.425V161.031C337.081 162.369 335.997 163.454 334.658 163.454Z" fill="#B6C4CF" stroke="black" stroke-width="3" stroke-miterlimit="10" stroke-linecap="round"/>
<path d="M345.656 122.147H233.007V138.667H345.656V122.147Z" stroke="black" stroke-width="3" stroke-miterlimit="10" stroke-linecap="round"/>
<path d="M464.839 36.8065L464.839 173.579L387.735 173.579L387.735 36.8065C387.735 35.8083 388.544 34.9998 389.542 34.9998L463.031 34.9998C464.03 34.9998 464.839 35.8083 464.839 36.8065Z" fill="#B6C4CF"/>
<path d="M454.356 173.579L454.356 51.9567C454.356 48.5249 451.702 45.7448 448.425 45.7448L387.735 45.7448L387.735 35.004L464.839 35.0039L464.839 173.579L454.356 173.579Z" fill="#9FACBA"/>
<path d="M440.678 157.992L440.678 165.866" stroke="black" stroke-width="3" stroke-miterlimit="10" stroke-linecap="round"/>
<path d="M431.082 157.992L431.082 165.866" stroke="black" stroke-width="3" stroke-miterlimit="10" stroke-linecap="round"/>
<path d="M421.491 157.992L421.491 165.866" stroke="black" stroke-width="3" stroke-miterlimit="10" stroke-linecap="round"/>
<path d="M411.895 157.992L411.895 165.866" stroke="black" stroke-width="3" stroke-miterlimit="10" stroke-linecap="round"/>
<path d="M464.839 52.8354L464.839 171.929C464.839 173.072 463.955 174 462.862 174L387.734 174L387.734 141.245" stroke="black" stroke-width="3" stroke-miterlimit="10" stroke-linecap="round"/>
<path d="M387.735 143.724L387.735 37.0704C387.735 35.9279 388.618 34.9998 389.712 34.9998L462.862 34.9998C463.951 34.9998 464.839 35.9279 464.839 37.0704L464.839 57.6653" stroke="black" stroke-width="3" stroke-miterlimit="10" stroke-linecap="round"/>
<path d="M449.056 129.069C449.056 116.501 438.862 106.313 426.286 106.313C413.711 106.313 403.517 116.501 403.517 129.069C403.517 141.637 413.711 151.826 426.286 151.826C438.862 151.826 449.056 141.637 449.056 129.069Z" fill="#2776EA"/>
<path d="M426.27 106.313C438.846 106.313 449.04 116.501 449.04 129.069C449.04 136.407 445.569 142.932 440.175 147.094C443.146 143.25 444.913 138.428 444.913 133.194C444.913 120.626 434.718 110.438 422.143 110.438C416.905 110.438 412.081 112.207 408.234 115.173C412.399 109.782 418.928 106.313 426.27 106.313Z" fill="#0E52B5"/>
<path d="M449.035 129.069C449.035 116.501 438.841 106.313 426.266 106.313C413.69 106.313 403.496 116.501 403.496 129.069C403.496 141.637 413.69 151.826 426.266 151.826C438.841 151.826 449.035 141.637 449.035 129.069Z" stroke="black" stroke-width="3" stroke-miterlimit="10" stroke-linecap="round"/>
<path d="M404.734 135.669C408.127 131.495 413.22 129.069 418.602 129.069L420.186 129.069" stroke="black" stroke-width="3" stroke-miterlimit="10" stroke-linecap="round"/>
<path d="M406.373 118.518C411.726 117.961 417.042 119.846 420.847 123.649L421.966 124.767" stroke="black" stroke-width="3" stroke-miterlimit="10" stroke-linecap="round"/>
<path d="M419.663 107.551C423.839 110.941 426.266 116.031 426.266 121.41L426.266 122.994" stroke="black" stroke-width="3" stroke-miterlimit="10" stroke-linecap="round"/>
<path d="M436.823 109.188C437.381 114.537 435.495 119.85 431.689 123.653L430.571 124.771" stroke="black" stroke-width="3" stroke-miterlimit="10" stroke-linecap="round"/>
<path d="M447.802 122.469C444.409 126.643 439.316 129.069 433.934 129.069L432.349 129.069" stroke="black" stroke-width="3" stroke-miterlimit="10" stroke-linecap="round"/>
<path d="M446.163 139.62C440.81 140.177 435.495 138.292 431.689 134.489L430.571 133.371" stroke="black" stroke-width="3" stroke-miterlimit="10" stroke-linecap="round"/>
<path d="M432.87 150.592C428.693 147.201 426.266 142.111 426.266 136.733L426.266 135.149" stroke="black" stroke-width="3" stroke-miterlimit="10" stroke-linecap="round"/>
<path d="M415.708 148.954C415.151 143.604 417.037 138.292 420.843 134.489L421.961 133.371" stroke="black" stroke-width="3" stroke-miterlimit="10" stroke-linecap="round"/>
<path d="M432.349 129.069C432.349 125.711 429.625 122.989 426.266 122.989C422.906 122.989 420.182 125.711 420.182 129.069C420.182 132.427 422.906 135.149 426.266 135.149C429.625 135.149 432.349 132.427 432.349 129.069Z" fill="#E8EDF2"/>
<path d="M426.241 123.014C429.601 123.014 432.324 125.736 432.324 129.094C432.324 131.301 431.148 133.235 429.386 134.299C429.939 133.384 430.261 132.307 430.261 131.156C430.261 127.799 427.537 125.076 424.177 125.076C423.026 125.076 421.949 125.398 421.032 125.951C422.101 124.19 424.033 123.014 426.241 123.014Z" fill="#D9E7EC"/>
<path d="M432.349 129.069C432.349 125.711 429.625 122.989 426.266 122.989C422.906 122.989 420.182 125.711 420.182 129.069C420.182 132.427 422.906 135.149 426.266 135.149C429.625 135.149 432.349 132.427 432.349 129.069Z" stroke="black" stroke-width="3" stroke-miterlimit="10" stroke-linecap="round"/>
<path d="M449.056 71.7061C449.056 59.1382 438.862 48.9499 426.286 48.9499C413.711 48.9499 403.517 59.1382 403.517 71.7062C403.517 84.2741 413.711 94.4624 426.286 94.4624C438.862 94.4624 449.056 84.2741 449.056 71.7061Z" fill="#2776EA"/>
<path d="M426.27 48.95C438.846 48.95 449.04 59.1382 449.04 71.7063C449.04 79.0442 445.569 85.5696 440.175 89.7314C443.146 85.8872 444.913 81.0653 444.913 75.831C444.913 63.2629 434.718 53.0748 422.143 53.0748C416.905 53.0748 412.081 54.8443 408.234 57.81C412.399 52.4189 418.928 48.95 426.27 48.95Z" fill="#0E52B5"/>
<path d="M449.035 71.7061C449.035 59.1382 438.841 48.9499 426.266 48.9499C413.69 48.9499 403.496 59.1382 403.496 71.7062C403.496 84.2741 413.69 94.4624 426.266 94.4624C438.841 94.4624 449.035 84.2741 449.035 71.7061Z" stroke="black" stroke-width="3" stroke-miterlimit="10" stroke-linecap="round"/>
<path d="M404.734 78.3062C408.127 74.1319 413.22 71.7065 418.602 71.7065L420.186 71.7065" stroke="black" stroke-width="3" stroke-miterlimit="10" stroke-linecap="round"/>
<path d="M406.373 61.1553C411.726 60.5985 417.042 62.4835 420.847 66.2865L421.966 67.4043" stroke="black" stroke-width="3" stroke-miterlimit="10" stroke-linecap="round"/>
<path d="M419.663 50.1873C423.839 53.5778 426.266 58.6678 426.266 64.0465L426.266 65.6304" stroke="black" stroke-width="3" stroke-miterlimit="10" stroke-linecap="round"/>
<path d="M436.823 51.8249C437.381 57.1747 435.495 62.4874 431.689 66.2904L430.571 67.4082" stroke="black" stroke-width="3" stroke-miterlimit="10" stroke-linecap="round"/>
<path d="M447.802 65.1065C444.409 69.2807 439.316 71.7061 433.934 71.7061L432.349 71.7061" stroke="black" stroke-width="3" stroke-miterlimit="10" stroke-linecap="round"/>
<path d="M446.163 82.257C440.81 82.8138 435.495 80.9288 431.689 77.1258L430.571 76.008" stroke="black" stroke-width="3" stroke-miterlimit="10" stroke-linecap="round"/>
<path d="M432.87 93.229C428.693 89.8385 426.266 84.7485 426.266 79.3698L426.266 77.7859" stroke="black" stroke-width="3" stroke-miterlimit="10" stroke-linecap="round"/>
<path d="M415.708 91.5918C415.151 86.242 417.037 80.9293 420.843 77.1263L421.961 76.0085" stroke="black" stroke-width="3" stroke-miterlimit="10" stroke-linecap="round"/>
<path d="M432.349 71.7058C432.349 68.3479 429.625 65.6259 426.266 65.6259C422.906 65.6259 420.182 68.3479 420.182 71.7058C420.182 75.0636 422.906 77.7856 426.266 77.7856C429.625 77.7856 432.349 75.0636 432.349 71.7058Z" fill="#E8EDF2"/>
<path d="M426.241 65.6507C429.601 65.6507 432.324 68.3731 432.324 71.7306C432.324 73.9373 431.148 75.8718 429.386 76.936C429.939 76.0203 430.261 74.9438 430.261 73.793C430.261 70.4354 427.537 67.7131 424.177 67.7131C423.026 67.7131 421.949 68.0348 421.032 68.5875C422.101 66.8263 424.033 65.6507 426.241 65.6507Z" fill="#D9E7EC"/>
<path d="M432.349 71.7058C432.349 68.3479 429.625 65.6259 426.266 65.6259C422.906 65.6259 420.182 68.3479 420.182 71.7058C420.182 75.0636 422.906 77.7856 426.266 77.7856C429.625 77.7856 432.349 75.0636 432.349 71.7058Z" stroke="black" stroke-width="3" stroke-miterlimit="10" stroke-linecap="round"/>
<rect x="1" y="-1" width="690" height="207" stroke="#CEDDF2" stroke-width="2"/>
<defs>
<linearGradient id="paint0_linear_245_17203" x1="346" y1="0" x2="346" y2="205" gradientUnits="userSpaceOnUse">
<stop stop-color="#2776EA"/>
<stop offset="1" stop-color="#2776EA" stop-opacity="0"/>
</linearGradient>
</defs>
</svg>
