<svg width="93" height="92" viewBox="0 0 93 92" fill="none" xmlns="http://www.w3.org/2000/svg">
<path d="M46.5 92C71.9051 92 92.5 71.4051 92.5 46C92.5 20.5949 71.9051 0 46.5 0C21.0949 0 0.5 20.5949 0.5 46C0.5 71.4051 21.0949 92 46.5 92Z" fill="#F7931A"/>
<path d="M67.1682 40.3075C68.0709 34.2815 63.4796 31.0414 57.2063 28.8794L59.2418 20.7144L54.2738 19.4781L52.29 27.4275C50.9848 27.0997 49.645 26.795 48.3082 26.4902L50.3063 18.4891L45.3383 17.25L43.3028 25.4121C42.2218 25.1649 41.158 24.9234 40.1288 24.6646L40.1345 24.6387L33.2805 22.9281L31.958 28.2354C31.958 28.2354 35.6467 29.0806 35.569 29.1324C37.5815 29.6355 37.9438 30.9666 37.8834 32.0246L35.5662 41.3252C35.7042 41.3597 35.8824 41.4115 36.0837 41.4891L35.5575 41.3597L32.3088 54.3892C32.0615 54.9987 31.4377 55.9159 30.0289 55.568C30.0807 55.6399 26.4179 54.6681 26.4179 54.6681L23.9512 60.3549L30.4199 61.9677C31.6217 62.2696 32.8004 62.5859 33.959 62.882L31.9034 71.139L36.8685 72.3752L38.904 64.2102C40.261 64.5754 41.5778 64.9146 42.8658 65.2366L40.836 73.3671L45.804 74.6034L47.8597 66.3636C56.3352 67.9679 62.7062 67.321 65.3885 59.6562C67.5505 53.4865 65.2822 49.9244 60.823 47.6042C64.0718 46.8567 66.5155 44.7206 67.1682 40.3075V40.3075ZM55.8119 56.2292C54.2795 62.4019 43.8864 59.064 40.5169 58.2274L43.2482 47.288C46.6177 48.1304 57.419 49.795 55.8119 56.2292ZM57.35 40.2184C55.9499 45.8332 47.3019 42.9784 44.4988 42.2797L46.9713 32.361C49.7744 33.0596 58.8105 34.362 57.35 40.2184Z" fill="white"/>
</svg>
