<svg width="93" height="92" viewBox="0 0 93 92" fill="none" xmlns="http://www.w3.org/2000/svg">
<path d="M46.5 0C71.904 0 92.5 20.596 92.5 46C92.5 71.404 71.903 92 46.5 92C21.097 92 0.5 71.4095 0.5 46C0.5 20.5905 21.0933 0 46.5 0Z" fill="#53AE94"/>
<path d="M52.1768 39.8709V33.0279H67.825V22.6016H25.2143V33.0279H40.8644V39.8654C28.1454 40.4496 18.582 42.9685 18.582 45.9861C18.582 49.0037 28.15 51.5227 40.8644 52.1106V74.0296H52.1804V52.1087C64.8764 51.5227 74.4205 49.0056 74.4205 45.9907C74.4205 42.9759 64.8764 40.4588 52.1804 39.8727M52.1804 50.2522V50.2466C51.8612 50.2669 50.2208 50.3653 46.5684 50.3653C43.6484 50.3653 41.594 50.2825 40.87 50.2448V50.254C29.6331 49.7563 21.2454 47.7994 21.2454 45.458C21.2454 43.1166 29.634 41.1626 40.87 40.6639V48.3045C41.606 48.3551 43.7109 48.4793 46.6163 48.4793C50.1058 48.4793 51.8603 48.334 52.1823 48.3045V40.6639C63.3971 41.1635 71.7654 43.1222 71.7654 45.4553C71.7654 47.7884 63.3934 49.748 52.1823 50.2476" fill="white"/>
</svg>
