<svg width="117" height="100" viewBox="0 0 117 100" fill="none" xmlns="http://www.w3.org/2000/svg">
<path d="M28.9492 91.3921L2.9026 52.2252C-0.435712 46.7131 1.31108 39.5707 6.82317 36.1935L61.75 2.81043C67.2621 -0.527885 74.4046 1.21891 77.7817 6.69218L92.0666 30.2156L96.647 38.4061" fill="#D8D8D8"/>
<path d="M104.139 98.8845H39.822C33.3907 98.8845 28.1768 93.6705 28.1768 87.2393V50.0388C28.1768 43.6075 33.3907 38.3936 39.822 38.3936H104.139C110.57 38.3936 115.784 43.6075 115.784 50.0388V87.2393C115.784 93.6705 110.57 98.8845 104.139 98.8845Z" fill="#F9F9F9"/>
<path d="M44.4834 83.879C44.5241 84.096 44.5676 84.3126 44.6274 84.6193C44.7069 84.4302 44.7555 84.32 44.7997 84.2086C46.0178 81.128 47.2356 78.0475 48.4528 74.9665C48.5029 74.8392 48.5382 74.7286 48.7257 74.7305C49.9295 74.741 51.1328 74.7375 52.3362 74.7398C52.3719 74.7398 52.4076 74.753 52.4736 74.7666C52.1867 75.4599 51.9084 76.138 51.6254 76.8146C49.9236 80.8804 48.2188 84.9446 46.5236 89.013C46.4336 89.2285 46.3241 89.2972 46.0951 89.2945C44.9791 89.2824 43.8631 89.2801 42.747 89.2952C42.4951 89.2987 42.3985 89.2207 42.3364 88.9793C41.3717 85.2074 40.3889 81.4401 39.4316 77.6667" fill="#0052CC"/>
<path d="M39.4318 77.666C39.2637 77.0022 38.9272 76.5426 38.298 76.2612C37.1777 75.7605 36.0163 75.401 34.8164 75.1565C34.8164 75.1176 34.8164 75.0788 34.8164 75.04C34.8471 74.9507 34.8781 74.8614 34.9173 74.7473C35.0101 74.7427 35.1145 74.733 35.2193 74.733C37.2281 74.7322 39.2373 74.7306 41.2462 74.7341C42.1956 74.7357 42.8509 75.262 43.0306 76.1979C43.522 78.7568 43.9999 81.3184 44.4836 83.8784" fill="#FFC601"/>
<path d="M67.918 89.2478C68.3023 88.3313 68.6831 87.423 69.0631 86.5147C70.5401 82.9862 72.0206 79.4596 73.4906 75.9284C73.8287 75.1159 74.4067 74.7231 75.2921 74.7398C76.3002 74.7592 77.3091 74.7444 78.3455 74.7444C79.354 79.5788 80.3594 84.3964 81.3714 89.2471C81.2339 89.2579 81.1319 89.2727 81.0298 89.2731C80.1078 89.2746 79.1855 89.2665 78.2636 89.2793C78.0074 89.2828 77.891 89.2214 77.8479 88.9431C77.7618 88.3892 77.62 87.8442 77.5117 87.2938C77.4811 87.1373 77.4061 87.0904 77.254 87.0907C75.7789 87.0954 74.3035 87.0973 72.8284 87.0907C72.6525 87.09 72.5963 87.1742 72.5466 87.3147C72.3397 87.8989 72.1328 88.4831 71.9081 89.0603C71.8723 89.1516 71.7465 89.27 71.6611 89.2711C70.4485 89.2832 69.235 89.2773 68.022 89.2746C67.9948 89.2746 67.9677 89.261 67.918 89.2478ZM76.8425 84.1224C76.4656 82.3123 76.0949 80.5306 75.7242 78.7485C75.7005 78.7465 75.6768 78.745 75.6531 78.743C75.008 80.5267 74.3625 82.31 73.7061 84.1224C74.7565 84.1224 75.7688 84.1224 76.8425 84.1224Z" fill="#0052CC"/>
<path d="M115.784 51.709H28.1758V63.8709H115.784V51.709Z" fill="#383838"/>
<path d="M57.3574 88.7401C57.5864 87.6726 57.8085 86.6346 58.0379 85.5648C58.263 85.6661 58.4618 85.7601 58.6641 85.8459C59.9477 86.392 61.2784 86.6424 62.6634 86.3843C63.0217 86.3175 63.387 86.1482 63.6871 85.9375C64.2871 85.5163 64.3364 84.7547 63.8023 84.2547C63.5022 83.9737 63.1397 83.7528 62.7849 83.5382C62.0318 83.0828 61.2237 82.7078 60.5121 82.1966C58.1132 80.4716 58.7517 77.7458 60.0824 76.3596C61.0657 75.3352 62.3055 74.8306 63.6719 74.5969C65.3503 74.3097 66.9923 74.4882 68.5967 75.0464C68.6498 75.0651 68.7003 75.0926 68.769 75.1237C68.5509 76.1422 68.3346 77.1523 68.1153 78.1755C67.0653 77.7128 65.9877 77.4613 64.8543 77.4939C64.3562 77.5082 63.871 77.5901 63.4309 77.8459C62.6933 78.2745 62.5951 79.0132 63.248 79.5559C63.6168 79.8621 64.0569 80.0842 64.4712 80.3338C65.1341 80.7336 65.8309 81.0841 66.4636 81.527C68.2562 82.7816 68.4282 84.7139 67.672 86.439C67.0622 87.8298 65.9008 88.6089 64.5041 89.0697C63.1568 89.5137 61.7714 89.5898 60.3673 89.4431C59.4392 89.3461 58.5247 89.1916 57.6478 88.8601C57.5581 88.8263 57.4708 88.7871 57.3574 88.7401Z" fill="#0052CC"/>
<path d="M54.1159 74.7529C55.3802 74.7529 56.61 74.7529 57.8611 74.7529C57.6658 75.6811 57.4768 76.5902 57.2827 77.4981C56.4729 81.2863 55.6636 85.0749 54.8492 88.862C54.7409 89.3662 54.857 89.2804 54.3193 89.2831C53.3198 89.2878 52.3202 89.2847 51.3203 89.2847C51.2264 89.2847 51.132 89.2847 51.0078 89.2847C52.0481 84.4212 53.0803 79.5958 54.1159 74.7529Z" fill="#0052CC"/>
<path d="M104.139 98.8845H39.822C33.3907 98.8845 28.1768 93.6705 28.1768 87.2393V50.0388C28.1768 43.6075 33.3907 38.3936 39.822 38.3936H104.139C110.57 38.3936 115.784 43.6075 115.784 50.0388V87.2393C115.784 93.6705 110.57 98.8845 104.139 98.8845Z" stroke="#303030" stroke-width="0.5" stroke-miterlimit="10" stroke-linecap="round" stroke-linejoin="round"/>
<path d="M115.792 51.709H28.1758" stroke="#303030" stroke-width="0.5" stroke-miterlimit="10" stroke-linecap="round" stroke-linejoin="round"/>
<path d="M115.792 63.8716H28.1758" stroke="#303030" stroke-width="0.5" stroke-miterlimit="10" stroke-linecap="round" stroke-linejoin="round"/>
<path d="M31.8601 95.7395L31.8213 95.7007" stroke="#303030" stroke-width="0.5" stroke-miterlimit="10" stroke-linecap="round" stroke-linejoin="round"/>
<path d="M28.9492 91.3921L2.9026 52.2252C-0.435712 46.7131 1.31108 39.5707 6.82317 36.1935L61.75 2.81043C67.2621 -0.527885 74.4046 1.21891 77.7817 6.69218L96.647 38.4061" stroke="#303030" stroke-width="0.5" stroke-miterlimit="10" stroke-linecap="round" stroke-linejoin="round"/>
<path d="M10.0271 54.2547C10.0271 54.2547 2.45534 45.9947 9.4538 40.5979L31.8775 26.9058" stroke="#303030" stroke-width="0.5" stroke-miterlimit="10" stroke-linecap="round" stroke-linejoin="round"/>
<path d="M36.9092 24.0264L39.2487 22.3604" stroke="#303030" stroke-width="0.5" stroke-miterlimit="10" stroke-linecap="round" stroke-linejoin="round"/>
<path d="M90.4898 38.393L84.1641 28.1855" stroke="#303030" stroke-width="0.5" stroke-miterlimit="10" stroke-linecap="round" stroke-linejoin="round"/>
</svg>
