<svg width="227" height="85" viewBox="0 0 227 85" fill="none" xmlns="http://www.w3.org/2000/svg">
<path d="M7.50092 84.0059V59.7144H0.374023V52.1963H23.2971V59.7144H16.1702V84.0059H7.50092ZM27.5341 84.0059V52.1963H36.5945C40.1433 52.1963 42.6163 52.3595 44.0142 52.686C45.412 53.0114 46.6183 53.5583 47.6319 54.3257C48.7767 55.1943 49.6565 56.3027 50.2719 57.6497C50.8874 58.9973 51.1957 60.4824 51.1957 62.1039C51.1957 64.5668 50.5909 66.5694 49.3814 68.1118C48.1714 69.6547 46.408 70.679 44.0902 71.1869L52.7594 84.0054H42.9604L35.6596 71.5551V84.0054H27.5341V84.0059ZM35.6601 67.2325H37.2678C39.1366 67.2325 40.5013 66.9141 41.3635 66.2761C42.2251 65.6393 42.6564 64.6396 42.6564 63.2771C42.6564 61.6833 42.2551 60.5509 41.4507 59.8771C40.6474 59.2038 39.2961 58.8667 37.3984 58.8667H35.6601V67.2325Z" fill="#00AFD8"/>
<path d="M52.3252 84.0061L63.2979 52.1965H74.1619L85.1559 84.0061H76.5295L74.9218 78.3135H62.6021L60.9511 84.0061H52.3252ZM64.471 72.121H73.0969L69.8596 61.6263C69.7585 61.3084 69.6209 60.7935 69.447 60.0839C69.2731 59.3748 69.0488 58.4623 68.7737 57.3465C68.5941 58.0937 68.4094 58.8398 68.2198 59.5846C68.0457 60.268 67.8609 60.9486 67.6654 61.6263L64.471 72.121ZM88.1978 84.0061V52.1965H96.5626L108.578 68.5578C108.81 68.8912 109.191 69.5607 109.719 70.5674C110.247 71.5741 110.831 72.7734 111.468 74.1638C111.31 72.9939 111.184 71.82 111.088 70.6434C111.013 69.7328 110.973 68.8196 110.968 67.906V52.1965H119.29V84.0061H110.968L98.9532 67.5806C98.7065 67.2472 98.3185 66.5777 97.7908 65.5705C97.2621 64.5638 96.6862 63.3795 96.0628 62.018C96.2367 63.3511 96.3635 64.5306 96.4433 65.5598C96.5176 66.4704 96.5574 67.3835 96.5626 68.2972V84.0061H88.1978ZM127.525 73.7292C128.815 75.1929 130.085 76.2857 131.338 77.0103C132.591 77.735 133.841 78.0967 135.087 78.0967C136.246 78.0967 137.198 77.7853 137.944 77.1618C138.69 76.5394 139.063 75.7495 139.063 74.7937C139.063 73.7367 138.74 72.9216 138.096 72.35C137.451 71.7774 135.991 71.1877 133.718 70.5786C130.604 69.7395 128.401 68.6445 127.112 67.2975C125.823 65.9505 125.179 64.1041 125.179 61.7563C125.179 58.7144 126.196 56.2349 128.232 54.3153C130.267 52.3961 132.906 51.436 136.151 51.436C137.904 51.436 139.566 51.6715 141.138 52.1419C142.71 52.6129 144.198 53.3263 145.603 54.2821L142.887 60.5179C141.902 59.6788 140.891 59.044 139.856 58.6164C138.82 58.1899 137.795 57.9758 136.781 57.9758C135.739 57.9758 134.891 58.2263 134.239 58.7256C133.587 59.2249 133.262 59.8661 133.262 60.648C133.262 61.4443 133.547 62.0828 134.12 62.5601C134.693 63.0375 135.797 63.4946 137.433 63.9296L137.824 64.0378C141.358 64.9941 143.684 66.0441 144.799 67.1883C145.551 67.9713 146.124 68.9089 146.515 70.0022C146.906 71.0961 147.102 72.3094 147.102 73.6414C147.102 77.0178 145.994 79.7296 143.777 81.7798C141.561 83.8284 138.606 84.8533 134.913 84.8533C132.697 84.8533 130.68 84.4765 128.861 83.7235C127.043 82.9706 125.295 81.79 123.613 80.1823L127.525 73.7292ZM151.969 84.0061V52.1965H171.458V59.1714H160.421V64.6901H170.829V71.513H160.421V84.0061H151.969ZM176.173 84.0061V52.1965H195.663V59.1714H184.626V64.6901H195.034V71.513H184.626V76.8798H195.663V84.0056H176.173V84.0061ZM201.399 84.0061V52.1965H210.46C214.01 52.1965 216.482 52.3597 217.88 52.6862C219.278 53.0116 220.484 53.5585 221.498 54.326C222.643 55.1946 223.522 56.3029 224.138 57.6499C224.754 58.9975 225.062 60.4826 225.062 62.1042C225.062 64.567 224.457 66.5697 223.248 68.112C222.038 69.6549 220.275 70.6793 217.957 71.1871L226.626 84.0056H216.827L209.526 71.5553V84.0056H201.399V84.0061ZM209.526 67.2327H211.134C213.002 67.2327 214.368 66.9143 215.229 66.2764C216.09 65.6395 216.522 64.6398 216.522 63.2773C216.522 61.6835 216.12 60.5511 215.316 59.8773C214.513 59.2041 213.161 58.8669 211.264 58.8669H209.526V67.2327Z" fill="#00AFD8"/>
<path d="M99.8013 0.482961L105.575 22.3266C105.848 23.3102 106.099 24.3351 106.329 25.4022C106.559 26.4693 106.799 27.6933 107.051 29.074C107.365 27.4418 107.631 26.0979 107.851 25.041C108.07 23.9845 108.285 23.079 108.494 22.3266L113.892 0.482961H126.541L113.547 46.4302H101.936L96.2547 26.8145C96.0449 26.1236 95.7003 24.7745 95.2192 22.766C95.0094 21.8669 94.8424 21.1653 94.7172 20.6633C94.6123 21.1026 94.4662 21.7202 94.2778 22.515C93.7967 24.5443 93.4306 25.9781 93.1796 26.8145L87.5929 46.4302H75.9492L62.9873 0.482961H75.635L80.9076 22.4518C81.1586 23.5821 81.4047 24.7118 81.645 25.8416C81.8853 26.9713 82.1106 28.1327 82.3199 29.325C82.5175 28.4029 82.7216 27.4822 82.9321 26.563C83.2502 25.1897 83.5797 23.8191 83.9206 22.4513L89.6956 0.482422H99.8013V0.482961ZM131.185 46.4302V0.482961H143.834V46.4302H131.185ZM153.939 46.4302V0.482961H167.027C172.152 0.482961 175.725 0.717902 177.744 1.18885C179.763 1.65927 181.505 2.44971 182.97 3.55806C184.622 4.81357 185.894 6.41428 186.783 8.36017C187.672 10.3061 188.117 12.451 188.117 14.794C188.117 18.3513 187.243 21.2434 185.496 23.4718C183.749 25.7003 181.202 27.1801 177.855 27.9127L190.377 46.4302H176.222L165.677 28.4468V46.4308H153.939V46.4302ZM165.677 22.2013H167.999C170.699 22.2013 172.67 21.7411 173.916 20.8206C175.161 19.9001 175.783 18.4562 175.783 16.4894C175.783 14.1882 175.203 12.5506 174.041 11.5776C172.88 10.6052 170.929 10.1182 168.187 10.1182H165.677V22.2013ZM195.147 46.4302V0.482961H223.299V10.5576H207.356V18.5295H222.389V28.3842H207.356V36.1362H223.299V46.4302H195.147Z" fill="#006E90"/>
<path d="M0.751953 0.146973H58.077V9.24491H0.751953V0.146973Z" fill="url(#paint0_linear_358_14901)"/>
<path d="M0.751953 17.8066H58.077V26.9046H0.751953V17.8066Z" fill="url(#paint1_linear_358_14901)"/>
<path d="M0.751953 37.0723H58.077V46.1702H0.751953V37.0723Z" fill="url(#paint2_linear_358_14901)"/>
<defs>
<linearGradient id="paint0_linear_358_14901" x1="0.751953" y1="4.69594" x2="58.077" y2="4.69594" gradientUnits="userSpaceOnUse">
<stop stop-color="#41E700" stop-opacity="0"/>
<stop offset="0.736" stop-color="#3ACD00"/>
<stop offset="0.781" stop-color="#36BE00"/>
<stop offset="0.926" stop-color="#299100"/>
<stop offset="1" stop-color="#248000"/>
</linearGradient>
<linearGradient id="paint1_linear_358_14901" x1="0.751953" y1="22.3556" x2="58.077" y2="22.3556" gradientUnits="userSpaceOnUse">
<stop stop-color="#41E700" stop-opacity="0"/>
<stop offset="0.736" stop-color="#3ACD00"/>
<stop offset="0.781" stop-color="#36BE00"/>
<stop offset="0.926" stop-color="#299100"/>
<stop offset="1" stop-color="#248000"/>
</linearGradient>
<linearGradient id="paint2_linear_358_14901" x1="0.751953" y1="41.6212" x2="58.077" y2="41.6212" gradientUnits="userSpaceOnUse">
<stop stop-color="#41E700" stop-opacity="0"/>
<stop offset="0.736" stop-color="#3ACD00"/>
<stop offset="0.781" stop-color="#36BE00"/>
<stop offset="0.926" stop-color="#299100"/>
<stop offset="1" stop-color="#248000"/>
</linearGradient>
</defs>
</svg>
