<svg width="146" height="147" viewBox="0 0 146 147" fill="none" xmlns="http://www.w3.org/2000/svg">
<path d="M141.152 145H74.4582C73.9279 145 73.4976 144.569 73.4976 144.039V2H141.237C142.808 2 144.08 3.27239 144.08 4.84462V142.071C144.08 143.689 142.77 145 141.152 145Z" fill="#596C76"/>
<path d="M86.2083 145H74.4541C73.9238 145 73.4935 144.569 73.4935 144.039V2H86.2083V145Z" fill="#465A61"/>
<path d="M140.753 145H74.4582C73.9279 145 73.4976 144.569 73.4976 144.039V118.945H144.084V141.671C144.08 143.509 142.589 145 140.753 145Z" fill="#B6C4CF"/>
<path d="M86.2083 145H74.4541C73.9238 145 73.4935 144.569 73.4935 144.039V118.945H86.2083V145Z" fill="#9FACBA"/>
<path d="M72.6362 145H3.0103C2.48004 145 2.04968 144.569 2.04968 144.039V2H72.6362V145Z" fill="#596C76"/>
<path d="M14.7645 145H3.0103C2.48004 145 2.04968 144.569 2.04968 144.039V4.27954C2.04968 3.01868 3.07178 2 4.32828 2H14.7606V145H14.7645Z" fill="#465A61"/>
<path d="M72.6362 145H3.0103C2.48004 145 2.04968 144.569 2.04968 144.039V118.945H72.6362V145Z" fill="#B6C4CF"/>
<path d="M14.7645 145H3.0103C2.48004 145 2.04968 144.569 2.04968 144.039V118.945H14.7645V145Z" fill="#9FACBA"/>
<path d="M136.752 31.1226H81.5466V74.2993H136.752V31.1226Z" fill="#B6C4CF"/>
<path d="M94.2268 74.2993H81.7733C81.6503 74.2993 81.5466 74.1993 81.5466 74.0725V31.3494C81.5466 31.2263 81.6465 31.1226 81.7733 31.1226H94.2268C94.3498 31.1226 94.4535 31.2225 94.4535 31.3494V74.0763C94.4497 74.1993 94.3498 74.2993 94.2268 74.2993Z" fill="#9FACBA"/>
<path d="M128.96 47.041H95.9529V73.1154H128.96V47.041Z" fill="#596C76"/>
<path d="M97.2093 46.895H88.6828V73.4999H97.2093V46.895Z" fill="#465A61"/>
<path d="M136.756 29.4427H81.9236V12.4711C81.9236 11.1833 82.9687 10.1377 84.2559 10.1377H133.747C135.407 10.1377 136.756 11.4831 136.756 13.1476V29.4427Z" fill="#8D9CA8"/>
<path d="M94.5035 29.4427H81.7733C81.6503 29.4427 81.5466 29.3427 81.5466 29.2159V10.3645C81.5466 10.2415 81.6465 10.1377 81.7733 10.1377H94.5035C94.6264 10.1377 94.7302 10.2376 94.7302 10.3645V29.2159C94.7302 29.3427 94.6264 29.4427 94.5035 29.4427Z" fill="#7A8C98"/>
<path d="M131.991 132.584H85.5818C83.3686 132.584 81.5741 130.789 81.5741 128.574V111.979H136.003V128.574C136.003 130.785 134.209 132.584 131.991 132.584Z" fill="#B6C4CF"/>
<path d="M135.803 96.7832H82.1231V110.472H135.803V96.7832Z" fill="#7A8C98"/>
<path d="M135.803 81.7915H82.1231V95.4803H135.803V81.7915Z" fill="#E8EDF2"/>
<path d="M94.1278 132.583H81.4937C81.3707 132.583 81.267 132.483 81.267 132.356V112.202C81.267 112.079 81.3669 111.975 81.4937 111.975H94.1278C94.2507 111.975 94.3545 112.075 94.3545 112.202V132.356C94.3545 132.479 94.2546 132.583 94.1278 132.583Z" fill="#9FACBA"/>
<path d="M93.8511 110.469H81.3976C81.2746 110.469 81.1709 110.369 81.1709 110.242V97.0066C81.1709 96.8836 81.2708 96.7798 81.3976 96.7798H93.8511C93.9741 96.7798 94.0778 96.8797 94.0778 97.0066V110.242C94.0778 110.369 93.9741 110.469 93.8511 110.469Z" fill="#596C76"/>
<path d="M93.8511 95.4764H81.3976C81.2746 95.4764 81.1709 95.3764 81.1709 95.2496V82.0144C81.1709 81.8914 81.2708 81.7876 81.3976 81.7876H93.8511C93.9741 81.7876 94.0778 81.8875 94.0778 82.0144V95.2496C94.0778 95.3764 93.9741 95.4764 93.8511 95.4764Z" fill="#D9E7EC"/>
<path d="M121.671 53.9106H95.9529V66.4846H121.671V53.9106Z" fill="#2776EA"/>
<path d="M104.479 53.9106H95.9529V66.4846H104.479V53.9106Z" fill="#0E52B5"/>
<path d="M135.803 73.9688H82.1231V81.2379H135.803V73.9688Z" fill="#8D9CA8"/>
<path d="M93.8511 81.2378H81.3976C81.2746 81.2378 81.1709 81.1379 81.1709 81.011V74.1916C81.1709 74.0686 81.2708 73.9648 81.3976 73.9648H93.8511C93.9741 73.9648 94.0778 74.0648 94.0778 74.1916V81.011C94.0778 81.1379 93.9741 81.2378 93.8511 81.2378Z" fill="#7A8C98"/>
<path d="M61.3245 132.584H14.9149C12.7017 132.584 10.9072 130.789 10.9072 128.574V111.979H65.3361V128.574C65.3361 130.785 63.5378 132.584 61.3245 132.584Z" fill="#E8EDF2"/>
<path d="M64.1831 96.7832H10.5036V110.472H64.1831V96.7832Z" fill="#2776EA"/>
<path d="M64.1831 81.7915H10.5036V95.4803H64.1831V81.7915Z" fill="#7A8C98"/>
<path d="M64.1831 45.915H10.5036V59.6038H64.1831V45.915Z" fill="#7A8C98"/>
<path d="M64.1831 31.1226H10.5036V44.8113H64.1831V31.1226Z" fill="#2776EA"/>
<path d="M65.3359 29.4427H10.5036V12.4711C10.5036 11.1833 11.5487 10.1377 12.836 10.1377H62.3272C63.9872 10.1377 65.3359 11.4831 65.3359 13.1476V29.4427Z" fill="#E8EDF2"/>
<path d="M64.1831 61.1333H10.5036V80.2384H64.1831V61.1333Z" fill="#B6C4CF"/>
<path d="M23.4605 132.583H10.8264C10.7034 132.583 10.5997 132.483 10.5997 132.356V112.202C10.5997 112.079 10.6996 111.975 10.8264 111.975H23.4605C23.5834 111.975 23.6872 112.075 23.6872 112.202V132.356C23.6833 132.479 23.5834 132.583 23.4605 132.583Z" fill="#D9E7EC"/>
<path d="M23.1838 110.469H10.7303C10.6073 110.469 10.5036 110.369 10.5036 110.242V97.0066C10.5036 96.8836 10.6035 96.7798 10.7303 96.7798H23.1838C23.3067 96.7798 23.4105 96.8797 23.4105 97.0066V110.242C23.4066 110.369 23.3067 110.469 23.1838 110.469Z" fill="#0E52B5"/>
<path d="M23.1838 95.4764H10.7303C10.6073 95.4764 10.5036 95.3764 10.5036 95.2496V82.0144C10.5036 81.8914 10.6035 81.7876 10.7303 81.7876H23.1838C23.3067 81.7876 23.4105 81.8875 23.4105 82.0144V95.2496C23.4066 95.3764 23.3067 95.4764 23.1838 95.4764Z" fill="#596C76"/>
<path d="M23.1838 59.6038H10.7303C10.6073 59.6038 10.5036 59.5039 10.5036 59.377V46.1418C10.5036 46.0188 10.6035 45.915 10.7303 45.915H23.1838C23.3067 45.915 23.4105 46.015 23.4105 46.1418V59.377C23.4066 59.5039 23.3067 59.6038 23.1838 59.6038Z" fill="#596C76"/>
<path d="M23.1838 44.8113H10.7303C10.6073 44.8113 10.5036 44.7114 10.5036 44.5845V31.3494C10.5036 31.2263 10.6035 31.1226 10.7303 31.1226H23.1838C23.3067 31.1226 23.4105 31.2225 23.4105 31.3494V44.5845C23.4066 44.7114 23.3067 44.8113 23.1838 44.8113Z" fill="#0E52B5"/>
<path d="M23.4604 29.4427H10.7303C10.6073 29.4427 10.5036 29.3427 10.5036 29.2159V10.3645C10.5036 10.2415 10.6035 10.1377 10.7303 10.1377H23.4604C23.5834 10.1377 23.6871 10.2376 23.6871 10.3645V29.2159C23.6833 29.3427 23.5834 29.4427 23.4604 29.4427Z" fill="#D9E7EC"/>
<path d="M23.1838 80.235H10.7303C10.6073 80.235 10.5036 80.135 10.5036 80.0082V61.3567C10.5036 61.2337 10.6035 61.1299 10.7303 61.1299H23.1838C23.3067 61.1299 23.4105 61.2298 23.4105 61.3567V80.0082C23.4066 80.135 23.3067 80.235 23.1838 80.235Z" fill="#9FACBA"/>
<path d="M113.416 119.606C114.159 119.606 114.761 119.003 114.761 118.261C114.761 117.518 114.159 116.916 113.416 116.916C112.674 116.916 112.072 117.518 112.072 118.261C112.072 119.003 112.674 119.606 113.416 119.606Z" fill="black"/>
<path d="M118.604 119.605C119.347 119.605 119.949 119.003 119.949 118.26C119.949 117.517 119.347 116.915 118.604 116.915C117.862 116.915 117.26 117.517 117.26 118.26C117.26 119.003 117.862 119.605 118.604 119.605Z" fill="black"/>
<path d="M123.791 119.605C124.534 119.605 125.136 119.003 125.136 118.26C125.136 117.517 124.534 116.915 123.791 116.915C123.048 116.915 122.447 117.517 122.447 118.26C122.447 119.003 123.048 119.605 123.791 119.605Z" fill="black"/>
<path d="M128.978 119.605C129.721 119.605 130.323 119.003 130.323 118.26C130.323 117.517 129.721 116.915 128.978 116.915C128.236 116.915 127.634 117.517 127.634 118.26C127.634 119.003 128.236 119.605 128.978 119.605Z" fill="black"/>
<path d="M113.416 126.125C114.159 126.125 114.761 125.523 114.761 124.78C114.761 124.037 114.159 123.435 113.416 123.435C112.674 123.435 112.072 124.037 112.072 124.78C112.072 125.523 112.674 126.125 113.416 126.125Z" fill="black"/>
<path d="M118.604 126.125C119.347 126.125 119.949 125.523 119.949 124.78C119.949 124.037 119.347 123.435 118.604 123.435C117.862 123.435 117.26 124.037 117.26 124.78C117.26 125.523 117.862 126.125 118.604 126.125Z" fill="black"/>
<path d="M123.791 126.125C124.534 126.125 125.136 125.523 125.136 124.78C125.136 124.037 124.534 123.435 123.791 123.435C123.048 123.435 122.447 124.037 122.447 124.78C122.447 125.523 123.048 126.125 123.791 126.125Z" fill="black"/>
<path d="M128.978 126.125C129.721 126.125 130.323 125.523 130.323 124.78C130.323 124.037 129.721 123.435 128.978 123.435C128.236 123.435 127.634 124.037 127.634 124.78C127.634 125.523 128.236 126.125 128.978 126.125Z" fill="black"/>
<path d="M113.416 18.0485C114.159 18.0485 114.761 17.4463 114.761 16.7035C114.761 15.9606 114.159 15.3584 113.416 15.3584C112.674 15.3584 112.072 15.9606 112.072 16.7035C112.072 17.4463 112.674 18.0485 113.416 18.0485Z" fill="black"/>
<path d="M118.604 18.0485C119.346 18.0485 119.948 17.4463 119.948 16.7035C119.948 15.9606 119.346 15.3584 118.604 15.3584C117.861 15.3584 117.259 15.9606 117.259 16.7035C117.259 17.4463 117.861 18.0485 118.604 18.0485Z" fill="black"/>
<path d="M123.791 18.0485C124.533 18.0485 125.135 17.4463 125.135 16.7035C125.135 15.9606 124.533 15.3584 123.791 15.3584C123.048 15.3584 122.446 15.9606 122.446 16.7035C122.446 17.4463 123.048 18.0485 123.791 18.0485Z" fill="black"/>
<path d="M128.978 18.0485C129.721 18.0485 130.323 17.4463 130.323 16.7035C130.323 15.9606 129.721 15.3584 128.978 15.3584C128.236 15.3584 127.634 15.9606 127.634 16.7035C127.634 17.4463 128.236 18.0485 128.978 18.0485Z" fill="black"/>
<path d="M113.416 24.5681C114.159 24.5681 114.761 23.9659 114.761 23.223C114.761 22.4801 114.159 21.8779 113.416 21.8779C112.674 21.8779 112.072 22.4801 112.072 23.223C112.072 23.9659 112.674 24.5681 113.416 24.5681Z" fill="black"/>
<path d="M118.604 24.5681C119.346 24.5681 119.948 23.9659 119.948 23.223C119.948 22.4801 119.346 21.8779 118.604 21.8779C117.861 21.8779 117.259 22.4801 117.259 23.223C117.259 23.9659 117.861 24.5681 118.604 24.5681Z" fill="black"/>
<path d="M123.791 24.5681C124.533 24.5681 125.135 23.9659 125.135 23.223C125.135 22.4801 124.533 21.8779 123.791 21.8779C123.048 21.8779 122.446 22.4801 122.446 23.223C122.446 23.9659 123.048 24.5681 123.791 24.5681Z" fill="black"/>
<path d="M128.978 24.5681C129.721 24.5681 130.323 23.9659 130.323 23.223C130.323 22.4801 129.721 21.8779 128.978 21.8779C128.236 21.8779 127.634 22.4801 127.634 23.223C127.634 23.9659 128.236 24.5681 128.978 24.5681Z" fill="black"/>
<path d="M42.522 18.0485C43.2646 18.0485 43.8665 17.4463 43.8665 16.7035C43.8665 15.9606 43.2646 15.3584 42.522 15.3584C41.7795 15.3584 41.1775 15.9606 41.1775 16.7035C41.1775 17.4463 41.7795 18.0485 42.522 18.0485Z" fill="black"/>
<path d="M47.7096 18.0485C48.4522 18.0485 49.0542 17.4463 49.0542 16.7035C49.0542 15.9606 48.4522 15.3584 47.7096 15.3584C46.9671 15.3584 46.3651 15.9606 46.3651 16.7035C46.3651 17.4463 46.9671 18.0485 47.7096 18.0485Z" fill="black"/>
<path d="M52.8966 18.0485C53.6392 18.0485 54.2411 17.4463 54.2411 16.7035C54.2411 15.9606 53.6392 15.3584 52.8966 15.3584C52.1541 15.3584 51.5521 15.9606 51.5521 16.7035C51.5521 17.4463 52.1541 18.0485 52.8966 18.0485Z" fill="black"/>
<path d="M58.0844 18.0485C58.827 18.0485 59.4289 17.4463 59.4289 16.7035C59.4289 15.9606 58.827 15.3584 58.0844 15.3584C57.3419 15.3584 56.7399 15.9606 56.7399 16.7035C56.7399 17.4463 57.3419 18.0485 58.0844 18.0485Z" fill="black"/>
<path d="M42.5223 24.5681C43.2648 24.5681 43.8668 23.9659 43.8668 23.223C43.8668 22.4801 43.2648 21.8779 42.5223 21.8779C41.7797 21.8779 41.1777 22.4801 41.1777 23.223C41.1777 23.9659 41.7797 24.5681 42.5223 24.5681Z" fill="black"/>
<path d="M47.7096 24.5681C48.4522 24.5681 49.0542 23.9659 49.0542 23.223C49.0542 22.4801 48.4522 21.8779 47.7096 21.8779C46.9671 21.8779 46.3651 22.4801 46.3651 23.223C46.3651 23.9659 46.9671 24.5681 47.7096 24.5681Z" fill="black"/>
<path d="M52.8966 24.5681C53.6392 24.5681 54.2411 23.9659 54.2411 23.223C54.2411 22.4801 53.6392 21.8779 52.8966 21.8779C52.1541 21.8779 51.5521 22.4801 51.5521 23.223C51.5521 23.9659 52.1541 24.5681 52.8966 24.5681Z" fill="black"/>
<path d="M58.0844 24.5681C58.827 24.5681 59.4289 23.9659 59.4289 23.223C59.4289 22.4801 58.827 21.8779 58.0844 21.8779C57.3419 21.8779 56.7399 22.4801 56.7399 23.223C56.7399 23.9659 57.3419 24.5681 58.0844 24.5681Z" fill="black"/>
<path d="M42.522 119.547C43.2646 119.547 43.8665 118.945 43.8665 118.202C43.8665 117.459 43.2646 116.857 42.522 116.857C41.7795 116.857 41.1775 117.459 41.1775 118.202C41.1775 118.945 41.7795 119.547 42.522 119.547Z" fill="black"/>
<path d="M47.7096 119.547C48.4522 119.547 49.0542 118.945 49.0542 118.202C49.0542 117.459 48.4522 116.857 47.7096 116.857C46.9671 116.857 46.3651 117.459 46.3651 118.202C46.3651 118.945 46.9671 119.547 47.7096 119.547Z" fill="black"/>
<path d="M52.8966 119.547C53.6392 119.547 54.2411 118.945 54.2411 118.202C54.2411 117.459 53.6392 116.857 52.8966 116.857C52.1541 116.857 51.5521 117.459 51.5521 118.202C51.5521 118.945 52.1541 119.547 52.8966 119.547Z" fill="black"/>
<path d="M58.0844 119.547C58.827 119.547 59.4289 118.945 59.4289 118.202C59.4289 117.459 58.827 116.857 58.0844 116.857C57.3419 116.857 56.7399 117.459 56.7399 118.202C56.7399 118.945 57.3419 119.547 58.0844 119.547Z" fill="black"/>
<path d="M42.5223 126.063C43.2648 126.063 43.8668 125.461 43.8668 124.718C43.8668 123.975 43.2648 123.373 42.5223 123.373C41.7797 123.373 41.1777 123.975 41.1777 124.718C41.1777 125.461 41.7797 126.063 42.5223 126.063Z" fill="black"/>
<path d="M47.7096 126.063C48.4522 126.063 49.0542 125.461 49.0542 124.718C49.0542 123.975 48.4522 123.373 47.7096 123.373C46.9671 123.373 46.3651 123.975 46.3651 124.718C46.3651 125.461 46.9671 126.063 47.7096 126.063Z" fill="black"/>
<path d="M52.8966 126.063C53.6392 126.063 54.2411 125.461 54.2411 124.718C54.2411 123.975 53.6392 123.373 52.8966 123.373C52.1541 123.373 51.5521 123.975 51.5521 124.718C51.5521 125.461 52.1541 126.063 52.8966 126.063Z" fill="black"/>
<path d="M58.0844 126.063C58.827 126.063 59.4289 125.461 59.4289 124.718C59.4289 123.975 58.827 123.373 58.0844 123.373C57.3419 123.373 56.7399 123.975 56.7399 124.718C56.7399 125.461 57.3419 126.063 58.0844 126.063Z" fill="black"/>
<path d="M42.522 68.7712C43.2646 68.7712 43.8665 68.169 43.8665 67.4261C43.8665 66.6833 43.2646 66.0811 42.522 66.0811C41.7795 66.0811 41.1775 66.6833 41.1775 67.4261C41.1775 68.169 41.7795 68.7712 42.522 68.7712Z" fill="black"/>
<path d="M47.7096 68.7712C48.4522 68.7712 49.0542 68.169 49.0542 67.4261C49.0542 66.6833 48.4522 66.0811 47.7096 66.0811C46.9671 66.0811 46.3651 66.6833 46.3651 67.4261C46.3651 68.169 46.9671 68.7712 47.7096 68.7712Z" fill="black"/>
<path d="M52.8966 68.7712C53.6392 68.7712 54.2411 68.169 54.2411 67.4261C54.2411 66.6833 53.6392 66.0811 52.8966 66.0811C52.1541 66.0811 51.5521 66.6833 51.5521 67.4261C51.5521 68.169 52.1541 68.7712 52.8966 68.7712Z" fill="black"/>
<path d="M58.0844 68.7712C58.827 68.7712 59.4289 68.169 59.4289 67.4261C59.4289 66.6833 58.827 66.0811 58.0844 66.0811C57.3419 66.0811 56.7399 66.6833 56.7399 67.4261C56.7399 68.169 57.3419 68.7712 58.0844 68.7712Z" fill="black"/>
<path d="M42.5223 75.2868C43.2648 75.2868 43.8668 74.6846 43.8668 73.9418C43.8668 73.1989 43.2648 72.5967 42.5223 72.5967C41.7797 72.5967 41.1777 73.1989 41.1777 73.9418C41.1777 74.6846 41.7797 75.2868 42.5223 75.2868Z" fill="black"/>
<path d="M47.7096 75.2868C48.4522 75.2868 49.0542 74.6846 49.0542 73.9418C49.0542 73.1989 48.4522 72.5967 47.7096 72.5967C46.9671 72.5967 46.3651 73.1989 46.3651 73.9418C46.3651 74.6846 46.9671 75.2868 47.7096 75.2868Z" fill="black"/>
<path d="M52.8966 75.2868C53.6392 75.2868 54.2411 74.6846 54.2411 73.9418C54.2411 73.1989 53.6392 72.5967 52.8966 72.5967C52.1541 72.5967 51.5521 73.1989 51.5521 73.9418C51.5521 74.6846 52.1541 75.2868 52.8966 75.2868Z" fill="black"/>
<path d="M58.0844 75.2868C58.827 75.2868 59.4289 74.6846 59.4289 73.9418C59.4289 73.1989 58.827 72.5967 58.0844 72.5967C57.3419 72.5967 56.7399 73.1989 56.7399 73.9418C56.7399 74.6846 57.3419 75.2868 58.0844 75.2868Z" fill="black"/>
<path d="M112.276 39.3137C113.018 39.3137 113.62 38.7115 113.62 37.9686C113.62 37.2257 113.018 36.6235 112.276 36.6235C111.533 36.6235 110.931 37.2257 110.931 37.9686C110.931 38.7115 111.533 39.3137 112.276 39.3137Z" fill="black"/>
<path d="M118.039 39.3137C118.781 39.3137 119.383 38.7115 119.383 37.9686C119.383 37.2257 118.781 36.6235 118.039 36.6235C117.296 36.6235 116.694 37.2257 116.694 37.9686C116.694 38.7115 117.296 39.3137 118.039 39.3137Z" fill="black"/>
<path d="M111.376 89.9787C112.119 89.9787 112.721 89.3765 112.721 88.6336C112.721 87.8908 112.119 87.2886 111.376 87.2886C110.633 87.2886 110.031 87.8908 110.031 88.6336C110.031 89.3765 110.633 89.9787 111.376 89.9787Z" fill="black"/>
<path d="M117.141 89.9787C117.883 89.9787 118.485 89.3765 118.485 88.6336C118.485 87.8908 117.883 87.2886 117.141 87.2886C116.398 87.2886 115.796 87.8908 115.796 88.6336C115.796 89.3765 116.398 89.9787 117.141 89.9787Z" fill="black"/>
<path d="M111.376 105.098C112.119 105.098 112.721 104.496 112.721 103.753C112.721 103.01 112.119 102.408 111.376 102.408C110.634 102.408 110.032 103.01 110.032 103.753C110.032 104.496 110.634 105.098 111.376 105.098Z" fill="black"/>
<path d="M117.141 105.098C117.883 105.098 118.485 104.496 118.485 103.753C118.485 103.01 117.883 102.408 117.141 102.408C116.398 102.408 115.796 103.01 115.796 103.753C115.796 104.496 116.398 105.098 117.141 105.098Z" fill="black"/>
<path d="M40.4397 89.9787C41.1823 89.9787 41.7842 89.3765 41.7842 88.6336C41.7842 87.8908 41.1823 87.2886 40.4397 87.2886C39.6972 87.2886 39.0952 87.8908 39.0952 88.6336C39.0952 89.3765 39.6972 89.9787 40.4397 89.9787Z" fill="black"/>
<path d="M46.2036 89.9787C46.9462 89.9787 47.5482 89.3765 47.5482 88.6336C47.5482 87.8908 46.9462 87.2886 46.2036 87.2886C45.4611 87.2886 44.8591 87.8908 44.8591 88.6336C44.8591 89.3765 45.4611 89.9787 46.2036 89.9787Z" fill="black"/>
<path d="M40.4397 105.098C41.1823 105.098 41.7842 104.496 41.7842 103.753C41.7842 103.01 41.1823 102.408 40.4397 102.408C39.6972 102.408 39.0952 103.01 39.0952 103.753C39.0952 104.496 39.6972 105.098 40.4397 105.098Z" fill="black"/>
<path d="M46.2036 105.098C46.9462 105.098 47.5482 104.496 47.5482 103.753C47.5482 103.01 46.9462 102.408 46.2036 102.408C45.4611 102.408 44.8591 103.01 44.8591 103.753C44.8591 104.496 45.4611 105.098 46.2036 105.098Z" fill="black"/>
<path d="M28.939 39.3059C29.6816 39.3059 30.2835 38.7037 30.2835 37.9608C30.2835 37.2179 29.6816 36.6157 28.939 36.6157C28.1965 36.6157 27.5945 37.2179 27.5945 37.9608C27.5945 38.7037 28.1965 39.3059 28.939 39.3059Z" fill="black"/>
<path d="M34.7033 39.3059C35.4459 39.3059 36.0479 38.7037 36.0479 37.9608C36.0479 37.2179 35.4459 36.6157 34.7033 36.6157C33.9608 36.6157 33.3588 37.2179 33.3588 37.9608C33.3588 38.7037 33.9608 39.3059 34.7033 39.3059Z" fill="black"/>
<path d="M28.939 54.0402C29.6816 54.0402 30.2835 53.438 30.2835 52.6952C30.2835 51.9523 29.6816 51.3501 28.939 51.3501C28.1965 51.3501 27.5945 51.9523 27.5945 52.6952C27.5945 53.438 28.1965 54.0402 28.939 54.0402Z" fill="black"/>
<path d="M34.7033 54.0402C35.4459 54.0402 36.0479 53.438 36.0479 52.6952C36.0479 51.9523 35.4459 51.3501 34.7033 51.3501C33.9608 51.3501 33.3588 51.9523 33.3588 52.6952C33.3588 53.438 33.9608 54.0402 34.7033 54.0402Z" fill="black"/>
<path d="M2.68369 118.945H9.75002" stroke="black" stroke-width="3" stroke-miterlimit="10" stroke-linecap="round"/>
<path d="M65.5159 118.945H72.5861" stroke="black" stroke-width="3" stroke-miterlimit="10" stroke-linecap="round"/>
<path d="M73.3703 118.945H80.4366" stroke="black" stroke-width="3" stroke-miterlimit="10" stroke-linecap="round"/>
<path d="M72.9091 2V145" stroke="black" stroke-width="3" stroke-miterlimit="10" stroke-linecap="round"/>
<path d="M141.87 145H3.95198C2.87609 145 2 144.127 2 143.047V3.95279C2 2.87645 2.87224 2 3.95198 2H141.87C142.946 2 143.822 2.87261 143.822 3.95279V143.051C143.822 144.127 142.946 145 141.87 145Z" stroke="black" stroke-width="3" stroke-miterlimit="10" stroke-linecap="round"/>
<path d="M9.75049 30.4961H65.3359" stroke="black" stroke-width="3" stroke-miterlimit="10" stroke-linecap="round"/>
<path d="M9.75049 45.3384H65.3359" stroke="black" stroke-width="3" stroke-miterlimit="10" stroke-linecap="round"/>
<path d="M9.75049 60.1802H65.3359" stroke="black" stroke-width="3" stroke-miterlimit="10" stroke-linecap="round"/>
<path d="M9.75049 81.2383H65.3359" stroke="black" stroke-width="3" stroke-miterlimit="10" stroke-linecap="round"/>
<path d="M9.75049 96.0303H65.3359" stroke="black" stroke-width="3" stroke-miterlimit="10" stroke-linecap="round"/>
<path d="M9.75049 110.822H65.3359" stroke="black" stroke-width="3" stroke-miterlimit="10" stroke-linecap="round"/>
<path d="M16.7935 118.191H34.9377" stroke="black" stroke-width="3" stroke-miterlimit="10" stroke-linecap="round"/>
<path d="M16.7935 125.11H34.9377" stroke="black" stroke-width="3" stroke-miterlimit="10" stroke-linecap="round"/>
<path d="M16.7935 67.3799H34.9377" stroke="black" stroke-width="3" stroke-miterlimit="10" stroke-linecap="round"/>
<path d="M16.7935 74.2998H34.9377" stroke="black" stroke-width="3" stroke-miterlimit="10" stroke-linecap="round"/>
<path d="M65.3365 24.4307V130.627C65.3365 131.707 64.4604 132.584 63.3806 132.584H56.614" stroke="black" stroke-width="3" stroke-miterlimit="10" stroke-linecap="round"/>
<path d="M57.1783 132.583H11.7063C10.6266 132.583 9.75049 131.707 9.75049 130.627V11.4947C9.75049 10.4145 10.6266 9.53809 11.7063 9.53809H63.3801C64.4598 9.53809 65.3359 10.4145 65.3359 11.4947V25.4833" stroke="black" stroke-width="3" stroke-miterlimit="10" stroke-linecap="round"/>
<path d="M16.7935 16.6382H34.9377" stroke="black" stroke-width="3" stroke-miterlimit="10" stroke-linecap="round"/>
<path d="M16.7935 23.5576H34.9377" stroke="black" stroke-width="3" stroke-miterlimit="10" stroke-linecap="round"/>
<path d="M40.5747 36.0854V39.8488" stroke="black" stroke-width="3" stroke-miterlimit="10" stroke-linecap="round"/>
<path d="M23.2104 37.9692H16.7935" stroke="black" stroke-width="3" stroke-miterlimit="10" stroke-linecap="round"/>
<path d="M46.484 36.0854V39.8488" stroke="black" stroke-width="3" stroke-miterlimit="10" stroke-linecap="round"/>
<path d="M52.3904 36.0854V39.8488" stroke="black" stroke-width="3" stroke-miterlimit="10" stroke-linecap="round"/>
<path d="M58.3 36.0854V39.8488" stroke="black" stroke-width="3" stroke-miterlimit="10" stroke-linecap="round"/>
<path d="M40.5747 50.8774V54.637" stroke="black" stroke-width="3" stroke-miterlimit="10" stroke-linecap="round"/>
<path d="M23.2104 52.7573H16.7935" stroke="black" stroke-width="3" stroke-miterlimit="10" stroke-linecap="round"/>
<path d="M46.484 50.8774V54.637" stroke="black" stroke-width="3" stroke-miterlimit="10" stroke-linecap="round"/>
<path d="M52.3904 50.8774V54.637" stroke="black" stroke-width="3" stroke-miterlimit="10" stroke-linecap="round"/>
<path d="M58.3 50.8774V54.637" stroke="black" stroke-width="3" stroke-miterlimit="10" stroke-linecap="round"/>
<path d="M34.5193 86.7544V90.5139" stroke="black" stroke-width="3" stroke-miterlimit="10" stroke-linecap="round"/>
<path d="M51.8832 88.6343H58.3002" stroke="black" stroke-width="3" stroke-miterlimit="10" stroke-linecap="round"/>
<path d="M28.6092 86.7544V90.5139" stroke="black" stroke-width="3" stroke-miterlimit="10" stroke-linecap="round"/>
<path d="M22.7036 86.7544V90.5139" stroke="black" stroke-width="3" stroke-miterlimit="10" stroke-linecap="round"/>
<path d="M16.7935 86.7544V90.5139" stroke="black" stroke-width="3" stroke-miterlimit="10" stroke-linecap="round"/>
<path d="M34.5193 101.869V105.632" stroke="black" stroke-width="3" stroke-miterlimit="10" stroke-linecap="round"/>
<path d="M51.8832 103.753H58.3002" stroke="black" stroke-width="3" stroke-miterlimit="10" stroke-linecap="round"/>
<path d="M28.6092 101.869V105.632" stroke="black" stroke-width="3" stroke-miterlimit="10" stroke-linecap="round"/>
<path d="M22.7036 101.869V105.632" stroke="black" stroke-width="3" stroke-miterlimit="10" stroke-linecap="round"/>
<path d="M16.7935 101.869V105.632" stroke="black" stroke-width="3" stroke-miterlimit="10" stroke-linecap="round"/>
<path d="M88.2143 118.191H106.359" stroke="black" stroke-width="3" stroke-miterlimit="10" stroke-linecap="round"/>
<path d="M88.2143 125.11H106.359" stroke="black" stroke-width="3" stroke-miterlimit="10" stroke-linecap="round"/>
<path d="M136.757 64.1895V130.65C136.757 131.715 135.892 132.579 134.828 132.579H128.034" stroke="black" stroke-width="3" stroke-miterlimit="10" stroke-linecap="round"/>
<path d="M129.952 132.583H83.1039C82.0395 132.583 81.175 131.718 81.175 130.654V11.4678C81.175 10.403 82.0395 9.53809 83.1039 9.53809H134.828C135.892 9.53809 136.757 10.403 136.757 11.4678V67.4492" stroke="black" stroke-width="3" stroke-miterlimit="10" stroke-linecap="round"/>
<path d="M81.1709 30.4961H136.756" stroke="black" stroke-width="3" stroke-miterlimit="10" stroke-linecap="round"/>
<path d="M81.1709 73.9688H136.756" stroke="black" stroke-width="3" stroke-miterlimit="10" stroke-linecap="round"/>
<path d="M81.1709 81.2383H136.756" stroke="black" stroke-width="3" stroke-miterlimit="10" stroke-linecap="round"/>
<path d="M81.1709 96.0303H136.756" stroke="black" stroke-width="3" stroke-miterlimit="10" stroke-linecap="round"/>
<path d="M81.1709 110.822H136.756" stroke="black" stroke-width="3" stroke-miterlimit="10" stroke-linecap="round"/>
<path d="M88.2143 16.6382H106.359" stroke="black" stroke-width="3" stroke-miterlimit="10" stroke-linecap="round"/>
<path d="M88.2143 23.5576H106.359" stroke="black" stroke-width="3" stroke-miterlimit="10" stroke-linecap="round"/>
<path d="M105.935 36.0854V39.8488" stroke="black" stroke-width="3" stroke-miterlimit="10" stroke-linecap="round"/>
<path d="M123.303 37.9692H129.72" stroke="black" stroke-width="3" stroke-miterlimit="10" stroke-linecap="round"/>
<path d="M100.03 36.0854V39.8488" stroke="black" stroke-width="3" stroke-miterlimit="10" stroke-linecap="round"/>
<path d="M94.1199 36.0854V39.8488" stroke="black" stroke-width="3" stroke-miterlimit="10" stroke-linecap="round"/>
<path d="M88.2143 36.0854V39.8488" stroke="black" stroke-width="3" stroke-miterlimit="10" stroke-linecap="round"/>
<path d="M105.935 86.7544V90.5139" stroke="black" stroke-width="3" stroke-miterlimit="10" stroke-linecap="round"/>
<path d="M123.303 88.6343H129.72" stroke="black" stroke-width="3" stroke-miterlimit="10" stroke-linecap="round"/>
<path d="M100.03 86.7544V90.5139" stroke="black" stroke-width="3" stroke-miterlimit="10" stroke-linecap="round"/>
<path d="M94.1199 86.7544V90.5139" stroke="black" stroke-width="3" stroke-miterlimit="10" stroke-linecap="round"/>
<path d="M88.2143 86.7544V90.5139" stroke="black" stroke-width="3" stroke-miterlimit="10" stroke-linecap="round"/>
<path d="M105.935 101.869V105.632" stroke="black" stroke-width="3" stroke-miterlimit="10" stroke-linecap="round"/>
<path d="M123.303 103.753H129.72" stroke="black" stroke-width="3" stroke-miterlimit="10" stroke-linecap="round"/>
<path d="M100.03 101.869V105.632" stroke="black" stroke-width="3" stroke-miterlimit="10" stroke-linecap="round"/>
<path d="M94.1199 101.869V105.632" stroke="black" stroke-width="3" stroke-miterlimit="10" stroke-linecap="round"/>
<path d="M88.2143 101.869V105.632" stroke="black" stroke-width="3" stroke-miterlimit="10" stroke-linecap="round"/>
<path d="M128.956 73.9688H88.9674V49.4359C88.9674 47.9483 90.1739 46.7412 91.661 46.7412H126.266C127.753 46.7412 128.96 47.9483 128.96 49.4359V73.9688H128.956Z" stroke="black" stroke-width="3" stroke-miterlimit="10" stroke-linecap="round"/>
<path d="M120.775 66.4849H97.1517C96.4908 66.4849 95.9529 65.9467 95.9529 65.2855V55.4254C95.9529 54.7642 96.4908 54.2261 97.1517 54.2261H120.775C121.436 54.2261 121.974 54.7642 121.974 55.4254V65.2855C121.974 65.9467 121.44 66.4849 120.775 66.4849Z" stroke="black" stroke-width="3" stroke-miterlimit="10" stroke-linecap="round"/>
</svg>
