<svg width="283" height="152" viewBox="0 0 283 152" fill="none" xmlns="http://www.w3.org/2000/svg">
<path d="M282.277 32.7077C282.504 32.761 281.904 33.3873 281.711 33.7338C281.511 34.0736 281.171 34.1002 280.745 34.0469C280.318 33.9936 280.065 34.1335 279.666 34.2201C279.266 34.3068 279.439 34.7865 279.126 35.0463C278.813 35.2995 278.753 34.7665 278.646 34.48C278.533 34.1935 278.36 34.7065 278.306 35.0197C278.246 35.3328 277.966 35.5594 277.54 35.8459C277.114 36.1324 276.94 35.7926 276.774 35.5061C276.607 35.2196 276.461 35.1929 276.261 35.2196C276.061 35.2462 275.548 35.6193 275.381 35.6726C275.208 35.7259 275.355 35.3861 275.208 35.2196C275.068 35.0463 274.695 35.6726 274.695 36.0724C274.695 36.4722 274.895 36.6987 274.668 36.7853C274.442 36.8719 274.042 36.5321 273.762 36.3855C273.476 36.2456 273.562 36.0124 273.562 35.7059C273.562 35.3928 273.476 35.2196 273.163 35.2529C272.849 35.2795 272.736 35.8192 272.51 36.7587C272.283 37.6981 271.997 38.1778 271.63 38.5243C271.257 38.8641 271.117 38.6642 270.577 38.7775C270.038 38.8907 270.378 39.1772 270.098 39.2572C269.811 39.3438 269.245 39.5703 268.845 39.9968C268.445 40.4232 268.332 40.3699 268.246 40.11C268.159 39.8568 267.932 39.4304 267.759 39.3438C267.586 39.2572 266.48 40.3366 266.593 40.6497C266.706 40.9629 266.566 41.5892 266.367 41.6758C266.167 41.7624 265.94 41.7624 265.94 42.0422C265.94 42.3287 265.401 42.9217 265.087 43.1216C264.874 43.2549 264.414 44.0677 264.055 44.9472L263.568 44.3742L263.315 43.2682L262.802 42.6286L262.416 30.1425L262.249 29.7095L262.649 29.2097L263.308 29.956C263.308 29.956 263.542 29.5695 263.628 29.4829C263.715 29.3963 263.542 28.9299 263.542 28.9299C263.542 28.9299 263.715 28.7567 263.948 28.7567C264.181 28.7567 264.374 29.0299 264.374 29.0299L264.308 27.684L265.654 26.558L265.674 26.0249C265.674 26.0249 266.313 25.4053 266.353 25.3187C266.4 25.2321 266.16 24.8323 266.16 24.7457C266.16 24.6591 266.227 24.4059 266.267 24.2527C266.313 24.0994 266.393 23.9995 266.393 23.8929C266.393 23.7863 266.453 23.3598 266.413 22.9734C266.373 22.587 266.88 22.3738 267.053 22.0806C267.226 21.7808 267.566 20.0351 267.606 19.7819C267.646 19.5288 271.357 14.2852 271.357 14.2852L272.296 14.4984V15.8176L272.976 16.244L275.488 15.4312L275.528 14.9181H276.254L278.426 17.0036L278.34 25.3853C278.34 25.3853 278.593 25.6652 278.626 25.8384C278.653 26.0116 278.539 26.3248 278.34 26.6313C278.14 26.9444 278.593 26.9178 278.906 26.8844C279.219 26.8578 279.472 27.2842 279.819 27.5374C280.159 27.7906 280.219 27.564 280.219 27.564C280.219 27.564 280.305 28.1304 280.079 28.1637C279.852 28.1903 279.852 28.3369 280.165 28.6767C280.478 29.0165 279.992 29.3297 279.939 29.5029C279.885 29.6761 280.425 30.529 280.538 30.6422C280.652 30.7555 280.965 30.3891 281.165 30.3891C281.365 30.3891 281.991 30.9287 282.017 31.4951C282.017 31.4951 281.764 31.9481 281.678 32.2613C281.598 32.5611 282.051 32.6477 282.277 32.7077Z" fill="#9FBADB"/>
<path d="M258.592 51.8162V52.0494L258.545 55.5074L258.205 56.2536L258.199 56.2603C257.199 56.3869 256.16 56.5401 255.86 56.5934C255.26 56.7067 253.388 56.7667 252.982 56.82C252.595 56.8733 250.356 58.1658 249.87 58.5523H249.863L249.637 58.1858L249.577 57.5862L250.63 56.9332L250.19 56.4935L250.616 51.8096H258.592V51.8162Z" fill="#9FBADB"/>
<path d="M262.056 55.1344C261.729 55.3209 261.416 55.4608 261.137 55.4408C260.743 55.4075 261.31 54.7279 261.31 54.528C261.31 54.3282 261.563 53.9084 261.137 53.7618C260.71 53.6152 260.763 54.3015 260.71 54.5813C260.657 54.8678 260.91 54.9811 260.857 55.2943C260.797 55.6074 260.517 55.9472 260.317 55.9805C260.21 55.9938 259.224 56.1271 258.198 56.2604L258.538 55.5141L258.585 52.0562L260.537 52.1028L260.917 53.1022L261.67 53.482L261.909 54.3348L262.056 55.1344Z" fill="#9FBADB"/>
<path d="M267.673 53.9553C267.586 53.9887 266.4 54.2951 265.974 54.3551C265.541 54.4084 264.548 55.0614 264.408 55.0614C264.261 55.0614 264.461 54.0686 264.461 53.8687C264.461 53.6688 264.235 53.7555 263.982 53.8354C263.722 53.922 262.956 54.6016 262.469 54.8881C262.323 54.9747 262.189 55.0547 262.049 55.1213L261.903 54.3151L261.663 53.4623L260.91 53.0825L260.53 52.0831L258.578 52.0365V51.8033H250.603L250.643 51.4168L251.582 46.8928L255.587 46.9861L261.47 47.1993L261.896 46.8129L262.203 46.1732L263.135 46H263.675C263.662 46.0533 263.642 46.1066 263.635 46.1599C263.349 47.3525 263.975 47.3792 264.515 47.3259C265.054 47.2659 264.568 47.7523 264.341 47.9788C264.115 48.2054 263.608 48.4053 263.462 48.4586C263.315 48.5185 262.809 49.0915 262.662 49.5979C262.529 50.1043 263.315 50.1376 263.975 50.3441C264.628 50.544 264.368 51.4768 264.255 51.5368C264.142 51.5901 264.341 51.9898 264.595 52.1564C264.854 52.3296 265.134 53.1225 265.274 53.3224C265.421 53.5223 266.094 53.5756 266.3 53.5756C266.5 53.5756 267.18 53.2091 267.433 53.0692C267.693 52.9226 267.526 52.6428 267.466 52.3363C267.413 52.0165 267.04 51.7966 266.873 51.6234C266.7 51.4568 266.667 51.3968 266.873 51.2836C267.073 51.1703 267.639 51.9965 267.919 52.4229C268.212 52.8493 267.759 53.9287 267.673 53.9553Z" fill="#9FBADB"/>
<path d="M263.568 44.3541L264.055 44.9271C263.902 45.2935 263.775 45.6733 263.682 46.0131H263.142L262.203 46.1863L261.903 46.826L261.476 47.2124L255.593 46.9992L255.127 45.8932L255.68 45.4268L255.593 44.021L255.806 41.8489L256.446 40.5297L256.999 39.5502L257.172 38.6441L257.639 37.7047V36.4654L259.218 35.3594L259.944 34.5065L259.984 33.9535L259.597 33.2273L260.277 32.2878L260.19 31.7348L260.277 31.435L260.597 29.9225L261.363 29.5161C261.363 29.5161 261.876 29.9225 262.043 29.9225L262.236 29.676L262.402 30.1091L262.789 42.5951L263.302 43.2347L263.568 44.3541Z" fill="#9FBADB"/>
<path d="M260.284 31.4414L260.204 31.7412L260.284 32.2942L259.604 33.227L259.99 33.9533L259.944 34.5063L259.218 35.3591L257.645 36.4718V37.7044L257.172 38.6439L257.006 39.5367L256.453 40.5161L255.813 41.842L255.6 44.014L255.686 45.4199L255.127 45.8863L255.6 46.999L251.589 46.9123V41.2423L250.869 41.3689L251.122 39.1569L250.956 37.7444L251.802 35.1925L251.082 34.2531L251.209 32.9339L250.909 32.161L251.182 31.508L260.284 31.4414Z" fill="#9FBADB"/>
<path d="M244.739 55.9672L244.346 55.5741L243.667 55.3475L242.814 54.4414V53.5886L242.474 52.849L241.675 52.4492L241.501 51.7097L240.195 51.8229L219.847 51.5431V48.4915L223.925 46.4861L223.965 45.5066L223.199 44.6138L223.325 43.6744L222.599 42.1419L224.731 41.0759L234.319 40.9493L236.111 37.7112C236.111 37.7112 238.117 36.2654 238.71 35.839C239.309 35.4125 241.308 32.9806 241.608 32.8141C241.908 32.6408 243.953 31.5748 243.953 31.5748L251.169 31.5215L250.896 32.1744L251.196 32.9407L251.069 34.2599L251.795 35.1993L250.943 37.7578L251.116 39.1637L250.863 41.3824L251.589 41.2558V46.9258L250.649 51.4431L250.183 56.5135L250.623 56.9533L249.57 57.6062L249.623 58.2059L249.856 58.579C249.843 58.5923 249.837 58.599 249.823 58.6056C249.423 58.9454 248.83 59.5451 248.857 59.7716C248.884 59.9981 249.337 59.5717 249.483 59.3452C249.623 59.1187 250.023 58.8655 250.423 58.9454C250.823 59.032 252.015 58.8055 252.295 58.6056C252.575 58.4057 254.227 58.4657 254.627 58.4657C255.027 58.4657 255.566 58.0659 255.906 57.7528C256.246 57.4396 256.533 57.9793 256.506 58.1259C256.479 58.2658 256.026 58.0993 255.88 58.2125C255.74 58.3258 255.053 58.6656 255 58.8122C254.947 58.9521 255.453 58.8988 255.713 58.8655C255.966 58.8388 256.253 58.4391 256.619 58.4124C256.992 58.3857 256.932 58.0459 257.132 58.0992C257.332 58.1526 257.332 58.2725 257.645 58.2725C257.958 58.2725 258.072 57.9327 258.358 57.8194C258.638 57.7061 258.585 57.9593 258.531 58.0726C258.471 58.1859 257.086 58.8122 256.513 59.0654C255.946 59.3185 255.606 59.2919 255.32 59.3185C255.04 59.3452 254.84 59.745 254.327 59.745C253.814 59.745 253.927 60.0248 253.421 60.0248C252.908 60.0248 251.602 60.4512 251.002 60.6244C250.403 60.7977 250.489 61.1641 250.036 61.1375C249.583 61.1108 249.097 60.8576 248.93 60.8243C248.757 60.7977 248.331 61.1375 248.051 61.1375C247.764 61.1375 247.911 60.6244 247.851 60.4845C247.798 60.3446 247.678 60.8843 247.711 61.0842C247.731 61.2308 247.511 61.3573 247.251 61.5306C247.085 61.4106 246.998 61.0575 246.998 61.0575L247.338 60.3513L248.277 59.4118L248.304 58.5323L247.311 57.7061L246.405 56.9133L245.153 56.4002L244.739 55.9672Z" fill="#9FBADB"/>
<path d="M248.297 58.5058L248.27 59.3852L247.331 60.3247L246.991 61.031C246.991 61.031 247.078 61.3907 247.244 61.504C247.151 61.564 247.051 61.6306 246.965 61.7106C246.625 61.9971 247.338 61.8838 247.931 62.0504C248.53 62.2236 248.131 62.3902 248.131 63.0165C248.131 63.6428 247.904 64.4356 247.731 64.6089C247.558 64.7821 247.478 64.982 247.418 65.8015C247.364 66.6277 246.738 67.4472 246.392 67.6471C246.052 67.847 246.365 68.0735 246.505 68.2134C246.645 68.3533 245.592 69.2395 245.059 69.6592C244.519 70.0857 244.379 70.7386 244.346 71.0784C244.319 71.4182 243.607 71.7047 243.407 71.6181C243.207 71.5315 243.58 71.1051 243.633 70.8519C243.693 70.5987 243.58 70.1989 243.407 70.0257C243.233 69.8525 242.58 69.6526 242.267 69.5993C241.954 69.5393 240.935 68.6865 240.622 68.2601C240.308 67.8336 240.648 67.6937 240.648 67.3806C240.648 67.2073 240.595 67.1007 240.515 67.0408L240.908 66.2346L241.101 66.2945L244.113 63.4562L243.373 62.6034L242.807 61.3508L242.181 61.011L242.294 59.8783L242.747 59.5918L242.52 58.3992L243.66 57.2598L244.226 56.2937L244.733 55.9473L245.139 56.3537L246.392 56.8667L247.298 57.6596L248.297 58.5058Z" fill="#9FBADB"/>
<path d="M240.915 66.2546L239.915 65.9215L239.229 66.4878H227.756H221.273H216.163V60.7179V49.7043L218.221 49.2979L219.854 48.4917V51.5432L240.195 51.8231L241.501 51.7165L241.674 52.4494L242.474 52.8491L242.814 53.5887V54.4415L243.666 55.3477L244.346 55.5742L244.739 55.9673L244.233 56.3138L243.666 57.2799L242.527 58.4192L242.754 59.6119L242.301 59.8984L242.187 61.031L242.814 61.3708L243.38 62.6234L244.12 63.4763L241.108 66.3146L240.915 66.2546Z" fill="#9FBADB"/>
<path d="M242.614 73.077C242.727 73.4501 242.754 74.0031 242.727 74.4962H239.796L239.229 66.4809L239.909 65.9146L240.908 66.2477L240.515 67.0539C240.455 67.0072 240.382 66.9939 240.309 66.9939C240.135 66.9939 240.255 68.2998 240.449 68.5597C240.648 68.8129 241.101 69.3525 241.101 69.5524C241.101 69.7523 241.475 71.1981 241.641 71.5712C241.821 71.9444 242.387 72.3108 242.614 73.077Z" fill="#9FBADB"/>
<path d="M241.335 77.4678C241.242 77.9208 241.495 77.8142 241.309 78.0208C241.109 78.2473 239.776 79.8397 239.543 80.2395C239.316 80.6393 238.917 81.5454 238.943 81.9718C238.97 82.3982 238.663 82.8513 238.49 82.8246C238.317 82.798 238.177 81.7719 238.177 81.5454C238.177 81.3189 238.35 80.9457 238.517 80.5526C238.69 80.1529 238.69 79.953 238.69 79.6998C238.69 79.4466 239.256 78.8736 239.57 78.5938C239.829 78.3539 239.816 77.9941 239.663 77.7543C240.123 77.6677 240.775 77.5544 241.335 77.4678Z" fill="#9FBADB"/>
<path d="M239.296 90.1273C239.569 90.1939 239.656 91.0667 239.656 91.3665C239.656 91.6664 239.296 92.1128 239.083 92.1128C238.869 92.1128 238.057 93.1388 237.91 93.392C237.763 93.6452 237.424 93.6719 237.057 93.6252C236.697 93.5852 236.244 93.0522 236.164 93.0522C236.078 93.0522 235.805 93.352 235.738 93.2654C235.671 93.1788 235.825 92.7724 235.805 92.5858C235.785 92.3926 235.465 92.5658 235.292 92.6458C235.118 92.7324 235.465 93.1588 235.332 93.2854C235.205 93.412 234.732 93.1588 234.459 93.0922C234.186 93.0256 233.692 92.7724 233.519 92.7524C233.346 92.7324 233.946 93.2854 234.179 93.392C234.412 93.4986 235.691 93.7118 235.865 93.7518C236.038 93.7918 235.845 94.2382 235.805 94.3714C235.758 94.498 235.098 94.6446 235.038 94.7512C234.972 94.8578 235.658 94.6913 235.718 94.8378C235.778 94.9911 234.525 95.8373 234.392 95.8639C234.265 95.8839 233.792 95.4841 233.413 94.9911C233.026 94.498 233.073 95.0977 233.073 95.0977C233.073 95.0977 233.433 95.6973 234.139 95.9705C234.845 96.2503 235.225 95.7173 235.485 95.7173C235.738 95.7173 235.951 95.3109 236.124 95.3309C236.298 95.3509 236.084 95.7173 236.404 95.8639C236.724 96.0171 236.617 96.2903 236.464 96.3569C236.311 96.4236 235.911 96.85 235.911 97.1898C235.911 97.5296 235.485 97.4896 235.232 97.2964C234.978 97.1032 233.932 97.4696 233.546 97.4696C233.166 97.4696 232.76 97.7428 232.653 97.896C232.546 98.0493 231.734 98.469 230.901 98.9621C230.068 99.4485 229.368 100.541 229.328 100.881C229.282 101.221 228.902 101.181 228.882 101.287C228.862 101.394 228.649 102.034 228.436 102.18C228.282 102.287 227.023 102.32 225.917 102.573L220.487 96.85H214.744L214.857 95.5441L213.491 94.8312C213.491 94.8312 208.461 94.4048 207.868 94.4048C207.268 94.4048 205.995 95.0044 205.396 95.0844C205.103 95.1243 204.45 95.4308 203.85 95.7306L203.77 95.6773H197.4L197.807 94.2848L198.946 94.2315L199.059 92.9256L199.572 92.8723L199.859 92.5325L201.678 92.4792L203.21 91.06L203.89 91.2333L204.403 90.9534L204.343 90.1606H205.023L205.762 89.3677L206.102 89.934L206.895 89.5942L207.348 88.9146C207.348 88.9146 208.374 88.9679 208.88 88.9146C209.393 88.8547 209.507 87.8353 209.507 87.8353L210.186 87.662L210.013 87.3222L210.466 86.5294L210.493 86.1562C222.046 86.2762 233.599 86.3961 238.29 86.4494C238.21 86.4961 238.157 86.616 238.157 86.7759C238.157 87.1157 238.863 87.9485 239.116 88.4616C239.369 88.9746 239.389 89.1212 239.263 89.2744C239.136 89.421 238.903 88.9546 238.816 88.788C238.73 88.6148 238.67 88.7014 238.39 88.7014C238.117 88.7014 238.01 88.4482 237.79 88.1884C237.577 87.9352 237.703 88.335 237.857 88.5082C238.01 88.6814 237.623 88.9546 237.364 88.9546C237.11 88.9546 237.277 89.1878 237.004 89.1478C236.731 89.1079 236.238 89.3211 236.044 89.4876C235.851 89.6609 235.405 89.4876 235.085 89.3144C234.765 89.1412 234.765 89.3144 234.785 89.441C234.805 89.5676 234.745 90.014 234.699 90.1672C234.659 90.3205 236.811 89.994 237.13 89.914C237.45 89.8274 237.79 89.7608 238.003 89.7875C238.216 89.8074 238.196 90.0406 238.176 90.1739C238.157 90.3005 237.983 90.7935 237.983 90.9401C237.983 91.0934 238.023 91.6397 238.09 91.6863C238.15 91.7263 238.216 91.3865 238.216 91.1733C238.216 90.9601 238.47 90.3871 238.576 90.1739C238.703 89.914 239.016 90.0606 239.296 90.1273Z" fill="#9FBADB"/>
<path d="M239.043 87.0156C238.996 87.1422 238.723 86.8024 238.57 86.5292C238.543 86.4759 238.51 86.4359 238.477 86.416C238.47 86.4093 238.457 86.4026 238.45 86.4026C238.443 86.396 238.437 86.396 238.43 86.396C238.417 86.3893 238.397 86.3893 238.383 86.3893C238.37 86.3893 238.357 86.396 238.343 86.396C238.337 86.4026 238.323 86.4026 238.317 86.4093C238.31 86.4093 238.303 86.416 238.297 86.4226C233.606 86.376 222.053 86.2494 210.5 86.1295C207.255 86.0961 204.017 86.0628 200.925 86.0295L203.544 85.25L203.657 84.4571L204.736 84.0573L204.676 83.431H205.356L205.469 82.6382L206.948 82.1851L208.767 80.6527L209.507 81.6188C209.507 81.6188 210.3 82.4116 210.533 82.4116C210.76 82.4116 211.559 82.2384 211.559 82.0119C211.559 81.7853 212.072 81.5588 212.072 81.5588L212.865 82.1251L213.605 81.8386L214.284 81.6654L214.397 80.9258L215.137 81.0391L215.93 80.5261L216.443 80.9791L217.296 80.3528L217.069 79.7865L217.522 79.4467L217.182 78.7671L218.035 78.1408L219.115 76.8349L219.061 76.0953L219.914 75.3558L220.254 73.7634L220.767 73.8167L221.28 74.4963L222.073 74.7828L223.552 72.2842L224.345 72.624L224.971 71.6579L225.764 71.2582L226.444 70.2321L226.784 69.0994L226.957 68.3599L229.175 70.2321L229.915 69.0994L229.948 69.1128L231.108 69.5525L230.828 70.4053L233.779 71.598L232.987 72.6773L232.473 73.4436C232.407 73.4769 232.34 73.5102 232.294 73.5235C232.167 73.5701 231.887 74.1431 231.847 74.6762C231.807 75.2092 232.147 75.3158 232.807 75.1026C233.466 74.8894 233.406 75.7222 233.426 75.8022C233.446 75.8888 234.192 76.2686 234.366 76.4018C234.539 76.5284 235.045 76.4884 235.305 76.4884C235.558 76.4884 235.432 76.8949 236.391 77.5745C237.351 78.2541 237.031 78.3207 237.031 78.3207C237.031 78.3207 236.798 78.6805 236.838 79.0003C236.878 79.3201 236.791 79.3601 236.558 79.5733C236.325 79.7865 236.278 79.4867 236.005 79.4867C235.732 79.4867 235.752 79.4001 235.618 79.2535C235.485 79.1069 234.466 77.9143 234.299 77.761C234.126 77.6078 233.513 76.715 233.446 76.8016C233.38 76.8882 233.766 77.4412 234.279 78.0342C234.792 78.6338 235.345 79.3801 235.305 79.5267C235.259 79.6732 235.685 79.8465 236.178 79.9531C236.671 80.0597 236.778 80.1663 236.564 80.2262C236.351 80.2929 236.564 80.4594 236.844 80.6327C237.117 80.8059 237.057 81.2523 236.971 81.5055C236.884 81.7587 236.651 81.3523 236.544 81.2057C236.438 81.0591 236.078 80.9925 236.011 81.0991C235.945 81.2057 236.418 81.8053 236.351 81.9319C236.285 82.0585 236.418 82.6315 236.711 82.8247C237.011 83.0179 236.991 83.2711 236.944 83.3977C236.904 83.5243 236.345 83.6109 236.091 83.5243C235.838 83.4377 235.112 82.3717 234.939 82.1584C234.765 81.9452 234.192 82.0718 234.106 82.2184C234.019 82.365 234.805 82.4982 234.939 82.6648C235.065 82.838 234.999 83.2645 235.219 83.3644C235.432 83.471 235.838 84.004 235.898 84.1306C235.958 84.2572 236.345 84.3238 236.498 84.3638C236.644 84.4038 236.711 84.2106 236.731 84.024C236.751 83.8308 237.904 83.9374 238.29 83.9374C238.67 83.9374 238.503 84.8968 238.483 85.2766C238.463 85.6631 238.55 86.0628 238.89 86.3227C238.91 86.336 238.93 86.356 238.95 86.3693C238.956 86.376 238.956 86.376 238.963 86.3826C239.196 86.6558 239.076 86.8957 239.043 87.0156Z" fill="#9FBADB"/>
<path d="M229.455 67.7402L229.941 69.1194L229.908 69.1061L229.168 70.2387L226.95 68.3665L226.776 69.1061L226.437 70.2387L225.757 71.2648L224.964 71.6646L224.338 72.6307L223.545 72.2909L222.066 74.7894L221.273 74.5029L220.76 73.8233L220.247 73.77L219.907 75.3624L219.054 76.102L219.108 76.8415L218.028 78.1474L217.175 78.7737L217.515 79.4533L217.062 79.7931L217.289 80.3595L216.436 80.9858L215.923 80.5327L215.13 81.0457L214.39 80.9325L214.277 81.672L213.597 81.8453L212.858 82.1318L212.065 81.5654C212.065 81.5654 211.552 81.792 211.552 82.0185C211.552 82.245 210.759 82.4183 210.526 82.4183C210.299 82.4183 209.5 81.6254 209.5 81.6254L208.76 80.6593L208.021 79.6932L206.768 78.3273L206.595 77.5345L205.802 76.1686L206.088 75.2624L205.989 74.816L207.055 74.5762L207.394 73.8366L207.907 73.7233V72.6973L208.934 70.7051L209.387 71.1582L209.56 71.7245L210.013 71.6113L209.84 70.7584L210.119 69.9655L211.765 68.4331L211.992 68.8862L212.731 68.8329L213.757 67.467L214.21 67.4137C214.21 67.4137 214.497 65.768 214.663 65.255C214.837 64.7419 215.743 62.8097 215.743 62.8097L215.516 60.9908L216.143 60.731V66.5009H221.26V69.739L222.852 68.8862L222.965 68.0933L223.645 68.4931L224.724 67.1872L225.404 67.7002L226.31 67.8734L226.257 67.1339L227.05 67.2471L227.729 66.8474L228.522 67.4737L229.455 67.7402Z" fill="#9FBADB"/>
<path d="M239.802 74.5031L239.236 66.4878H227.756H221.28V69.7259L222.872 68.8731L222.985 68.0802L223.665 68.48L224.744 67.1741L225.424 67.6871L226.33 67.8603L226.277 67.1208L227.07 67.234L227.749 66.8343L228.542 67.4606L229.455 67.7471L229.941 69.1196L231.101 69.5593L230.821 70.4122L233.772 71.6048L232.98 72.6842L232.467 73.4504C232.58 73.3971 232.686 73.3571 232.646 73.4704C232.58 73.6436 232.2 73.8968 232.173 74.1766C232.153 74.4498 232.087 74.9828 232.22 75.0295C232.347 75.0694 232.793 74.8762 232.966 74.7296C233.14 74.5831 233.353 74.5364 233.453 74.7963C233.559 75.0494 233.732 75.5425 234.285 75.7757C234.839 76.0089 235.312 76.1355 235.458 76.2621C235.605 76.3887 235.671 76.4753 235.991 76.4753C236.311 76.4753 236.164 76.8817 236.331 76.8817C236.504 76.8817 236.671 76.6485 236.631 76.4553C236.591 76.2621 236.418 75.7757 235.905 75.3892C235.392 75.0028 234.925 74.4498 234.905 74.3432C234.885 74.2366 235.032 73.8302 235.032 73.9568C235.032 74.0833 234.985 74.3832 235.245 74.5564C235.498 74.7296 235.905 75.196 235.991 75.196C236.078 75.196 236.378 75.3026 236.331 75.0894C236.291 74.8762 235.731 74.0234 235.731 73.8501C235.731 73.6769 235.678 73.024 235.645 72.8241C235.618 72.6242 235.818 72.0312 235.958 71.858C236.051 71.7514 236.144 71.5582 236.218 71.3849C236.258 71.285 236.291 71.185 236.298 71.1251C236.324 70.9518 235.785 70.8119 235.871 70.5587C235.958 70.3056 235.531 69.9591 235.645 69.8458C235.758 69.7326 236.044 69.8991 236.211 69.7326C236.384 69.5593 236.577 68.8264 236.751 68.9663C236.924 69.1063 237.177 68.993 237.35 68.8797C237.524 68.7665 237.95 68.4533 237.863 68.2001C237.777 67.9469 238.203 67.4073 238.316 67.6604C238.43 67.9136 238.63 68.1735 238.29 68.5133C237.95 68.8531 237.464 69.1929 237.264 69.6193C237.064 70.0457 236.751 70.3589 236.951 70.4122C237.15 70.4721 237.577 70.4988 237.377 70.8119C237.177 71.1251 237.004 70.8652 236.811 70.9852C236.691 71.0518 236.531 71.265 236.478 71.4316C236.444 71.5315 236.451 71.6181 236.524 71.6381C236.724 71.6914 237.204 71.5248 237.23 71.6648C237.257 71.8047 236.831 72.2311 236.777 72.3177C236.717 72.4043 237.004 72.9174 237.057 73.0839C237.117 73.2572 237.37 73.5636 237.17 73.8501C236.971 74.1366 236.604 74.1899 236.691 74.4764C236.777 74.7563 236.777 74.7896 237.17 75.0428C237.57 75.296 237.544 75.6091 237.77 75.6091C237.997 75.6091 238.143 75.4359 238.143 75.3559C238.143 75.276 238.17 75.4692 238.343 75.6691C238.516 75.869 238.716 75.809 238.716 76.1488C238.716 76.4886 238.743 76.402 238.916 76.5752C239.089 76.7485 239.029 76.8284 239.003 77.0016C238.976 77.1749 239.089 77.3148 239.089 77.3148C239.089 77.3148 239.263 77.488 239.143 77.6013C239.129 77.6146 239.123 77.6213 239.123 77.6279C239.143 77.6213 239.383 77.448 239.569 77.6346C239.602 77.6679 239.636 77.7146 239.662 77.7612C240.115 77.6812 240.768 77.568 241.328 77.4814C241.335 77.4414 241.348 77.4014 241.361 77.3548C241.535 76.7551 242.267 75.8223 242.501 75.6224C242.621 75.5225 242.707 75.0494 242.727 74.5164H239.802V74.5031Z" fill="#9FBADB"/>
<path d="M218.581 143.103C218.668 143.509 218.028 147.154 218.008 147.407C217.988 147.66 217.116 149.539 217.196 149.965C217.282 150.392 216.683 150.885 216.516 150.945C216.343 151.005 215.916 151.052 215.77 151.225C215.617 151.398 214.324 151.438 213.724 151.371C213.125 151.311 213.171 151.178 213.045 151.072C212.918 150.965 213.065 150.499 213.278 150.519C213.491 150.538 213.471 150.538 213.491 150.752C213.511 150.965 213.851 151.072 214.171 150.925C214.491 150.778 213.784 150.545 213.618 150.499C213.444 150.459 213.638 150.179 213.724 150.052C213.811 149.926 213.358 149.946 213.151 149.926C212.938 149.906 213.025 149.586 212.918 149.373C212.812 149.159 212.199 148.113 212.025 147.947C211.852 147.773 211.026 147.554 210.426 147.247C209.827 146.934 209.827 145.828 209.713 145.315C209.6 144.802 208.834 143.976 208.434 143.782C208.034 143.583 208.234 143.129 208.521 142.843C208.807 142.556 208.634 141.737 208.607 141.564C208.581 141.391 208.154 141.564 208.068 141.817C207.981 142.07 208.121 142.47 207.814 142.47C207.501 142.47 206.822 141.217 206.675 140.877C206.535 140.538 206.109 139.512 206.075 139.345C206.049 139.172 205.789 138.859 205.622 138.665C205.449 138.466 205.876 138.352 206.109 138.266C206.335 138.179 206.335 137.753 206.675 137.473C207.015 137.186 206.962 136.707 206.848 136.507C206.735 136.307 206.622 136.986 206.449 136.986C206.275 136.986 206.222 136.673 206.222 136.36C206.222 136.047 206.022 135.794 205.769 135.76C205.516 135.734 205.742 136.64 205.942 137.013C206.142 137.386 205.456 137.466 205.176 137.413C204.889 137.36 204.949 136.533 204.863 136.28C204.776 136.027 205.176 134.688 205.602 133.269C206.029 131.849 205.003 129.717 204.89 129.517C204.776 129.318 203.897 129.491 203.724 129.291C203.55 129.091 203.324 128.725 203.21 128.378C203.097 128.038 202.184 127.585 202.104 127.472C202.018 127.359 202.018 126.646 201.991 126.566C201.965 126.479 201.478 126.279 201.278 126.166C201.078 126.053 200.599 125 200.172 124.834C199.746 124.66 199.379 124.407 199.233 124.234C199.093 124.061 198.267 124.061 198.153 124.061C198.04 124.061 197.441 124.434 197.361 124.487C197.274 124.54 197.534 124.827 197.534 125.053C197.534 125.28 197.107 125.28 196.654 125.307C196.201 125.333 195.122 126.02 194.722 126.133C194.322 126.246 194.469 126.306 194.182 126.306C193.896 126.306 193.27 126.559 192.903 126.559C192.53 126.559 192.677 126.333 192.677 126.02C192.677 125.706 192.423 125.453 192.364 125.227C192.31 125 190.971 124.061 190.571 123.921C190.171 123.781 190.032 123.548 189.578 123.321C189.125 123.095 187.933 122.668 187.533 122.608C187.133 122.555 186.967 122.608 186.993 122.468C187.02 122.322 187.62 122.442 188.019 122.442C188.419 122.442 188.619 122.528 188.846 122.468C189.072 122.408 188.532 122.069 188.306 122.015C188.079 121.962 186.86 122.042 186.687 122.268C186.514 122.495 185.468 122.495 184.921 122.495C184.382 122.495 184.215 122.721 184.242 122.522C184.268 122.322 184.615 122.095 184.528 121.842C184.441 121.589 184.155 121.755 183.848 121.755C183.535 121.755 183.595 122.235 183.449 122.468C183.309 122.695 182.483 123.035 182.143 123.035C182.136 123.035 182.136 123.035 182.129 123.035L182.649 122.095L182.136 121.842L182.389 120.989L181.363 119.883V119.03H194.082L194.749 120.736L211.779 121.675C211.985 122.715 212.465 124.94 212.478 125.293C212.498 125.72 213.265 128.152 213.758 128.978C214.251 129.811 214.757 131.13 214.757 131.323C214.757 131.516 214.817 132.562 214.817 132.816C214.817 133.069 215.183 133.775 215.183 133.775C215.183 133.775 215.203 132.856 215.137 132.622C215.077 132.389 215.01 132.109 215.01 131.963C215.01 131.809 215.417 132.089 215.863 132.342C216.309 132.596 216.096 133.262 215.99 133.602C215.883 133.942 215.67 133.602 215.67 133.602C215.67 133.602 215.843 133.215 215.863 132.902C215.883 132.582 215.583 133.282 215.523 133.389C215.457 133.495 215.437 134.201 215.543 134.708C215.65 135.221 216.803 137.819 216.929 138.159C217.056 138.499 217.609 139.905 217.589 140.185C217.569 140.464 217.822 140.504 218.055 140.718C218.282 140.931 218.502 142.703 218.581 143.103Z" fill="#9FBADB"/>
<path d="M216.163 49.7041V60.7176L215.537 60.9775L215.763 62.7964C215.763 62.7964 214.857 64.7286 214.684 65.2417C214.51 65.7547 214.231 67.4004 214.231 67.4004L213.778 67.4537L212.751 68.8196L212.012 68.8729L211.785 68.4198L210.14 69.9522L209.86 70.7451L210.033 71.5979L209.58 71.7112L209.407 71.1449L208.954 70.6918L207.928 72.684V73.71L207.415 73.8233L207.075 74.5629L206.009 74.8027L205.882 74.2231L205.089 73.8233L204.463 72.6906L202.871 73.5968L201.791 73.0837L200.885 73.5968L200.599 73.0837L199.972 72.684L197.98 72.2842L197.467 71.0916L196.561 70.9183L195.648 70.1255L195.168 70.6452V53.7284H201.905L203.524 52.1693C203.577 52.5691 203.61 52.9022 203.61 52.9022L205.482 53.9816L207.015 53.9283L212.638 50.4037L216.163 49.7041Z" fill="#9FBADB"/>
<path d="M220.48 96.83H214.737L214.85 95.5241L213.484 94.8112C213.484 94.8112 208.454 94.3848 207.861 94.3848C207.261 94.3848 205.989 94.9844 205.389 95.0644C205.096 95.1043 204.443 95.4108 203.843 95.7106C203.217 96.0238 202.657 96.337 202.657 96.337C202.657 96.337 202.231 97.8694 202.744 97.956C203.257 98.0426 204.45 98.8088 204.79 99.3219C205.129 99.8349 205.896 102.047 206.662 102.134C207.428 102.22 207.941 104.006 208.454 104.432C208.967 104.859 209.647 106.224 209.647 106.224L211.266 107.331L211.779 109.549L213.058 110.828L213.484 112.787C213.484 112.787 213.831 112.727 214.371 112.734C214.251 112.494 214.184 112.274 214.271 112.234C214.397 112.174 214.744 112.254 214.844 112.361C214.897 112.414 215.017 112.388 215.13 112.334L214.89 111.761C214.784 111.695 214.697 111.635 214.69 111.595C214.684 111.555 214.65 111.361 214.63 111.142C214.59 110.788 214.564 110.362 214.67 110.442C214.844 110.569 215.01 111.122 215.27 111.188C215.523 111.255 215.696 111.721 215.93 111.661C216.163 111.595 216.569 111.255 216.396 111.002C216.223 110.749 215.35 110.615 215.503 110.362C215.65 110.109 216.163 110.022 216.309 110.215C216.463 110.409 216.929 110.622 217.309 110.342C217.695 110.069 218.861 109.682 218.928 109.556C218.995 109.429 219.161 108.983 219.741 108.743C220.314 108.51 220.72 107.357 221.167 107.337C221.613 107.317 221.613 107.51 221.826 107.251C222.039 106.997 222.612 106.758 222.639 106.571C222.659 106.378 222.699 105.758 222.812 105.418C222.919 105.079 223.625 103.626 224.731 102.966C225.044 102.78 225.457 102.647 225.897 102.547L220.48 96.83Z" fill="#9FBADB"/>
<path d="M197.4 95.6709H203.77L203.85 95.7242C203.223 96.0374 202.664 96.3505 202.664 96.3505C202.664 96.3505 202.237 97.8829 202.75 97.9696C203.263 98.0562 204.456 98.8224 204.796 99.3354C205.136 99.8485 205.902 102.06 206.668 102.147C207.434 102.234 207.947 104.019 208.46 104.446C208.973 104.872 209.653 106.238 209.653 106.238L211.272 107.344L211.785 109.563L213.064 110.842L213.491 112.801C213.491 112.801 213.837 112.741 214.377 112.748C214.437 112.874 214.517 113.007 214.597 113.121C214.83 113.46 214.277 113.8 213.997 113.907C213.771 113.994 213.791 113.914 213.797 113.88C213.751 113.967 213.524 114.42 213.504 114.593C213.484 114.786 212.971 115 212.885 115C212.798 115 212.545 115.573 212.631 115.806C212.718 116.039 212.865 116.192 212.758 116.339C212.651 116.485 212.225 117.678 212.052 117.998C211.878 118.318 211.838 118.404 211.798 118.617C211.758 118.831 211.245 118.771 211.159 118.917C211.072 119.064 211.432 119.364 211.352 119.45C211.265 119.537 211.605 120.73 211.672 121.196C211.685 121.276 211.712 121.449 211.758 121.669L194.728 120.73L194.062 119.024L193.529 117.658L193.956 115.699L193.702 113.827L194.469 110.589L193.276 108.37L191.317 95.6709H197.4Z" fill="#9FBADB"/>
<path d="M171.229 89.6273L171.156 89.3874L171.609 88.9343L171.156 88.1948H171.949L171.669 87.855L172.122 87.5685L172.295 86.7756L179.398 86.7223C179.398 86.7223 179.285 86.096 179.171 85.8695C179.058 85.6429 178.945 85.3564 178.945 85.3564C178.945 85.3564 180.424 85.8095 180.591 85.8095C180.657 85.8095 189.805 85.9028 200.932 86.0227C204.023 86.056 207.268 86.0893 210.506 86.1227L210.48 86.4958L210.027 87.2886L210.2 87.6285L209.52 87.8017C209.52 87.8017 209.407 88.8277 208.894 88.881C208.381 88.9343 207.362 88.881 207.362 88.881L206.908 89.5606L206.116 89.9004L205.776 89.3341L205.036 90.127H204.357L204.417 90.9199L203.904 91.1997L203.224 91.0265L201.692 92.4456L199.873 92.4989L199.586 92.8387L199.073 92.892L198.96 94.1979L197.82 94.2512L197.414 95.6438H191.338L178.552 95.5571L168.378 95.5038L169.344 94.9908L169.057 94.2512L169.284 93.7382L168.884 93.2851C168.884 93.2851 169.51 92.7188 169.397 92.4923C169.284 92.2657 170.137 92.379 170.137 92.379L169.797 91.8127L170.423 91.7594L170.023 91.2463L171.103 90.7333L170.703 90.3335L171.383 90.107L171.229 89.6273Z" fill="#9FBADB"/>
<path d="M206.002 74.7961L206.102 75.2425L205.815 76.1486L206.608 77.5145L206.781 78.3073L208.034 79.6732L208.774 80.6393L206.955 82.1717L205.475 82.6248L205.362 83.4177H204.683L204.743 84.044L203.663 84.4437L203.55 85.2366L200.931 86.0162C189.805 85.9029 180.657 85.8029 180.59 85.8029C180.417 85.8029 178.944 85.3499 178.944 85.3499C178.944 85.3499 179.058 85.6364 179.171 85.8629C179.284 86.0894 179.397 86.7157 179.397 86.7157L172.295 86.769L172.808 86.1427L173.661 86.0828L174.174 84.8901L173.548 84.1506H174.114L173.827 83.5243L174.001 82.7847L174.853 82.2184L177.239 83.0712L177.299 82.3916L176.846 81.4788L177.299 81.079L179.171 80.6793L178.605 79.4267L179.457 78.6804L179.517 78.6271L180.144 78.4539L180.03 78.0008H180.937L181.45 78.3406L182.242 77.8276L184.115 78.5072L184.454 77.9409L185.587 77.4278L186.213 78.334L186.78 77.7077L186.953 76.8015L187.633 76.2352L188.372 77.1413C188.372 77.1413 188.998 77.7077 189.398 77.3679C189.798 77.0281 190.191 75.7222 190.191 75.7222L190.931 75.4357L191.211 74.5295L192.063 74.0765L192.123 72.7706L193.089 72.7173L193.489 73.0571L194.229 72.4907L195.308 72.3175L195.255 71.8644L194.855 70.9583L195.168 70.6252L195.648 70.1055L196.561 70.8983L197.467 71.0716L197.98 72.2642L199.972 72.664L200.598 73.0637L200.885 73.5768L201.791 73.0637L202.87 73.5768L204.463 72.6706L205.089 73.8033L205.882 74.2031L206.002 74.7961Z" fill="#9FBADB"/>
<path d="M169.93 15.358L172.108 10.4409L173.028 10.4609L177.685 8.01562L194.849 18.3029L195.362 20.1219L196.268 21.3145L197.747 21.088L198.426 20.8614V22.9669L199.393 24.2728L199.959 23.7597L201.325 23.873L201.891 24.6659L201.038 25.8585L206.268 29.2099L208.314 41.2562C208.314 41.2562 208.201 41.9957 207.634 43.3616C207.068 44.7275 206.328 47.9656 206.328 47.9656L205.136 49.0982C205.136 49.0982 203.943 49.8378 203.603 49.9511C203.264 50.0643 203.264 50.6906 203.377 51.257C203.423 51.5102 203.477 51.8566 203.517 52.1698L201.898 53.7289H195.162V53.2625H183.555C183.682 52.976 183.808 52.6895 183.908 52.4496C184.135 51.9366 184.328 50.5041 184.355 48.6119C184.368 47.6791 184.335 46.6397 184.255 45.5403C184.002 42.2156 184.081 39.4039 185.194 34.9732C186.3 30.5424 188.092 29.9428 188.092 29.9428L185.96 28.7502H183.828L182.975 29.8562L182.376 31.0488H181.523L180.923 29.9428L181.436 29.09L180.33 28.9167L180.584 26.6181L178.791 26.0184L179.131 25.079L176.406 24.7392L175.04 23.7997L169.157 22.0074L168.904 21.1546L167.538 20.7282L169.93 15.358Z" fill="#9FBADB"/>
<path d="M183.555 53.262H195.162V53.7284V70.6385L194.849 70.9717L195.249 71.8778L195.302 72.3309L194.222 72.5041L193.483 73.0704L193.083 72.7306L192.117 72.7839L192.057 74.0898L191.211 74.5562L190.931 75.4624L190.192 75.7489C190.192 75.7489 189.792 77.0548 189.399 77.3946C188.999 77.7344 188.373 77.168 188.373 77.168L187.633 76.2619L186.953 76.8282L186.78 77.7344L186.214 78.3607L185.588 77.4545L184.455 77.9676L184.115 78.5339L182.243 77.8543L181.45 78.3673L180.937 78.0275H180.031L180.144 78.4806L179.518 78.6538L179.458 78.7071L179.018 77.9476L179.531 77.9876L179.618 77.6877L179.404 77.0881L180.044 76.3219L179.658 75.6423L180.211 75.5157L180.81 74.4896L181.363 73.9366L181.49 73.0838H182.003V71.7179L181.703 70.9917L181.15 70.392L181.663 69.7924L181.41 69.1927L181.923 68.9795V53.2554H183.555V53.262Z" fill="#9FBADB"/>
<path d="M193.29 108.37L194.482 110.589L193.716 113.827L193.969 115.699L193.543 117.658L194.076 119.024H181.357V119.877L182.383 120.983L182.129 121.835L182.642 122.089L182.123 123.028C181.776 123.035 181.023 123.315 180.63 123.255C180.231 123.201 180.29 122.575 180.091 122.462C179.891 122.348 180.037 121.835 180.037 121.662C180.037 121.489 179.977 120.783 179.584 120.809C179.184 120.836 179.244 121.183 179.271 121.662C179.298 122.142 178.931 122.802 178.705 122.828C178.478 122.855 178.338 122.575 177.999 122.548C177.899 122.542 177.792 122.555 177.672 122.588L177.459 116.132C177.459 116.132 177.286 112.807 177.799 108.377C178.312 103.946 179.164 96.5303 179.164 96.5303L178.565 95.5908L191.351 95.6774L193.29 108.37Z" fill="#9FBADB"/>
<path d="M163.626 41.7089V39.4102L162.434 38.3842L160.642 37.1915L159.962 35.9123L158.683 35.2327L158.256 34.4664H157.317L156.377 33.2738L156.124 31.315L156.377 29.9491L156.89 28.5832L156.377 27.7304L155.698 27.4772L155.784 26.3712L156.637 25.4317L158.256 24.5789L158.769 19.8084L160.562 19.2953L166.611 15.291L169.929 15.3643L167.544 20.7478L168.91 21.1742L169.163 22.0271L175.046 23.8194L176.412 24.7588L179.137 25.0986L178.798 26.0381L180.59 26.6377L180.337 28.9364L181.443 29.1096L180.93 29.9624L181.529 31.0684H182.382L182.982 29.8758L183.835 28.7698H185.967L188.099 29.9624C188.099 29.9624 186.306 30.5621 185.2 34.9928C184.094 39.4235 184.008 42.2352 184.261 45.5599C184.348 46.6593 184.374 47.6987 184.361 48.6315H166.818L166.278 47.692L164.486 46.4994L163.886 44.2807L164.566 43.5145L163.626 42.575V41.7089Z" fill="#9FBADB"/>
<path d="M166.812 48.6182H184.355C184.328 50.5104 184.142 51.9429 183.908 52.4559C183.802 52.6891 183.675 52.9756 183.555 53.2688H181.909V68.9929L181.396 69.2061L181.65 69.8057L181.137 70.4054L181.69 71.0051L181.989 71.7313V73.0972H181.476L181.35 73.95L180.797 74.503L180.197 75.5291L179.644 75.6557L180.031 76.3353L179.391 77.1015L179.604 77.7011L179.518 78.001L179.005 77.961L179.444 78.7205L178.591 79.4668L179.158 80.7194L177.286 81.1191L176.832 81.5189L177.286 82.4317L177.226 83.1113L174.84 82.2585L173.987 82.8248L173.814 83.5644L173.361 83.1646H172.795C172.795 83.1646 172.395 82.1385 172.228 82.1385C172.062 82.1385 172.628 81.399 172.628 81.399C172.628 81.399 172.402 80.3196 172.115 80.2596C171.835 80.2063 172.175 79.2935 172.175 79.2935L169.903 77.7011L167.971 76.1687L168.084 74.8028L168.824 73.3837L169.224 72.2443L168.484 71.678L167.918 71.5048L167.518 72.0178H166.665L166.325 69.7991L164.68 68.1534L163.26 66.7875L162.747 65.5949L162.468 63.8359L162.807 62.4701L163.12 61.7571L162.781 61.0775L164.313 60.3979V59.4585L165.079 58.6056L164.906 57.413L164.393 56.8134L164.819 55.6207L166.439 55.1943L167.891 54.6813L168.404 53.4886L169.084 53.2355L168.997 51.1034L167.804 50.3372L167.205 49.3111L166.812 48.6182Z" fill="#9FBADB"/>
<path d="M179.138 96.5235L178.538 95.5841L168.364 95.5308V96.1571L167.851 96.4436L167.225 96.7834L167.398 97.5762L166.772 98.2558L166.599 99.4485L165.919 99.7283C165.919 99.7283 165.406 100.921 165.24 101.034C165.066 101.147 164.673 101.714 164.673 101.714V102.393L164.107 103.02L163.88 103.873L163.541 104.152V105.005L164.167 105.685L163.88 106.311L164.333 107.051L164.127 107.337L163.88 107.677L164.167 108.53L163.88 109.043L164.56 109.556L164.274 110.235L165.013 110.749L164.56 111.601L164.9 111.941L164.56 112.847L163.081 114.493L162.854 115.572L162.401 115.632L162.574 116.032L162.295 116.432L162.235 117.511H161.608L162.061 118.364L161.782 118.99L170.99 119.104L170.477 121.036L171.269 121.949L171.443 122.975L171.949 123.774C172.402 123.634 172.569 123.368 172.868 123.115C173.208 122.828 173.268 122.801 173.748 122.828C173.948 122.841 174.228 122.755 174.507 122.662C174.907 122.528 175.314 122.375 175.514 122.462C175.853 122.602 175.853 122.888 176.54 122.828C177.019 122.788 177.372 122.648 177.659 122.582L177.446 116.125C177.446 116.125 177.273 112.801 177.786 108.37C178.285 103.939 179.138 96.5235 179.138 96.5235Z" fill="#9FBADB"/>
<path d="M173.541 84.1642L174.168 84.9038L173.655 86.0964L172.802 86.1564L172.289 86.7827L172.116 87.5756L171.662 87.8621L171.942 88.2019H171.149L171.603 88.9414L171.149 89.3945L171.223 89.6344L167.965 89.681L169.444 88.0886L169.384 87.5223L168.931 86.6694H147.223L147.17 83.7445L147.117 70.1924L146.264 69.7393L145.751 68.6067H145.298L144.672 67.5806L145.185 67.4074L145.411 66.6678L146.151 66.328L145.864 65.4752L144.785 65.6484L143.419 64.8555L143.306 64.0027L142.626 62.9766C142.626 62.9766 142.113 63.0899 142.113 62.9167C142.113 62.7434 141.887 61.3842 141.887 61.3842L141.487 61.0444H161.375L162.055 61.6707L162.794 62.4636L162.455 63.8295L162.734 65.5884L163.247 66.7811L164.667 68.1469L166.312 69.7926L166.652 72.0113H167.505L167.905 71.4983L168.471 71.6715L169.211 72.2379L168.811 73.3772L168.071 74.7964L167.958 76.1622L169.89 77.6947L172.162 79.2871C172.162 79.2871 171.822 80.1999 172.102 80.2532C172.389 80.3065 172.615 81.3925 172.615 81.3925C172.615 81.3925 172.049 82.1321 172.215 82.1321C172.382 82.1321 172.782 83.1581 172.782 83.1581H173.348L173.801 83.5579L174.088 84.1842H173.541V84.1642Z" fill="#9FBADB"/>
<path d="M172.802 125.273C172.775 125.64 173.002 126.013 172.828 126.299C172.655 126.579 172.175 126.499 171.802 126.526C171.429 126.552 171.516 126.866 171.203 126.899C170.889 126.926 171.516 127.499 171.856 127.665C172.195 127.838 172.029 128.178 171.829 128.205C171.629 128.232 171.629 128.718 171.429 128.884C171.229 129.058 171.229 128.258 171.029 128.092C170.83 127.918 170.63 128.032 170.55 127.752C170.463 127.465 170.01 127.725 169.67 127.725C169.33 127.725 169.297 127.499 168.904 127.245C168.504 126.992 169.104 127.785 169.47 128.012C169.843 128.238 169.697 128.265 169.644 128.465C169.59 128.665 169.364 128.378 169.164 128.491C168.964 128.605 169.39 128.864 169.304 129.144C169.217 129.431 168.851 129.797 168.597 129.771C168.344 129.744 168.571 129.291 168.484 129.058C168.398 128.831 168.258 128.718 167.718 128.605C167.178 128.491 167.038 128.691 166.952 128.944C166.865 129.198 166.779 129.144 166.552 129.284C166.325 129.424 166.212 129.737 165.986 129.737C165.759 129.737 165.872 129.457 165.872 129.171C165.872 128.884 165.473 128.798 165.273 128.745C165.073 128.691 165.299 128.998 165.553 129.224C165.806 129.451 165.526 129.477 165.299 129.424C165.073 129.371 164.56 129.224 164.273 129.198C163.994 129.171 163.421 128.911 163.307 128.771C163.194 128.631 163.847 128.458 164.073 128.431C164.3 128.405 164.047 128.118 163.874 127.918C163.874 127.918 163.421 127.945 163.307 127.945C163.194 127.945 163.134 127.605 162.881 127.545C162.628 127.492 162.594 127.372 162.594 127.232C162.594 127.092 162.421 126.946 162.255 126.946C162.081 126.946 161.881 126.546 161.655 126.293C161.428 126.039 160.942 126.266 160.775 126.093C160.602 125.92 160.835 125.553 160.662 125.24C160.489 124.927 160.176 125.213 160.062 125.613C159.949 126.013 159.523 126.093 159.183 126.179C158.843 126.266 159.609 126.746 159.809 126.972C160.009 127.199 158.59 127.199 157.737 127.225C156.884 127.252 154.866 126.173 153.846 126.006C153.107 125.88 151.867 126.179 150.961 126.386L150.521 125.466L151.488 124.161L151.314 122.741L151.488 121.435C151.488 121.435 152.567 119.903 152.567 119.73C152.567 119.557 152.507 118.137 152.507 118.137L152.054 117.571C152.054 117.571 151.827 116.378 151.767 116.205C151.714 116.032 151.201 115.752 151.201 115.752L150.861 114.446L150.068 113.367L149.955 107.397L164.127 107.344L163.88 107.684L164.167 108.536L163.88 109.049L164.56 109.562L164.273 110.242L165.013 110.755L164.56 111.608L164.9 111.948L164.56 112.854L163.081 114.5L162.854 115.579L162.401 115.639L162.574 116.039L162.295 116.438L162.235 117.518H161.608L162.061 118.371L161.781 118.997L170.989 119.11L170.476 121.042L171.269 121.955L171.442 122.981L171.949 123.781C171.882 123.801 171.809 123.821 171.729 123.834C171.103 123.947 171.049 124.487 170.763 124.487C170.483 124.487 170.536 124.86 170.876 125.087C171.216 125.313 171.556 125.513 171.929 125.34C172.295 125.167 172.129 124.687 172.355 124.374C172.582 124.061 172.608 124.46 172.635 124.714C172.662 124.96 172.828 124.907 172.802 125.273Z" fill="#9FBADB"/>
<path d="M172.108 10.4406L169.93 15.3577L166.605 15.2844L160.555 19.2954L158.763 19.8017L158.256 24.5789L156.631 25.4318L155.785 26.3712L155.698 27.4772L156.378 27.7304L156.891 28.5833L156.378 29.9491L156.124 31.315L156.378 33.2738L157.317 34.4665H158.256L158.683 35.2327L159.955 35.9123L160.642 37.1916L162.427 38.3842L163.627 39.4103V41.7089H138.301L138.055 29.3495L137.116 28.7565L136.349 27.0508L137.455 26.0248L137.708 25.092L137.542 22.6201L136.689 20.1482L136.429 17.0767L136.089 13.4988L134.983 9.91419L134.644 5.99649L135.157 5.14365L134.224 2.95827H144.498L144.558 0L146.263 0.679602L146.717 4.43074L147.23 5.117L151.034 5.62337L151.207 6.53617L152.686 6.36294L152.8 5.90987L154.958 5.51011L156.664 6.19637L158.197 8.52168H158.65V7.78877L159.729 7.56224L160.015 8.40841L161.268 9.03471L161.495 9.32121L162.121 9.48778V9.88754L163.653 9.60771L165.639 8.40841L166.099 9.54774L169.11 9.43447L170.189 10.4006L172.108 10.4406Z" fill="#9FBADB"/>
<path d="M147.796 103.733L148.023 92.799L147.23 86.6626H168.937L169.39 87.5154L169.45 88.0818L167.971 89.6742L171.229 89.6275L171.382 90.1272L170.703 90.3538L171.102 90.7535L170.023 91.2666L170.423 91.7796L169.797 91.8329L170.136 92.3992C170.136 92.3992 169.283 92.286 169.397 92.5125C169.51 92.739 168.884 93.3054 168.884 93.3054L169.283 93.7584L169.057 94.2715L169.343 95.011L168.377 95.5241V96.1504L167.864 96.4369L167.238 96.7767L167.411 97.5695L166.785 98.2491L166.612 99.4418L165.932 99.7216C165.932 99.7216 165.419 100.914 165.253 101.028C165.079 101.141 164.686 101.707 164.686 101.707V102.387L164.12 103.013L163.893 103.866L163.554 104.146V104.999L164.18 105.678L163.893 106.304L164.346 107.044L164.14 107.33L149.968 107.384L150.028 104.206L149.115 103.806L148.436 104.319L147.809 103.753V103.733H147.796Z" fill="#9FBADB"/>
<path d="M138.302 41.709H163.627V42.5618L164.56 43.5013L163.88 44.2675L164.473 46.4862L166.266 47.6788L166.812 48.6183L167.205 49.2979L167.798 50.3239L168.997 51.0902L169.077 53.2156L168.398 53.4754L167.885 54.6681L166.439 55.1811L164.82 55.6075L164.393 56.8001L164.9 57.3931L165.073 58.5858L164.307 59.4386V60.3781L162.774 61.0577L163.114 61.7439L162.801 62.4568L162.061 61.6573L161.382 61.031H141.493L141.32 60.4647L141.034 60.2381L141.32 57.7929L140.754 56.8868L140.867 55.6342L140.068 55.1211L139.674 51.7698L138.762 50.4639L138.195 48.7582L137.229 48.1919L137.283 47.1658L138.309 44.2675L137.709 43.5013V42.5618L137.456 41.709H138.302Z" fill="#9FBADB"/>
<path d="M106.147 83.731V86.6226L105.921 113.374L88.4111 113.307V114.106L89.124 114.546H80.6423V117.185L76.5913 117.158V83.731H106.147Z" fill="#9FBADB"/>
<path d="M148.023 92.7991L147.796 103.733L147.403 103.826C147.403 103.826 147.23 103.539 147.003 103.373C146.777 103.2 144.618 102.007 144.618 102.007L143.252 102.234L142.453 102.067L141.373 102.573L140.86 102.234L139.614 102.627L139.441 103.26L138.988 103.086L138.648 103.373L137.116 102.347H136.263L135.81 101.781L135.01 103.26L134.504 102.18L133.478 102.573L133.025 101.721L131.832 101.774L131.492 102.393L130.806 102.34L130.753 101.487H130.073V100.808L128.987 100.581L128.134 101.148L127.741 100.461L126.828 100.914L124.783 100.281L124.616 99.3686L124.05 98.9222L123.484 99.5418L122.511 99.1487L121.318 98.0627L120.752 98.2359V86.5828H106.154V83.7178H147.183L147.236 86.6494L148.023 92.7991Z" fill="#9FBADB"/>
<path d="M147.116 70.1787L147.17 83.7374H110.778V64.8418H143.425L144.784 65.6347L145.864 65.4614L146.15 66.3143L145.411 66.6607L145.184 67.4003L144.671 67.5669L145.297 68.5929H145.75L146.263 69.7256L147.116 70.1787Z" fill="#9FBADB"/>
<path d="M143.306 63.9891L143.419 64.8419H110.771V58.419H101.024V45.2334H128.075L128.128 45.6865L130.686 46.8791L131.539 46.0862H133.871L137.282 47.1656L137.229 48.1917L138.195 48.758L138.762 50.4637L139.668 51.7696L140.067 55.1209L140.86 55.634L140.747 56.8866L141.313 57.7927L141.027 60.2379L141.313 60.4645L141.487 61.0308L141.886 61.3706C141.886 61.3706 142.113 62.7365 142.113 62.9031C142.113 63.0763 142.626 62.963 142.626 62.963L143.306 63.9891Z" fill="#9FBADB"/>
<path d="M137.709 43.501L138.308 44.2672L137.282 47.1655L133.878 46.0862H131.546L130.693 46.879L128.134 45.6864L128.081 45.2333H101.03V31.6546V25.0918H137.709L137.456 26.0246L136.35 27.0506L137.116 28.7563L138.055 29.3493L138.302 41.7087H137.456L137.709 42.5616V43.501Z" fill="#9FBADB"/>
<path d="M137.542 22.6198L137.709 25.0917H101.03V2.95801H134.224L135.157 5.14339L134.644 5.99623L134.984 9.91393L136.09 13.4985L136.43 17.0764L136.689 20.1479L137.542 22.6198Z" fill="#9FBADB"/>
<path d="M110.778 64.8418V83.7374H76.5913V58.4189H101.03H110.778V64.8418Z" fill="#9FBADB"/>
<path d="M66.6235 34.9595V31.7081L101.03 31.6548V45.2335V58.4191H76.591H66.6235V52.0229V34.9595Z" fill="#9FBADB"/>
<path d="M101.03 25.0917V31.6545L66.6237 31.7078V34.9593L65.2312 33.1337L64.2052 33.8133L64.4317 34.8327H62.9526L62.273 34.6061L61.2536 34.9459L60.3408 34.3796L60.1142 35.4057L58.7484 35.0592L57.729 35.972L57.0427 34.8327L56.5896 32.6739H56.0233L54.7707 32.7872L55.1105 31.7678L54.5442 30.7417L53.5247 29.1493L53.7513 27.7901L53.1849 27.6769L52.3854 26.4243L51.7058 27.6769L49.4338 28.0167L49.8869 26.7641L49.5471 26.1977L50.4532 24.9451L49.8869 24.039L50.2267 22.4466L50.6798 20.0613L48.521 19.7215L47.9547 18.2424L45.6827 15.6306L43.7505 14.9443V13.9249L43.6372 12.106L42.3846 10.1738L42.2847 2.95801H101.03V25.0917Z" fill="#9FBADB"/>
<path d="M49.2806 95.6508L49.4872 94.5648L49.0607 91.9197L49.234 90.3872L48.9808 89.108L50.3467 88.5949L51.2861 89.3612L51.9657 88.5949V83.7378H76.598V117.158L66.4572 117.065L48.3545 110.502L48.8076 109.11C48.8076 109.11 49.9136 108.457 50.1734 108.03C50.4266 107.604 49.8336 107.177 49.0674 107.264L48.7276 105.219C48.7276 105.219 49.4072 104.619 49.6671 104.192C49.9202 103.766 49.8403 102.913 49.9202 101.974C50.0069 101.034 51.6259 100.102 51.6259 100.102L50.5199 98.7357L49.9202 97.3698L49.154 96.3437L49.2806 95.6508Z" fill="#9FBADB"/>
<path d="M76.5912 58.4192V83.7377H51.959V52.0229H66.6237V58.4192H76.5912Z" fill="#9FBADB"/>
<path d="M38.1938 24.7719L37.7274 23.979L38.0672 23.2128L37.301 21.767L37.3809 2.95801H42.2847L42.3846 10.1738L43.6372 12.106L43.7505 13.9249V14.9443L45.6827 15.6306L47.9547 18.2424L48.521 19.7215L50.6798 20.0613L50.2267 22.4466L49.8869 24.039L50.4533 24.9451L49.5471 26.1977L49.8869 26.7641L49.4338 28.0167L51.7059 27.6769L52.3855 26.4243L53.185 27.6769L53.7513 27.7901L53.5248 29.1493L54.5442 30.7417L55.1105 31.7678L54.7707 32.7872L56.0233 32.6739H56.5897L57.0427 34.8327L57.729 35.972L58.7484 35.0592L60.1143 35.4057L60.3408 34.3796L61.2536 34.9459L62.273 34.6061L62.9526 34.8327H64.4317L64.2052 33.8133L65.2313 33.1337L66.6238 34.9593V52.0226H51.959H37.4675V40.2628L37.8939 38.8103L38.1538 37.7043L37.8073 36.7649H36.5281L37.301 33.4402L38.3204 32.6739L38.4936 31.4813L40.3658 26.7974L38.8334 25.8579L38.1938 24.7719Z" fill="#9FBADB"/>
<path d="M37.4676 52.0229H51.9591V83.7377V88.5949L51.2795 89.3611L50.3401 88.5949L48.9742 89.1079L49.2341 90.3805L49.0608 91.9196L49.4873 94.558L49.2807 95.6507L22.9495 71.1451V52.0229H37.4676Z" fill="#9FBADB"/>
<path d="M50.5133 98.7356L51.6193 100.101C51.6193 100.101 50.0002 101.041 49.9136 101.974C49.827 102.913 49.9136 103.766 49.6604 104.192C49.4073 104.619 48.721 105.218 48.721 105.218L49.0608 107.264C49.827 107.177 50.4267 107.604 50.1668 108.03C49.9136 108.457 48.8009 109.11 48.8009 109.11L37.0078 110.389L36.9945 110.329C36.9945 110.329 36.9212 109.676 36.6414 109.276C36.3549 108.876 35.9618 106.604 35.4621 105.938C34.9624 105.272 33.29 103.253 31.8109 103.253C30.3318 103.253 30.7315 102.627 30.6782 101.947C30.6183 101.267 30.1119 101.607 28.5728 101.381C27.0404 101.154 26.2408 99.8483 25.8477 99.5618C25.448 99.2819 23.5157 99.1087 22.8095 99.0354C22.0966 98.9621 20.9639 98.8755 20.2976 98.5224C19.6314 98.1693 19.9445 96.4369 19.8312 95.5841C19.718 94.7313 19.718 94.7313 18.9384 94.6447C18.1589 94.558 18.7519 94.045 18.6852 93.3654C18.612 92.6858 17.959 93.3121 17.7924 92.6392C17.6192 91.9729 17.0529 91.9462 16.4865 91.1467C15.9202 90.3472 15.747 90.5804 15.5804 89.7275C15.4072 88.8747 14.048 87.9619 13.4816 87.169C12.9153 86.3762 13.3084 86.0297 13.8348 85.8165C14.3611 85.6033 14.048 85.9764 13.9947 84.7238C13.9347 83.4712 13.2018 83.8177 12.5622 83.731C11.9225 83.6444 11.5561 83.1914 11.3229 82.5651C11.0964 81.9388 10.9831 81.3724 10.6966 81.0326C10.4168 80.6928 10.5833 79.84 10.7566 79.0405C10.9298 78.2476 11.3229 78.9272 11.3829 79.2137C11.4428 79.5002 11.4961 80.0665 12.1757 80.353C12.8553 80.6329 12.6288 80.2931 12.5755 79.9533C12.5222 79.6135 11.6094 78.4208 11.4961 78.081C11.3829 77.7412 11.4961 77.2282 11.8959 77.1149C12.2957 77.0017 13.4283 77.5147 14.3411 77.568C15.2473 77.628 14.4544 76.8884 14.2279 76.8751C14.0013 76.8617 12.6954 77.0017 11.7826 76.7751C10.8698 76.5486 11.0431 76.8884 11.0431 77.9078C11.0431 78.9339 10.1369 78.1343 9.62389 77.6813C9.11085 77.2282 8.59782 76.9417 8.55784 76.362C8.51787 75.7757 7.80495 75.296 7.74499 74.7297C7.69169 74.1633 7.23195 74.1633 6.71892 73.9901C6.20589 73.8169 5.18649 72.3444 4.76007 71.6781C4.33365 71.0118 4.73342 70.5254 4.50688 69.506C4.28035 68.48 4.56019 67.6871 4.42027 66.6077C4.28035 65.5284 2.46142 63.9959 1.77515 63.5962C1.09555 63.1964 1.43535 62.3436 1.38871 61.7506C1.34873 61.1509 2.05499 60.0716 2.50805 59.392C2.96112 58.7124 2.62132 58.0861 2.79455 57.4464C2.96779 56.8068 2.96779 55.1345 2.88117 54.1217C2.77457 53.1023 2.3215 53.1889 2.3215 52.6759C2.3215 52.3694 2.30151 52.2695 2.1416 52.0229H22.9494V71.1451L49.2807 95.6441L49.1474 96.3437L49.9136 97.3697L50.5133 98.7356Z" fill="#9FBADB"/>
<path d="M22.9494 52.0232H2.14154C2.03494 51.8566 1.8617 51.6168 1.58187 51.197C0.902267 50.1709 1.52857 48.5786 1.01553 47.5591C0.502501 46.5331 0.789 46.1933 0.988883 45.5403C1.18877 44.8874 0.962232 44.9407 1.4153 43.9213C1.86837 42.8952 2.0949 42.5021 2.22816 42.2156C2.36141 41.9291 2.84113 37.3251 2.9544 35.5662C3.061 33.8139 3.80057 27.0512 3.57404 26.2516C3.3475 25.4588 3.57404 25.059 3.54738 24.6592C3.52073 24.2595 3.52073 23.8064 3.50741 23.2134C3.49408 22.6138 3.9205 23.3 4.44686 23.2534C4.97322 23.2134 5.05983 23.2934 5.8527 23.2134C6.64557 23.1268 6.5323 23.6931 7.1053 23.6931C7.2119 23.6931 7.25854 23.6798 7.25854 23.6598L7.95813 23.5199L8.63774 23.8597L9.4306 25.3388L9.7171 27.0445L11.2495 27.6708L13.6948 27.0445L14.6009 26.5914L16.7063 26.7047L17.4459 27.2177L19.598 26.6514L21.2437 26.7647L25.0548 25.119H27.2135L27.9531 24.6059L38.1938 24.7725L38.8334 25.8585L40.3658 26.798L38.4936 31.4886L38.3204 32.6812L37.3009 33.4408L36.5347 36.7655H37.814L38.1538 37.7049L37.9006 38.8109L37.4742 40.2568V52.0232H22.9494Z" fill="#9FBADB"/>
<path d="M38.1937 24.7722L27.953 24.6056L27.2135 25.1187H25.0547L21.2436 26.7644L19.5979 26.6511L17.4392 27.2174L16.6996 26.7044L14.5942 26.5911L13.6881 27.0442L11.2428 27.6705L9.71039 27.0442L9.42389 25.3385L8.63102 23.8594L7.95142 23.5196L7.25183 23.6595C7.27182 23.5729 6.48561 23.3397 6.53225 23.2931C6.58555 23.2398 5.39292 22.7267 5.11308 22.84C4.82658 22.9533 3.40741 22.7267 3.06761 22.327L3.04096 20.0816C3.04096 20.0816 3.21419 19.4287 3.26749 20.3948C3.32746 21.3609 3.44073 21.9605 3.52068 21.9605C3.6073 21.9605 3.54733 21.3609 3.66726 21.1077C3.78053 20.8545 3.78053 20.3681 3.78053 20.1149C3.78053 19.8618 4.34686 19.6885 4.34686 19.6885C4.34686 19.6885 4.26025 19.2888 3.6073 19.462C2.95434 19.6352 2.981 19.3487 2.90104 18.9823C2.81443 18.6092 2.50128 18.3293 3.04096 18.2694C3.58064 18.2161 4.12033 17.8696 4.12033 17.8696C4.12033 17.8696 3.84049 17.8096 3.66726 17.6697C3.49403 17.5298 3.38076 17.1034 2.95434 17.2966C2.52793 17.4965 2.38801 17.3566 2.38801 16.8169C2.38801 16.2772 2.44131 15.6242 1.98824 15.0579C1.53518 14.4916 1.78836 12.6726 1.33529 12.0197C0.882225 11.3667 -0.0572249 11.1668 0.00273994 10.0875L0.116007 6.76276C0.116007 6.76276 -0.110527 6.53623 1.88164 7.44236C3.86714 8.3485 6.37234 8.40846 6.99864 8.23523C7.62494 8.062 7.79151 7.0959 7.79151 7.0959L6.82541 5.05043L8.19128 4.71063L8.24458 4.14429L6.71214 2.95166H37.3942L37.3009 21.7673L38.0671 23.2131L37.7273 23.9793L38.1937 24.7722Z" fill="#9FBADB"/>
<path d="M152.514 118.144C152.514 118.144 152.574 119.563 152.574 119.736C152.574 119.91 151.494 121.442 151.494 121.442L151.321 122.748L151.494 124.167L150.528 125.473L150.968 126.392C150.628 126.472 150.328 126.532 150.128 126.559C149.389 126.646 148.169 127.325 147.83 127.325C147.49 127.325 146.89 127.325 146.497 127.412C146.097 127.498 146.524 127.072 146.637 126.845C146.75 126.619 146.724 126.079 146.637 126.019C146.55 125.966 146.297 125.993 146.011 126.272C145.724 126.559 145.638 126.472 145.524 126.326C145.411 126.186 145.245 126.239 145.324 126.499C145.411 126.752 145.238 126.952 145.098 127.012C144.958 127.072 145.158 127.325 145.524 127.438C145.897 127.552 145.724 127.778 145.778 128.231C145.838 128.684 145.498 128.798 145.324 128.858C145.151 128.911 145.098 129.197 144.785 129.197C144.472 129.197 144.532 129.371 144.332 129.877C144.132 130.39 143.339 131.156 143.112 131.156C142.886 131.156 142.626 131.496 142.4 131.669C142.173 131.843 141.373 131.756 141.147 131.809C140.92 131.863 141.12 132.182 141.147 132.322C141.174 132.462 140.774 132.522 140.581 132.409C140.381 132.296 140.128 132.356 139.814 132.436C139.501 132.522 139.501 132.462 139.415 132.062C139.328 131.663 139.075 132.089 138.875 132.236C138.675 132.376 138.675 132.209 138.475 132.209C138.275 132.209 138.102 132.462 137.962 132.382C137.822 132.296 137.509 132.069 137.336 132.016C137.163 131.956 137.449 132.555 137.509 132.669C137.569 132.782 138.222 133.068 138.309 133.268C138.395 133.468 137.935 133.808 137.509 134.035C137.083 134.261 136.943 134.008 136.829 133.608C136.716 133.208 136.43 133.555 136.35 133.661C136.263 133.775 136.49 133.948 136.49 133.948C136.49 133.948 136.403 134.774 136.35 134.914C136.296 135.054 135.837 135.34 135.723 135.254C135.61 135.167 135.723 134.881 135.61 134.881C135.497 134.881 135.097 134.881 134.931 134.881C134.764 134.881 134.364 135.307 134.364 135.507C134.364 135.707 134.737 135.76 134.991 135.507C135.244 135.254 135.364 135.42 135.364 135.594C135.364 135.767 134.851 136.447 134.684 136.786C134.511 137.126 134.398 136.813 134.311 136.7C134.224 136.586 133.831 136.586 133.485 136.613C133.145 136.64 133.112 136.726 133.172 136.84C133.232 136.953 134.024 137.606 134.111 137.719C134.198 137.832 133.485 139.451 133.371 139.591C133.258 139.731 132.659 139.565 132.405 139.565C132.152 139.565 132.179 139.991 132.265 140.018C132.352 140.044 133.258 140.018 133.318 140.298C133.371 140.584 133.145 141.49 132.865 141.55C132.579 141.603 132.752 141.95 132.812 142.23C132.865 142.51 133.265 142.63 133.265 142.969C133.265 143.309 133.325 144.615 133.665 144.902C134.004 145.188 134.744 147.147 134.744 147.147C134.744 147.147 134.191 147.187 133.891 147.273C133.591 147.36 133.638 147.527 133.292 147.527C132.952 147.527 132.652 146.927 132.479 146.76C132.305 146.587 131.413 146.587 129.794 146.507C129.794 146.507 125.956 144.635 125.236 144.548C125.236 144.548 124.383 141.99 123.531 141.477L123.491 139.818L123.104 139.731L123.191 138.325L121.485 137.093C121.485 137.093 121.359 136.2 121.232 135.987C121.105 135.774 119.44 134.454 119.44 134.454L117.481 129.637C117.481 129.637 116.501 128.531 115.988 128.105C115.475 127.678 114.836 127.505 114.836 127.505L114.796 126.779L114.496 126.992L113.303 125.713L112.79 126.099C112.79 126.099 112.45 125.926 112.324 125.846C112.197 125.766 110.791 125.806 110.405 125.759C110.019 125.719 109.465 125.46 109.465 125.46L109.212 126.139L107.806 126.053C107.806 126.053 107.42 126.992 106.954 127.925C106.487 128.864 106.827 128.991 106.827 128.991L105.335 130.483C105.335 130.483 104.482 130.097 104.015 130.097C103.549 130.097 102.736 128.991 102.61 128.904C102.483 128.818 100.524 128.265 100.477 128.011C100.437 127.758 99.9644 127.412 99.7112 127.412C99.458 127.412 98.432 126.179 98.0922 125.54C97.7524 124.9 97.9656 124.3 98.0055 124.007C98.0455 123.707 96.7729 121.495 96.3465 120.936C95.9201 120.383 94.5143 119.83 94.301 119.696C94.0878 119.57 92.169 117.438 91.8691 117.011C91.5693 116.585 90.7165 116.585 90.4633 116.372C90.2101 116.158 89.1441 114.539 89.1441 114.539L88.4312 114.1V113.307L105.934 113.36L106.161 86.5957H120.766V98.2489L121.332 98.0756L122.525 99.155L123.491 99.5548L124.057 98.9285L124.623 99.3815L124.797 100.294L126.842 100.921L127.748 100.468L128.148 101.147L129.001 100.581L130.08 100.807V101.487H130.76L130.813 102.34L131.493 102.393L131.832 101.767L133.025 101.714L133.478 102.566L134.504 102.167L135.017 103.246L135.81 101.767L136.263 102.333H137.116L138.648 103.359L138.988 103.073L139.441 103.246L139.615 102.62L140.867 102.22L141.38 102.56L142.46 102.047L143.252 102.22L144.618 101.993C144.618 101.993 146.777 103.186 147.004 103.359C147.23 103.532 147.403 103.812 147.403 103.812L147.803 103.726V103.759L148.429 104.325L149.109 103.812L150.022 104.212L149.962 107.39L150.075 113.36L150.868 114.439L151.208 115.745C151.208 115.745 151.721 116.032 151.774 116.198C151.827 116.372 152.061 117.564 152.061 117.564L152.514 118.144Z" fill="#2776EA"/>
</svg>
