<svg width="354" height="228" viewBox="0 0 354 228" fill="none" xmlns="http://www.w3.org/2000/svg">
<rect width="354" height="228" fill="url(#paint0_linear_257_14347)" fill-opacity="0.3"/>
<g clip-path="url(#clip0_257_14347)">
<rect width="203" height="42" transform="translate(-39 106.543) rotate(-45)" fill="#2776EA"/>
<g clip-path="url(#clip1_257_14347)">
<path d="M27.6153 73.6388C27.4627 73.4862 27.3023 73.3727 27.134 73.2983C26.9658 73.2162 26.7701 73.1849 26.5471 73.2044C26.3201 73.2201 26.0462 73.2866 25.7253 73.404C25.4045 73.5214 25.0151 73.6994 24.5573 73.9381C24.0447 74.2003 23.536 74.4273 23.0312 74.619C22.5303 74.8068 22.0432 74.9301 21.5697 74.9888C21.0962 75.0396 20.6443 75.0025 20.2138 74.8772C19.7873 74.7481 19.3901 74.4996 19.0223 74.1318C18.6662 73.7757 18.4217 73.3746 18.2886 72.9286C18.1517 72.4786 18.1204 72.009 18.1947 71.5199C18.2651 71.0268 18.4354 70.5318 18.7054 70.0349C18.9793 69.534 19.3471 69.0527 19.8088 68.591C20.4388 67.961 21.1021 67.5247 21.7986 67.2821C22.4951 67.0395 23.1701 66.9866 23.8236 67.1236C24.481 67.2566 25.064 67.5775 25.5727 68.0862L23.8236 69.8353C23.5732 69.5849 23.3012 69.4186 23.0077 69.3364C22.7143 69.2464 22.4071 69.2523 22.0862 69.354C21.7693 69.4518 21.4523 69.6592 21.1354 69.9762C20.8301 70.2814 20.6227 70.5827 20.5132 70.8801C20.3997 71.1736 20.3704 71.4494 20.4251 71.7077C20.476 71.962 20.5973 72.1851 20.7891 72.3768C20.9338 72.5216 21.1001 72.6175 21.288 72.6644C21.4797 72.7075 21.6988 72.7075 21.9453 72.6644C22.1919 72.6214 22.4658 72.5392 22.7671 72.4179C23.0684 72.2966 23.401 72.1401 23.7649 71.9483C24.3714 71.6236 24.9388 71.3731 25.4671 71.197C25.9992 71.017 26.4942 70.9173 26.9521 70.8977C27.4099 70.8781 27.8384 70.9466 28.2375 71.1031C28.6366 71.2597 29.0123 71.514 29.3644 71.8662C29.7362 72.2379 29.9964 72.6429 30.1451 73.0812C30.2938 73.5194 30.3329 73.9773 30.2625 74.4546C30.1921 74.932 30.0199 75.4133 29.746 75.8985C29.4721 76.3838 29.1003 76.8612 28.6308 77.3307C28.2081 77.7533 27.7366 78.1153 27.2162 78.4166C26.6918 78.714 26.1479 78.9174 25.5845 79.027C25.0249 79.1327 24.4693 79.1092 23.9175 78.9566C23.3658 78.804 22.8493 78.487 22.368 78.0057L24.1347 76.239C24.4008 76.5051 24.6669 76.689 24.9329 76.7907C25.199 76.8925 25.4632 76.9257 25.7253 76.8905C25.9914 76.8514 26.2536 76.7535 26.5119 76.597C26.774 76.4366 27.0303 76.2312 27.2808 75.9807C27.586 75.6755 27.7934 75.382 27.9029 75.1003C28.0164 74.8146 28.0438 74.5486 27.9851 74.302C27.9303 74.0516 27.8071 73.8305 27.6153 73.6388ZM35.0251 67.8372L32.196 65.0081C31.9925 64.8046 31.7851 64.6638 31.5738 64.5855C31.3586 64.5033 31.1395 64.4916 30.9164 64.5503C30.6973 64.6051 30.4782 64.742 30.2591 64.9612C30.0712 65.149 29.9421 65.3446 29.8717 65.5481C29.7973 65.7477 29.7836 65.9453 29.8306 66.1409C29.8736 66.3327 29.9754 66.5088 30.1358 66.6692L28.4454 68.3596C28.1754 68.0896 27.9817 67.7707 27.8643 67.4029C27.7469 67.0351 27.7156 66.6398 27.7704 66.2172C27.8212 65.7907 27.9582 65.3603 28.1812 64.9259C28.4082 64.4877 28.7271 64.0631 29.138 63.6522C29.631 63.1592 30.1515 62.8031 30.6993 62.584C31.2471 62.3649 31.7949 62.3101 32.3427 62.4196C32.8945 62.5253 33.4169 62.8246 33.9099 63.3177L36.6275 66.0353C36.9758 66.3835 37.2829 66.6477 37.549 66.8277C37.8112 67.0038 38.0655 67.1329 38.3121 67.2151L38.4118 67.3148L36.7038 69.0229C36.4495 68.9329 36.1716 68.7803 35.8703 68.5651C35.569 68.342 35.2873 68.0994 35.0251 67.8372ZM32.8123 65.1783L33.7808 66.1233L32.8358 67.0683C32.6127 67.2914 32.4445 67.5105 32.331 67.7257C32.2175 67.9409 32.1549 68.1483 32.1432 68.3479C32.1275 68.5435 32.1549 68.7274 32.2254 68.8996C32.2997 69.0679 32.4093 69.2244 32.554 69.3692C32.6988 69.514 32.8632 69.6118 33.0471 69.6627C33.2271 69.7096 33.413 69.7037 33.6047 69.645C33.7925 69.5824 33.9706 69.467 34.1388 69.2987C34.3932 69.0444 34.5634 68.7724 34.6495 68.4829C34.7356 68.1933 34.7551 67.9233 34.7082 67.6729C34.6651 67.4185 34.579 67.2229 34.4499 67.0859L35.6121 67.3559C35.7099 67.579 35.7901 67.8314 35.8527 68.1131C35.9193 68.3909 35.9466 68.6883 35.9349 69.0053C35.9193 69.3183 35.8449 69.6392 35.7119 69.9679C35.5749 70.2927 35.348 70.6135 35.031 70.9305C34.628 71.3335 34.1819 71.6192 33.6927 71.7874C33.2036 71.9479 32.7204 71.9811 32.243 71.8872C31.7656 71.7855 31.343 71.5507 30.9751 71.1829C30.6425 70.8503 30.4097 70.4922 30.2767 70.1087C30.1436 69.7253 30.1104 69.3242 30.1769 68.9055C30.2434 68.479 30.4156 68.0368 30.6934 67.579C30.9673 67.1172 31.3469 66.6438 31.8321 66.1585L32.8123 65.1783ZM40.6212 62.6402L36.9117 56.1133L38.6784 54.3466L42.8869 62.8398L41.8186 63.9081L40.6212 62.6402ZM34.5345 58.4905L41.0732 62.2L42.3293 63.3974L41.2552 64.4715L32.7619 60.2631L34.5345 58.4905ZM49.07 56.8915C48.5769 57.3846 48.0565 57.7485 47.5087 57.9833C46.9569 58.2141 46.4032 58.3256 45.8476 58.3178C45.2958 58.3061 44.7617 58.1867 44.2452 57.9598C43.7248 57.7289 43.2532 57.4022 42.8306 56.9796L42.5958 56.7448C42.1145 56.2635 41.7428 55.7548 41.4806 55.2187C41.2185 54.6826 41.0678 54.1407 41.0287 53.5928C40.9935 53.0411 41.0815 52.5031 41.2928 51.9787C41.5002 51.4505 41.8348 50.9555 42.2965 50.4937C42.7465 50.0437 43.22 49.7189 43.7169 49.5194C44.2139 49.3198 44.7167 49.2396 45.2254 49.2787C45.738 49.3139 46.2467 49.4626 46.7515 49.7248C47.2523 49.9831 47.7356 50.345 48.2013 50.8107L48.9056 51.515L43.8578 56.5628L42.7308 55.4359L46.1176 52.0492L45.9884 51.92C45.7537 51.6852 45.5013 51.5189 45.2313 51.4211C44.9613 51.3155 44.6874 51.292 44.4095 51.3507C44.1317 51.4094 43.8617 51.5698 43.5995 51.832C43.3765 52.055 43.2337 52.2957 43.1711 52.5539C43.1085 52.8122 43.1143 53.0802 43.1887 53.3581C43.2669 53.632 43.4 53.9137 43.5878 54.2033C43.7756 54.485 44.0104 54.7667 44.2921 55.0485L44.5269 55.2833C44.7813 55.5376 45.0513 55.7372 45.3369 55.882C45.6265 56.0228 45.9161 56.105 46.2056 56.1285C46.4991 56.148 46.7847 56.105 47.0626 55.9993C47.3443 55.8898 47.6084 55.7117 47.855 55.4652C48.1602 55.16 48.3852 54.8176 48.53 54.4381C48.6747 54.0507 48.7217 53.6398 48.6708 53.2054L50.3847 53.2759C50.4434 53.6007 50.4454 53.9665 50.3906 54.3735C50.3397 54.7765 50.2106 55.1952 50.0032 55.6296C49.7919 56.06 49.4808 56.4807 49.07 56.8915ZM51.6516 36.9478L60.2152 45.5115L58.5248 47.2019L51.9098 40.5869L50.5246 43.2634L49.1922 41.931L51.4696 37.1298L51.6516 36.9478ZM67.8481 35.2373L69.1687 36.558L63.3227 42.404L62.1957 41.2771L61.9961 35.5484C61.9648 34.9615 61.912 34.4704 61.8377 34.0752C61.7594 33.676 61.6616 33.3473 61.5442 33.0891C61.4268 32.823 61.282 32.6039 61.1098 32.4317C60.8516 32.1734 60.5874 31.9954 60.3174 31.8976C60.0435 31.7958 59.7716 31.7782 59.5016 31.8447C59.2355 31.9073 58.9812 32.06 58.7385 32.3026C58.4803 32.5608 58.3199 32.8465 58.2572 33.1595C58.1985 33.4686 58.2318 33.7836 58.357 34.1045C58.4862 34.4215 58.6916 34.7208 58.9733 35.0025L57.277 36.6988C56.7683 36.1902 56.424 35.6032 56.244 34.938C56.0601 34.2689 56.064 33.588 56.2557 32.8954C56.4436 32.1989 56.8407 31.5473 57.4472 30.9408C58.0459 30.3421 58.6485 29.9352 59.2551 29.72C59.8616 29.4969 60.4524 29.4617 61.0277 29.6143C61.6029 29.7591 62.1409 30.0819 62.6418 30.5828C62.9235 30.8645 63.1544 31.1854 63.3344 31.5454C63.5105 31.9015 63.6474 32.2967 63.7453 32.731C63.8431 33.1576 63.9096 33.6232 63.9448 34.128C63.98 34.6328 63.9996 35.1728 64.0035 35.748L64.1855 38.8999L67.8481 35.2373ZM64.0764 28.749L63.6244 28.2971C63.2997 27.9723 63.0747 27.6064 62.9494 27.1995C62.8242 26.7925 62.8184 26.3719 62.9318 25.9375C63.0453 25.5032 63.3016 25.0864 63.7008 24.6873C64.1116 24.2765 64.5342 24.0143 64.9686 23.9008C65.4068 23.7834 65.8275 23.7893 66.2305 23.9184C66.6375 24.0436 67.0033 24.2686 67.3281 24.5934L67.7801 25.0454C68.097 25.3623 68.3181 25.7243 68.4433 26.1312C68.5725 26.5343 68.5803 26.953 68.4668 27.3873C68.3533 27.8217 68.0951 28.2403 67.692 28.6434C67.2851 29.0503 66.8625 29.3125 66.4242 29.4299C65.9899 29.5434 65.5692 29.5375 65.1623 29.4123C64.7553 29.2871 64.3934 29.066 64.0764 28.749ZM64.7455 27.176L65.1975 27.628C65.3344 27.7649 65.491 27.8706 65.667 27.9449C65.8431 28.0114 66.0251 28.029 66.2129 27.9977C66.4007 27.9586 66.5749 27.8588 66.7353 27.6984C66.9036 27.5301 67.0033 27.356 67.0346 27.176C67.062 26.9921 67.0405 26.8141 66.9701 26.6419C66.8957 26.4658 66.7901 26.3093 66.6531 26.1723L66.2012 25.7204C66.0564 25.5756 65.896 25.4699 65.7199 25.4034C65.5438 25.3291 65.3638 25.3095 65.1799 25.3447C64.996 25.3721 64.8199 25.4699 64.6516 25.6382C64.4951 25.7947 64.4012 25.9669 64.3699 26.1547C64.3347 26.3386 64.3523 26.5206 64.4227 26.7006C64.4931 26.8727 64.6007 27.0312 64.7455 27.176ZM72.9688 29.471L72.5168 29.019C72.1959 28.6982 71.9729 28.3343 71.8477 27.9273C71.7264 27.5164 71.7225 27.0938 71.8359 26.6595C71.9533 26.2212 72.2135 25.8006 72.6166 25.3975C73.0235 24.9906 73.4442 24.7304 73.8785 24.6169C74.3129 24.5034 74.7335 24.5093 75.1405 24.6345C75.5474 24.7597 75.9113 24.9828 76.2322 25.3036L76.6842 25.7556C77.005 26.0764 77.2281 26.4404 77.3533 26.8473C77.4824 27.2504 77.4903 27.669 77.3768 28.1034C77.2633 28.5377 77.005 28.9564 76.602 29.3595C76.195 29.7664 75.7724 30.0286 75.3342 30.146C74.8959 30.2634 74.4714 30.2614 74.0605 30.1401C73.6535 30.0149 73.2896 29.7919 72.9688 29.471ZM73.6437 27.8921L74.0957 28.344C74.2366 28.4849 74.4009 28.5867 74.5887 28.6493C74.7766 28.7119 74.9624 28.7256 75.1464 28.6903C75.3342 28.6512 75.5024 28.5573 75.6511 28.4086C75.839 28.2208 75.9485 28.0369 75.9798 27.8569C76.0111 27.6769 75.9837 27.5047 75.8977 27.3404C75.8155 27.1721 75.704 27.0175 75.5631 26.8767L75.1111 26.4247C74.9703 26.2838 74.8118 26.1801 74.6357 26.1136C74.4557 26.0432 74.2737 26.0256 74.0898 26.0608C73.9059 26.0882 73.7318 26.1841 73.5674 26.3484C73.4031 26.5127 73.3053 26.6888 73.274 26.8767C73.2427 27.0567 73.2622 27.2367 73.3327 27.4167C73.3992 27.5927 73.5029 27.7512 73.6437 27.8921ZM69.5644 21.5119L72.0707 32.3647L70.8146 32.7521L68.3083 21.8993L69.5644 21.5119Z" fill="white"/>
</g>
</g>
<mask id="path-2-inside-1_257_14347" fill="white">
<path fill-rule="evenodd" clip-rule="evenodd" d="M111 40C111 38.3431 112.343 37 114 37H122C123.657 37 125 38.3431 125 40V49H200V40C200 38.3431 201.343 37 203 37H211C212.657 37 214 38.3431 214 40V49H229C231.761 49 234 51.2386 234 54V186C234 188.761 231.761 191 229 191H96C93.2386 191 91 188.761 91 186V54C91 51.2386 93.2386 49 96 49H111V40Z"/>
</mask>
<path fill-rule="evenodd" clip-rule="evenodd" d="M111 40C111 38.3431 112.343 37 114 37H122C123.657 37 125 38.3431 125 40V49H200V40C200 38.3431 201.343 37 203 37H211C212.657 37 214 38.3431 214 40V49H229C231.761 49 234 51.2386 234 54V186C234 188.761 231.761 191 229 191H96C93.2386 191 91 188.761 91 186V54C91 51.2386 93.2386 49 96 49H111V40Z" fill="#596C76"/>
<path d="M125 49H122V52H125V49ZM200 49V52H203V49H200ZM214 49H211V52H214V49ZM111 49V52H114V49H111ZM114 34C110.686 34 108 36.6863 108 40H114V40V34ZM122 34H114V40H122V34ZM128 40C128 36.6863 125.314 34 122 34V40H128ZM128 49V40H122V49H128ZM200 46H125V52H200V46ZM203 49V40H197V49H203ZM203 40V40V34C199.686 34 197 36.6863 197 40H203ZM203 40H211V34H203V40ZM211 40H217C217 36.6863 214.314 34 211 34V40ZM211 40V49H217V40H211ZM229 46H214V52H229V46ZM237 54C237 49.5817 233.418 46 229 46V52C230.105 52 231 52.8954 231 54H237ZM237 186V54H231V186H237ZM229 194C233.418 194 237 190.418 237 186H231C231 187.105 230.105 188 229 188V194ZM96 194H229V188H96V194ZM88 186C88 190.418 91.5817 194 96 194V188C94.8954 188 94 187.105 94 186H88ZM88 54V186H94V54H88ZM96 46C91.5817 46 88 49.5817 88 54H94C94 52.8954 94.8954 52 96 52V46ZM111 46H96V52H111V46ZM108 40V49H114V40H108Z" fill="black" mask="url(#path-2-inside-1_257_14347)"/>
<path d="M94 54C94 52.8954 94.8954 52 96 52H114V188H96C94.8954 188 94 187.105 94 186V54Z" fill="#465A61"/>
<rect x="104.5" y="87.5" width="116" height="90" rx="3.5" fill="#B6C4CF" stroke="black" stroke-width="3"/>
<rect x="104.5" y="62.5" width="116" height="13" rx="3.5" fill="#B6C4CF" stroke="black" stroke-width="3"/>
<rect x="115.5" y="99.5" width="17" height="17" rx="1.5" fill="#2776EA" stroke="black" stroke-width="3"/>
<rect x="141.5" y="99.5" width="17" height="17" rx="1.5" fill="#2776EA" stroke="black" stroke-width="3"/>
<rect x="167.5" y="99.5" width="17" height="17" rx="1.5" fill="#2776EA" stroke="black" stroke-width="3"/>
<rect x="193.5" y="99.5" width="17" height="17" rx="1.5" fill="#2776EA" stroke="black" stroke-width="3"/>
<rect x="115.5" y="124.5" width="17" height="17" rx="1.5" fill="#2776EA" stroke="black" stroke-width="3"/>
<rect x="141.5" y="124.5" width="17" height="17" rx="1.5" fill="#2776EA" stroke="black" stroke-width="3"/>
<rect x="167.5" y="124.5" width="17" height="17" rx="1.5" fill="#E8EDF2" stroke="black" stroke-width="3"/>
<rect x="193.5" y="124.5" width="17" height="17" rx="1.5" fill="#E8EDF2" stroke="black" stroke-width="3"/>
<rect x="115.5" y="149.5" width="17" height="17" rx="1.5" fill="#E8EDF2" stroke="black" stroke-width="3"/>
<rect x="141.5" y="149.5" width="17" height="17" rx="1.5" fill="#E8EDF2" stroke="black" stroke-width="3"/>
<rect x="167.5" y="149.5" width="17" height="17" rx="1.5" fill="#E8EDF2" stroke="black" stroke-width="3"/>
<rect x="193.5" y="149.5" width="17" height="17" rx="1.5" fill="#E8EDF2" stroke="black" stroke-width="3"/>
<defs>
<linearGradient id="paint0_linear_257_14347" x1="5.10551e-06" y1="110.934" x2="353.775" y2="121.69" gradientUnits="userSpaceOnUse">
<stop stop-color="#2776EA"/>
<stop offset="1" stop-color="#2776EA" stop-opacity="0"/>
</linearGradient>
<clipPath id="clip0_257_14347">
<rect width="203" height="42" fill="white" transform="translate(-39 106.543) rotate(-45)"/>
</clipPath>
<clipPath id="clip1_257_14347">
<rect width="77" height="22" fill="white" transform="translate(12.6187 69.0664) rotate(-45)"/>
</clipPath>
</defs>
</svg>
