<svg width="31" height="30" viewBox="0 0 31 30" fill="none" xmlns="http://www.w3.org/2000/svg">
<path d="M15.5 0.416504C7.44999 0.416504 0.916656 6.94984 0.916656 14.9998C0.916656 23.0498 7.44999 29.5832 15.5 29.5832C23.55 29.5832 30.0833 23.0498 30.0833 14.9998C30.0833 6.94984 23.55 0.416504 15.5 0.416504ZM17.5562 23.8811V26.6665H13.6625V23.8519C11.1687 23.3269 9.05416 21.7228 8.89374 18.8936H11.7521C11.8979 20.4248 12.9479 21.6207 15.6167 21.6207C18.475 21.6207 19.1167 20.1915 19.1167 19.3019C19.1167 18.0915 18.475 16.954 15.2229 16.1811C11.6062 15.3061 9.12707 13.8186 9.12707 10.829C9.12707 8.32067 11.1542 6.68734 13.6625 6.14775V3.33317H17.5562V6.17692C20.2687 6.83317 21.625 8.88942 21.7125 11.1207H18.8542C18.7812 9.50192 17.9208 8.39359 15.6167 8.39359C13.4292 8.39359 12.1167 9.38525 12.1167 10.7853C12.1167 12.0103 13.0646 12.8123 16.0104 13.5707C18.9562 14.329 22.1062 15.5978 22.1062 19.2728C22.0917 21.9415 20.0937 23.3998 17.5562 23.8811Z" fill="#9FBADB"/>
</svg>
