<svg width="21" height="25" viewBox="0 0 21 25" fill="none" xmlns="http://www.w3.org/2000/svg">
<path d="M6.12501 17.8333C6.12501 18.3856 6.57272 18.8333 7.12501 18.8333H13.875C14.4273 18.8333 14.875 18.3856 14.875 17.8333V11.0833C14.875 10.531 15.3227 10.0833 15.875 10.0833H18.2941C19.185 10.0833 19.6312 9.00619 19.0012 8.37623L11.2071 0.582106C10.8166 0.191582 10.1834 0.191582 9.7929 0.582107L1.99878 8.37623C1.36881 9.00619 1.81498 10.0833 2.70589 10.0833H5.125C5.67729 10.0833 6.12501 10.531 6.12501 11.0833V17.8333ZM9.7929 4.70919C10.1834 4.31867 10.8166 4.31867 11.2071 4.70919L12.8115 6.31354C13.1263 6.62837 12.9033 7.16667 12.4581 7.16667C12.1821 7.16667 11.9583 7.39041 11.9583 7.66642V14.9167C11.9583 15.469 11.5106 15.9167 10.9583 15.9167H10.0417C9.48939 15.9167 9.04167 15.469 9.04167 14.9167V7.66642C9.04167 7.39041 8.81793 7.16667 8.54192 7.16667C8.09669 7.16667 7.87372 6.62837 8.18855 6.31354L9.7929 4.70919ZM0.291672 22.75C0.291672 22.1977 0.739387 21.75 1.29167 21.75H19.7083C20.2606 21.75 20.7083 22.1977 20.7083 22.75V23.6667C20.7083 24.2189 20.2606 24.6667 19.7083 24.6667H1.29167C0.739386 24.6667 0.291672 24.219 0.291672 23.6667V22.75Z" fill="#9FBADB"/>
</svg>
