<svg width="35" height="35" viewBox="0 0 35 35" fill="none" xmlns="http://www.w3.org/2000/svg">
<path d="M10.6667 27.7498C8.78752 27.7498 7.2671 29.2873 7.2671 31.1665C7.2671 33.0457 8.78752 34.5832 10.6667 34.5832C12.5459 34.5832 14.0834 33.0457 14.0834 31.1665C14.0834 29.2873 12.5459 27.7498 10.6667 27.7498ZM0.416687 0.416504V3.83317H3.83335L9.98335 16.7994L7.6771 20.9848C7.40377 21.4632 7.25002 22.0269 7.25002 22.6248C7.25002 24.504 8.78752 26.0415 10.6667 26.0415H31.1667V22.6248H11.3842C11.145 22.6248 10.9571 22.4369 10.9571 22.1978L11.0084 21.9928L12.5459 19.2082H25.2729C26.5542 19.2082 27.6817 18.5078 28.2625 17.4486L34.3783 6.3615C34.515 6.12234 34.5834 5.83192 34.5834 5.5415C34.5834 4.60192 33.8146 3.83317 32.875 3.83317H7.60877L6.00294 0.416504H0.416687ZM27.75 27.7498C25.8709 27.7498 24.3504 29.2873 24.3504 31.1665C24.3504 33.0457 25.8709 34.5832 27.75 34.5832C29.6292 34.5832 31.1667 33.0457 31.1667 31.1665C31.1667 29.2873 29.6292 27.7498 27.75 27.7498Z" fill="white"/>
</svg>
