<svg width="33" height="26" viewBox="0 0 33 26" fill="none" xmlns="http://www.w3.org/2000/svg">
<path d="M29.625 0.333496H3.375C1.77083 0.333496 0.458332 1.646 0.458332 3.25016V22.2085C0.458332 23.8127 1.77083 25.1252 3.375 25.1252H29.625C31.2292 25.1252 32.5417 23.8127 32.5417 22.2085V3.25016C32.5417 1.646 31.2292 0.333496 29.625 0.333496ZM15.0417 22.2085H3.375V3.25016H15.0417V22.2085ZM29.625 22.2085H17.9583V3.25016H29.625V22.2085ZM19.4167 8.35433H28.1667V10.5418H19.4167V8.35433ZM19.4167 12.0002H28.1667V14.1877H19.4167V12.0002ZM19.4167 15.646H28.1667V17.8335H19.4167V15.646Z" fill="#9FBADB"/>
</svg>
