<svg width="31" height="28" viewBox="0 0 31 28" fill="none" xmlns="http://www.w3.org/2000/svg">
<path d="M30.0833 9.625V6.70833H27.1667V3.79167C27.1667 2.1875 25.8542 0.875 24.25 0.875H3.83332C2.22916 0.875 0.916656 2.1875 0.916656 3.79167V24.2083C0.916656 25.8125 2.22916 27.125 3.83332 27.125H24.25C25.8542 27.125 27.1667 25.8125 27.1667 24.2083V21.2917H30.0833V18.375H27.1667V15.4583H30.0833V12.5417H27.1667V9.625H30.0833ZM24.25 24.2083H3.83332V3.79167H24.25V24.2083ZM6.74999 15.4583H14.0417V21.2917H6.74999V15.4583ZM15.5 6.70833H21.3333V11.0833H15.5V6.70833ZM6.74999 6.70833H14.0417V14H6.74999V6.70833ZM15.5 12.5417H21.3333V21.2917H15.5V12.5417Z" fill="#9FBADB"/>
</svg>
