<svg width="31" height="31" viewBox="0 0 31 31" fill="none" xmlns="http://www.w3.org/2000/svg">
<path d="M15.4854 0.916504C7.43544 0.916504 0.916687 7.44984 0.916687 15.4998C0.916687 23.5498 7.43544 30.0832 15.4854 30.0832C23.55 30.0832 30.0834 23.5498 30.0834 15.4998C30.0834 7.44984 23.55 0.916504 15.4854 0.916504ZM25.5917 9.6665H21.2896C20.8229 7.84359 20.1521 6.09359 19.2771 4.47484C21.9604 5.39359 24.1917 7.26025 25.5917 9.6665ZM15.5 3.8915C16.7104 5.6415 17.6584 7.58109 18.2854 9.6665H12.7146C13.3417 7.58109 14.2896 5.6415 15.5 3.8915ZM4.21252 18.4165C3.97919 17.4832 3.83335 16.5061 3.83335 15.4998C3.83335 14.4936 3.97919 13.5165 4.21252 12.5832H9.14169C9.02502 13.5457 8.93752 14.5082 8.93752 15.4998C8.93752 16.4915 9.02502 17.454 9.14169 18.4165H4.21252ZM5.40835 21.3332H9.71044C10.1771 23.1561 10.8479 24.9061 11.7229 26.5248C9.0396 25.6061 6.80835 23.754 5.40835 21.3332ZM9.71044 9.6665H5.40835C6.80835 7.24567 9.0396 5.39359 11.7229 4.47484C10.8479 6.09359 10.1771 7.84359 9.71044 9.6665ZM15.5 27.1082C14.2896 25.3582 13.3417 23.4186 12.7146 21.3332H18.2854C17.6584 23.4186 16.7104 25.3582 15.5 27.1082ZM18.9125 18.4165H12.0875C11.9563 17.454 11.8542 16.4915 11.8542 15.4998C11.8542 14.5082 11.9563 13.5311 12.0875 12.5832H18.9125C19.0438 13.5311 19.1459 14.5082 19.1459 15.4998C19.1459 16.4915 19.0438 17.454 18.9125 18.4165ZM19.2771 26.5248C20.1521 24.9061 20.8229 23.1561 21.2896 21.3332H25.5917C24.1917 23.7394 21.9604 25.6061 19.2771 26.5248ZM21.8584 18.4165C21.975 17.454 22.0625 16.4915 22.0625 15.4998C22.0625 14.5082 21.975 13.5457 21.8584 12.5832H26.7875C27.0209 13.5165 27.1667 14.4936 27.1667 15.4998C27.1667 16.5061 27.0209 17.4832 26.7875 18.4165H21.8584Z" fill="white"/>
</svg>
