<svg width="354" height="229" viewBox="0 0 354 229" fill="none" xmlns="http://www.w3.org/2000/svg">
<rect width="354" height="229" fill="url(#paint0_linear_257_14386)" fill-opacity="0.3"/>
<g clip-path="url(#clip0_257_14386)">
<rect width="203" height="42" transform="translate(-39 106.543) rotate(-45)" fill="#2776EA"/>
<g clip-path="url(#clip1_257_14386)">
<path d="M27.6153 73.6388C27.4627 73.4862 27.3023 73.3727 27.134 73.2983C26.9658 73.2162 26.7701 73.1849 26.5471 73.2044C26.3201 73.2201 26.0462 73.2866 25.7253 73.404C25.4045 73.5214 25.0151 73.6994 24.5573 73.9381C24.0447 74.2003 23.536 74.4273 23.0312 74.619C22.5303 74.8068 22.0432 74.9301 21.5697 74.9888C21.0962 75.0396 20.6443 75.0025 20.2138 74.8772C19.7873 74.7481 19.3901 74.4996 19.0223 74.1318C18.6662 73.7757 18.4217 73.3746 18.2886 72.9286C18.1517 72.4786 18.1204 72.009 18.1947 71.5199C18.2651 71.0268 18.4354 70.5318 18.7054 70.0349C18.9793 69.534 19.3471 69.0527 19.8088 68.591C20.4388 67.961 21.1021 67.5247 21.7986 67.2821C22.4951 67.0395 23.1701 66.9866 23.8236 67.1236C24.481 67.2566 25.064 67.5775 25.5727 68.0862L23.8236 69.8353C23.5732 69.5849 23.3012 69.4186 23.0077 69.3364C22.7143 69.2464 22.4071 69.2523 22.0862 69.354C21.7693 69.4518 21.4523 69.6592 21.1354 69.9762C20.8301 70.2814 20.6227 70.5827 20.5132 70.8801C20.3997 71.1736 20.3704 71.4494 20.4251 71.7077C20.476 71.962 20.5973 72.1851 20.7891 72.3768C20.9338 72.5216 21.1001 72.6175 21.288 72.6644C21.4797 72.7075 21.6988 72.7075 21.9453 72.6644C22.1919 72.6214 22.4658 72.5392 22.7671 72.4179C23.0684 72.2966 23.401 72.1401 23.7649 71.9483C24.3714 71.6236 24.9388 71.3731 25.4671 71.197C25.9992 71.017 26.4942 70.9173 26.9521 70.8977C27.4099 70.8781 27.8384 70.9466 28.2375 71.1031C28.6366 71.2597 29.0123 71.514 29.3644 71.8662C29.7362 72.2379 29.9964 72.6429 30.1451 73.0812C30.2938 73.5194 30.3329 73.9773 30.2625 74.4546C30.1921 74.932 30.0199 75.4133 29.746 75.8985C29.4721 76.3838 29.1003 76.8612 28.6308 77.3307C28.2081 77.7533 27.7366 78.1153 27.2162 78.4166C26.6918 78.714 26.1479 78.9174 25.5845 79.027C25.0249 79.1327 24.4693 79.1092 23.9175 78.9566C23.3658 78.804 22.8493 78.487 22.368 78.0057L24.1347 76.239C24.4008 76.5051 24.6669 76.689 24.9329 76.7907C25.199 76.8925 25.4632 76.9257 25.7253 76.8905C25.9914 76.8514 26.2536 76.7535 26.5119 76.597C26.774 76.4366 27.0303 76.2312 27.2808 75.9807C27.586 75.6755 27.7934 75.382 27.9029 75.1003C28.0164 74.8146 28.0438 74.5486 27.9851 74.302C27.9303 74.0516 27.8071 73.8305 27.6153 73.6388ZM35.0251 67.8372L32.196 65.0081C31.9925 64.8046 31.7851 64.6638 31.5738 64.5855C31.3586 64.5033 31.1395 64.4916 30.9164 64.5503C30.6973 64.6051 30.4782 64.742 30.2591 64.9612C30.0712 65.149 29.9421 65.3446 29.8717 65.5481C29.7973 65.7477 29.7836 65.9453 29.8306 66.1409C29.8736 66.3327 29.9754 66.5088 30.1358 66.6692L28.4454 68.3596C28.1754 68.0896 27.9817 67.7707 27.8643 67.4029C27.7469 67.0351 27.7156 66.6398 27.7704 66.2172C27.8212 65.7907 27.9582 65.3603 28.1812 64.9259C28.4082 64.4877 28.7271 64.0631 29.138 63.6522C29.631 63.1592 30.1515 62.8031 30.6993 62.584C31.2471 62.3649 31.7949 62.3101 32.3427 62.4196C32.8945 62.5253 33.4169 62.8246 33.9099 63.3177L36.6275 66.0353C36.9758 66.3835 37.2829 66.6477 37.549 66.8277C37.8112 67.0038 38.0655 67.1329 38.3121 67.2151L38.4118 67.3148L36.7038 69.0229C36.4495 68.9329 36.1716 68.7803 35.8703 68.5651C35.569 68.342 35.2873 68.0994 35.0251 67.8372ZM32.8123 65.1783L33.7808 66.1233L32.8358 67.0683C32.6127 67.2914 32.4445 67.5105 32.331 67.7257C32.2175 67.9409 32.1549 68.1483 32.1432 68.3479C32.1275 68.5435 32.1549 68.7274 32.2254 68.8996C32.2997 69.0679 32.4093 69.2244 32.554 69.3692C32.6988 69.514 32.8632 69.6118 33.0471 69.6627C33.2271 69.7096 33.413 69.7037 33.6047 69.645C33.7925 69.5824 33.9706 69.467 34.1388 69.2987C34.3932 69.0444 34.5634 68.7724 34.6495 68.4829C34.7356 68.1933 34.7551 67.9233 34.7082 67.6729C34.6651 67.4185 34.579 67.2229 34.4499 67.0859L35.6121 67.3559C35.7099 67.579 35.7901 67.8314 35.8527 68.1131C35.9193 68.3909 35.9466 68.6883 35.9349 69.0053C35.9193 69.3183 35.8449 69.6392 35.7119 69.9679C35.5749 70.2927 35.348 70.6135 35.031 70.9305C34.628 71.3335 34.1819 71.6192 33.6927 71.7874C33.2036 71.9479 32.7204 71.9811 32.243 71.8872C31.7656 71.7855 31.343 71.5507 30.9751 71.1829C30.6425 70.8503 30.4097 70.4922 30.2767 70.1087C30.1436 69.7253 30.1104 69.3242 30.1769 68.9055C30.2434 68.479 30.4156 68.0368 30.6934 67.579C30.9673 67.1172 31.3469 66.6438 31.8321 66.1585L32.8123 65.1783ZM40.6212 62.6402L36.9117 56.1133L38.6784 54.3466L42.8869 62.8398L41.8186 63.9081L40.6212 62.6402ZM34.5345 58.4905L41.0732 62.2L42.3293 63.3974L41.2552 64.4715L32.7619 60.2631L34.5345 58.4905ZM49.07 56.8915C48.5769 57.3846 48.0565 57.7485 47.5087 57.9833C46.9569 58.2141 46.4032 58.3256 45.8476 58.3178C45.2958 58.3061 44.7617 58.1867 44.2452 57.9598C43.7248 57.7289 43.2532 57.4022 42.8306 56.9796L42.5958 56.7448C42.1145 56.2635 41.7428 55.7548 41.4806 55.2187C41.2185 54.6826 41.0678 54.1407 41.0287 53.5928C40.9935 53.0411 41.0815 52.5031 41.2928 51.9787C41.5002 51.4505 41.8348 50.9555 42.2965 50.4937C42.7465 50.0437 43.22 49.7189 43.7169 49.5194C44.2139 49.3198 44.7167 49.2396 45.2254 49.2787C45.738 49.3139 46.2467 49.4626 46.7515 49.7248C47.2523 49.9831 47.7356 50.345 48.2013 50.8107L48.9056 51.515L43.8578 56.5628L42.7308 55.4359L46.1176 52.0492L45.9884 51.92C45.7537 51.6852 45.5013 51.5189 45.2313 51.4211C44.9613 51.3155 44.6874 51.292 44.4095 51.3507C44.1317 51.4094 43.8617 51.5698 43.5995 51.832C43.3765 52.055 43.2337 52.2957 43.1711 52.5539C43.1085 52.8122 43.1143 53.0802 43.1887 53.3581C43.2669 53.632 43.4 53.9137 43.5878 54.2033C43.7756 54.485 44.0104 54.7667 44.2921 55.0485L44.5269 55.2833C44.7813 55.5376 45.0513 55.7372 45.3369 55.882C45.6265 56.0228 45.9161 56.105 46.2056 56.1285C46.4991 56.148 46.7847 56.105 47.0626 55.9993C47.3443 55.8898 47.6084 55.7117 47.855 55.4652C48.1602 55.16 48.3852 54.8176 48.53 54.4381C48.6747 54.0507 48.7217 53.6398 48.6708 53.2054L50.3847 53.2759C50.4434 53.6007 50.4454 53.9665 50.3906 54.3735C50.3397 54.7765 50.2106 55.1952 50.0032 55.6296C49.7919 56.06 49.4808 56.4807 49.07 56.8915ZM51.6516 36.9478L60.2152 45.5115L58.5248 47.2019L51.9098 40.5869L50.5246 43.2634L49.1922 41.931L51.4696 37.1298L51.6516 36.9478ZM66.7387 34.3041C67.2748 34.8402 67.6015 35.4173 67.7189 36.0356C67.8324 36.6499 67.7639 37.2701 67.5135 37.8962C67.2631 38.5145 66.862 39.0995 66.3102 39.6512C65.7585 40.203 65.1716 40.606 64.5494 40.8603C63.9233 41.1108 63.3011 41.1812 62.6829 41.0716C62.0607 40.9582 61.4816 40.6334 60.9455 40.0973C60.5855 39.7373 60.3331 39.3401 60.1883 38.9058C60.0396 38.4675 59.9907 38.0156 60.0416 37.5499C60.0925 37.0765 60.2392 36.6088 60.4818 36.1471C60.7205 35.6815 61.0472 35.2412 61.462 34.8265C62.0177 34.2708 62.6124 33.8717 63.2463 33.6291C63.8803 33.3865 64.5005 33.318 65.107 33.4236C65.7135 33.5293 66.2574 33.8228 66.7387 34.3041ZM64.925 35.8947C64.6629 35.6325 64.387 35.4584 64.0974 35.3723C63.8079 35.2784 63.5222 35.2706 63.2405 35.3488C62.9587 35.4271 62.6985 35.5856 62.4598 35.8243C62.2211 36.063 62.0627 36.3232 61.9844 36.6049C61.9061 36.8867 61.912 37.1743 62.002 37.4678C62.092 37.7534 62.2681 38.0273 62.5303 38.2895C62.7885 38.5477 63.0605 38.7219 63.3461 38.8119C63.6357 38.898 63.9213 38.9019 64.2031 38.8236C64.4848 38.7375 64.747 38.5732 64.9896 38.3306C65.2322 38.088 65.3926 37.8297 65.4709 37.5558C65.5492 37.2741 65.5413 36.9923 65.4474 36.7106C65.3574 36.4249 65.1833 36.153 64.925 35.8947ZM62.6183 30.5476C63.0527 30.9819 63.3227 31.4828 63.4283 32.0502C63.53 32.6136 63.4694 33.1947 63.2463 33.7934C63.0272 34.3882 62.6555 34.9478 62.1311 35.4721C61.6029 36.0004 61.0394 36.376 60.4407 36.5991C59.842 36.8221 59.2609 36.8828 58.6975 36.781C58.1301 36.6754 57.6292 36.4054 57.1949 35.971C56.6783 35.4545 56.3594 34.9047 56.2381 34.3217C56.1168 33.7308 56.1677 33.1399 56.3907 32.5491C56.6177 31.9543 56.9914 31.3967 57.5118 30.8763C58.0401 30.348 58.5996 29.9724 59.1905 29.7493C59.7853 29.5224 60.3761 29.4715 60.9631 29.5967C61.5501 29.7141 62.1018 30.031 62.6183 30.5476ZM61.0042 32.3143C60.7733 32.0834 60.5327 31.925 60.2822 31.8389C60.0279 31.7489 59.7775 31.7332 59.5309 31.7919C59.2883 31.8467 59.0575 31.9836 58.8383 32.2028C58.627 32.4141 58.4901 32.641 58.4275 32.8836C58.3688 33.1223 58.3844 33.3689 58.4744 33.6232C58.5644 33.8697 58.7288 34.1123 58.9675 34.351C59.1983 34.5819 59.4409 34.7462 59.6953 34.8441C59.9496 34.9341 60.202 34.9517 60.4524 34.8969C60.7029 34.8421 60.9357 34.7071 61.1509 34.4919C61.3661 34.2767 61.4992 34.0458 61.5501 33.7993C61.6048 33.5489 61.5853 33.2984 61.4914 33.048C61.3974 32.7897 61.2351 32.5452 61.0042 32.3143ZM64.0764 28.749L63.6244 28.2971C63.2997 27.9723 63.0747 27.6064 62.9494 27.1995C62.8242 26.7925 62.8184 26.3719 62.9318 25.9375C63.0453 25.5032 63.3016 25.0864 63.7008 24.6873C64.1116 24.2765 64.5342 24.0143 64.9686 23.9008C65.4068 23.7834 65.8275 23.7893 66.2305 23.9184C66.6375 24.0436 67.0033 24.2686 67.3281 24.5934L67.7801 25.0454C68.097 25.3623 68.3181 25.7243 68.4433 26.1312C68.5725 26.5343 68.5803 26.953 68.4668 27.3873C68.3533 27.8217 68.0951 28.2403 67.692 28.6434C67.2851 29.0503 66.8625 29.3125 66.4242 29.4299C65.9899 29.5434 65.5692 29.5375 65.1623 29.4123C64.7553 29.2871 64.3934 29.066 64.0764 28.749ZM64.7455 27.176L65.1975 27.628C65.3344 27.7649 65.491 27.8706 65.667 27.9449C65.8431 28.0114 66.0251 28.029 66.2129 27.9977C66.4007 27.9586 66.5749 27.8588 66.7353 27.6984C66.9036 27.5301 67.0033 27.356 67.0346 27.176C67.062 26.9921 67.0405 26.8141 66.9701 26.6419C66.8957 26.4658 66.7901 26.3093 66.6531 26.1723L66.2012 25.7204C66.0564 25.5756 65.896 25.4699 65.7199 25.4034C65.5438 25.3291 65.3638 25.3095 65.1799 25.3447C64.996 25.3721 64.8199 25.4699 64.6516 25.6382C64.4951 25.7947 64.4012 25.9669 64.3699 26.1547C64.3347 26.3386 64.3523 26.5206 64.4227 26.7006C64.4931 26.8727 64.6007 27.0312 64.7455 27.176ZM72.9688 29.471L72.5168 29.019C72.1959 28.6982 71.9729 28.3343 71.8477 27.9273C71.7264 27.5164 71.7225 27.0938 71.8359 26.6595C71.9533 26.2212 72.2135 25.8006 72.6166 25.3975C73.0235 24.9906 73.4442 24.7304 73.8785 24.6169C74.3129 24.5034 74.7335 24.5093 75.1405 24.6345C75.5474 24.7597 75.9113 24.9828 76.2322 25.3036L76.6842 25.7556C77.005 26.0764 77.2281 26.4404 77.3533 26.8473C77.4824 27.2504 77.4903 27.669 77.3768 28.1034C77.2633 28.5377 77.005 28.9564 76.602 29.3595C76.195 29.7664 75.7724 30.0286 75.3342 30.146C74.8959 30.2634 74.4714 30.2614 74.0605 30.1401C73.6535 30.0149 73.2896 29.7919 72.9688 29.471ZM73.6437 27.8921L74.0957 28.344C74.2366 28.4849 74.4009 28.5867 74.5887 28.6493C74.7766 28.7119 74.9624 28.7256 75.1464 28.6903C75.3342 28.6512 75.5024 28.5573 75.6511 28.4086C75.839 28.2208 75.9485 28.0369 75.9798 27.8569C76.0111 27.6769 75.9837 27.5047 75.8977 27.3404C75.8155 27.1721 75.704 27.0175 75.5631 26.8767L75.1111 26.4247C74.9703 26.2838 74.8118 26.1801 74.6357 26.1136C74.4557 26.0432 74.2737 26.0256 74.0898 26.0608C73.9059 26.0882 73.7318 26.1841 73.5674 26.3484C73.4031 26.5127 73.3053 26.6888 73.274 26.8767C73.2427 27.0567 73.2622 27.2367 73.3327 27.4167C73.3992 27.5927 73.5029 27.7512 73.6437 27.8921ZM69.5644 21.5119L72.0707 32.3647L70.8146 32.7521L68.3083 21.8993L69.5644 21.5119Z" fill="white"/>
</g>
</g>
<mask id="path-2-inside-1_257_14386" fill="white">
<path fill-rule="evenodd" clip-rule="evenodd" d="M111 41C111 39.3431 112.343 38 114 38H122C123.657 38 125 39.3431 125 41V50H200V41C200 39.3431 201.343 38 203 38H211C212.657 38 214 39.3431 214 41V50H229C231.761 50 234 52.2386 234 55V187C234 189.761 231.761 192 229 192H96C93.2386 192 91 189.761 91 187V55C91 52.2386 93.2386 50 96 50H111V41Z"/>
</mask>
<path fill-rule="evenodd" clip-rule="evenodd" d="M111 41C111 39.3431 112.343 38 114 38H122C123.657 38 125 39.3431 125 41V50H200V41C200 39.3431 201.343 38 203 38H211C212.657 38 214 39.3431 214 41V50H229C231.761 50 234 52.2386 234 55V187C234 189.761 231.761 192 229 192H96C93.2386 192 91 189.761 91 187V55C91 52.2386 93.2386 50 96 50H111V41Z" fill="#596C76"/>
<path d="M125 50H122V53H125V50ZM200 50V53H203V50H200ZM214 50H211V53H214V50ZM111 50V53H114V50H111ZM114 35C110.686 35 108 37.6863 108 41H114V41V35ZM122 35H114V41H122V35ZM128 41C128 37.6863 125.314 35 122 35V41H128ZM128 50V41H122V50H128ZM200 47H125V53H200V47ZM203 50V41H197V50H203ZM203 41V41V35C199.686 35 197 37.6863 197 41H203ZM203 41H211V35H203V41ZM211 41H217C217 37.6863 214.314 35 211 35V41ZM211 41V50H217V41H211ZM229 47H214V53H229V47ZM237 55C237 50.5817 233.418 47 229 47V53C230.105 53 231 53.8954 231 55H237ZM237 187V55H231V187H237ZM229 195C233.418 195 237 191.418 237 187H231C231 188.105 230.105 189 229 189V195ZM96 195H229V189H96V195ZM88 187C88 191.418 91.5817 195 96 195V189C94.8954 189 94 188.105 94 187H88ZM88 55V187H94V55H88ZM96 47C91.5817 47 88 50.5817 88 55H94C94 53.8954 94.8954 53 96 53V47ZM111 47H96V53H111V47ZM108 41V50H114V41H108Z" fill="black" mask="url(#path-2-inside-1_257_14386)"/>
<path d="M94 55C94 53.8954 94.8954 53 96 53H114V189H96C94.8954 189 94 188.105 94 187V55Z" fill="#465A61"/>
<rect x="104.5" y="88.5" width="116" height="90" rx="3.5" fill="#B6C4CF" stroke="black" stroke-width="3"/>
<rect x="104.5" y="63.5" width="116" height="13" rx="3.5" fill="#B6C4CF" stroke="black" stroke-width="3"/>
<rect x="115.5" y="100.5" width="17" height="17" rx="1.5" fill="#2776EA" stroke="black" stroke-width="3"/>
<rect x="141.5" y="100.5" width="17" height="17" rx="1.5" fill="#2776EA" stroke="black" stroke-width="3"/>
<rect x="167.5" y="100.5" width="17" height="17" rx="1.5" fill="#2776EA" stroke="black" stroke-width="3"/>
<rect x="193.5" y="100.5" width="17" height="17" rx="1.5" fill="#2776EA" stroke="black" stroke-width="3"/>
<rect x="115.5" y="125.5" width="17" height="17" rx="1.5" fill="#2776EA" stroke="black" stroke-width="3"/>
<rect x="141.5" y="125.5" width="17" height="17" rx="1.5" fill="#2776EA" stroke="black" stroke-width="3"/>
<rect x="167.5" y="125.5" width="17" height="17" rx="1.5" fill="#2776EA" stroke="black" stroke-width="3"/>
<rect x="193.5" y="125.5" width="17" height="17" rx="1.5" fill="#2776EA" stroke="black" stroke-width="3"/>
<rect x="115.5" y="150.5" width="17" height="17" rx="1.5" fill="#2776EA" stroke="black" stroke-width="3"/>
<rect x="141.5" y="150.5" width="17" height="17" rx="1.5" fill="#2776EA" stroke="black" stroke-width="3"/>
<rect x="167.5" y="150.5" width="17" height="17" rx="1.5" fill="#2776EA" stroke="black" stroke-width="3"/>
<rect x="193.5" y="150.5" width="17" height="17" rx="1.5" fill="#2776EA" stroke="black" stroke-width="3"/>
<defs>
<linearGradient id="paint0_linear_257_14386" x1="5.10551e-06" y1="111.421" x2="353.778" y2="122.13" gradientUnits="userSpaceOnUse">
<stop stop-color="#2776EA"/>
<stop offset="1" stop-color="#2776EA" stop-opacity="0"/>
</linearGradient>
<clipPath id="clip0_257_14386">
<rect width="203" height="42" fill="white" transform="translate(-39 106.543) rotate(-45)"/>
</clipPath>
<clipPath id="clip1_257_14386">
<rect width="77" height="22" fill="white" transform="translate(12.6187 69.0664) rotate(-45)"/>
</clipPath>
</defs>
</svg>
